<svg width="74" height="70" viewBox="0 0 74 70" fill="none" xmlns="http://www.w3.org/2000/svg">
<g clip-path="url(#clip0)">
<path d="M36.91 69.88C57.2948 69.88 73.82 54.2368 73.82 34.94C73.82 15.6432 57.2948 0 36.91 0C16.5252 0 0 15.6432 0 34.94C0 54.2368 16.5252 69.88 36.91 69.88Z" fill="#7092BE"/>
<path d="M36.8702 67.75C55.9019 67.75 71.3302 53.141 71.3302 35.12C71.3302 17.0989 55.9019 2.48999 36.8702 2.48999C17.8384 2.48999 2.41016 17.0989 2.41016 35.12C2.41016 53.141 17.8384 67.75 36.8702 67.75Z" fill="white"/>
<path d="M36.3701 64.9901C53.7671 64.9901 67.8701 51.6392 67.8701 35.1701C67.8701 18.701 53.7671 5.3501 36.3701 5.3501C18.9731 5.3501 4.87012 18.701 4.87012 35.1701C4.87012 51.6392 18.9731 64.9901 36.3701 64.9901Z" fill="#99D9EA"/>
<path d="M36.3699 62.1C52.0824 62.1 64.8199 50.043 64.8199 35.17C64.8199 20.297 52.0824 8.23999 36.3699 8.23999C20.6574 8.23999 7.91992 20.297 7.91992 35.17C7.91992 50.043 20.6574 62.1 36.3699 62.1Z" fill="#B5E61D"/>
<path fill-rule="evenodd" clip-rule="evenodd" d="M54.4856 21.5214H54.1061V20.2748C54.1061 19.0469 53.1071 18.0479 51.8792 18.0479H47.2874C47.2182 17.4588 46.7167 17 46.1092 17H42.3554C41.748 17 41.2464 17.4588 41.1772 18.0479H40.8064C38.9622 18.0479 37.3537 19.0753 36.5222 20.5876C35.6908 19.0753 34.0823 18.0479 32.238 18.0479H21.1402C19.9123 18.0479 18.9133 19.0469 18.9133 20.2748V21.5214H18.5338C17.1367 21.5214 16 22.658 16 24.0553V48.8925C16 50.2895 17.1367 51.4262 18.5338 51.4262H54.4856C55.8828 51.4262 57.0194 50.2895 57.0194 48.8925V24.0553C57.0194 22.658 55.8828 21.5214 54.4856 21.5214ZM55.8177 48.8925C55.8177 49.627 55.2201 50.2245 54.4856 50.2245H18.5338C17.7993 50.2245 17.2017 49.627 17.2017 48.8925V24.0553C17.2017 23.3208 17.7993 22.7232 18.5338 22.7232H18.9133V43.7978V46.3C18.9133 47.5279 19.9123 48.5269 21.1402 48.5269H36.5215H36.5229H51.8792C53.1071 48.5269 54.1061 47.5279 54.1061 46.3V22.7232H54.4856C55.2201 22.7232 55.8177 23.3208 55.8177 24.0553V48.8925ZM20.1151 46.3V43.7978V20.2748C20.1151 19.7095 20.5749 19.2497 21.1402 19.2497H32.238C34.2601 19.2497 35.9063 20.8873 35.9214 22.9059L35.921 22.9189C35.9208 22.9238 35.9206 22.9287 35.9206 22.9336C35.9206 22.9399 35.9211 22.9461 35.9215 22.9523C35.9217 22.9553 35.9219 22.9584 35.9221 22.9615V47.3251H21.1402C20.5749 47.3251 20.1151 46.8653 20.1151 46.3ZM40.8064 19.2497H41.1684V27.1464C41.1684 28.0551 42.2661 28.5164 42.9152 27.8794L44.2324 26.5867L45.5495 27.8794C46.1955 28.5137 47.2963 28.0595 47.2963 27.1464V23.5268L47.2962 19.2497H51.8791C52.4444 19.2497 52.9043 19.7096 52.9043 20.2749V46.3001C52.9043 46.8654 52.4444 47.3253 51.8791 47.3253H37.1238V22.9337C37.1238 22.9288 37.1236 22.9239 37.1234 22.9189C37.1233 22.9146 37.1231 22.9103 37.1231 22.906C37.1382 20.8874 38.7844 19.2497 40.8064 19.2497ZM46.0946 26.7305V23.5268L46.0945 18.2017H42.3701V26.7306L43.5128 25.6091C43.9094 25.2199 44.555 25.2198 44.9519 25.609L46.0946 26.7305Z" fill="black"/>
</g>
<defs>
<clipPath id="clip0">
<rect width="73.82" height="69.89" fill="white"/>
</clipPath>
</defs>
</svg>
