<svg width="74" height="70" viewBox="0 0 74 70" fill="none" xmlns="http://www.w3.org/2000/svg">
<g clip-path="url(#clip0)">
<path d="M36.91 69.88C57.2948 69.88 73.82 54.2368 73.82 34.94C73.82 15.6432 57.2948 0 36.91 0C16.5252 0 0 15.6432 0 34.94C0 54.2368 16.5252 69.88 36.91 69.88Z" fill="#7092BE"/>
<path d="M36.8702 67.75C55.9019 67.75 71.3302 53.141 71.3302 35.12C71.3302 17.0989 55.9019 2.48999 36.8702 2.48999C17.8384 2.48999 2.41016 17.0989 2.41016 35.12C2.41016 53.141 17.8384 67.75 36.8702 67.75Z" fill="#118E11"/>
<path d="M36.3701 64.9901C53.7671 64.9901 67.8701 51.6392 67.8701 35.1701C67.8701 18.701 53.7671 5.3501 36.3701 5.3501C18.9731 5.3501 4.87012 18.701 4.87012 35.1701C4.87012 51.6392 18.9731 64.9901 36.3701 64.9901Z" fill="#99D9EA"/>
<path d="M36.3699 62.1C52.0824 62.1 64.8199 50.043 64.8199 35.17C64.8199 20.297 52.0824 8.23999 36.3699 8.23999C20.6574 8.23999 7.91992 20.297 7.91992 35.17C7.91992 50.043 20.6574 62.1 36.3699 62.1Z" fill="#DFB728"/>
<path d="M57.0996 45.8027C56.5663 45.081 55.9602 44.4516 55.0773 44.1339C54.6509 43.9814 54.2808 43.7231 54.072 43.2646C53.9029 42.8945 53.8466 42.6313 54.1545 42.4565C54.4362 42.2981 54.4945 42.0543 54.6227 41.8261C54.7898 41.5279 54.9656 41.2355 55.122 40.9325C55.8233 39.5726 56.4595 38.1885 56.3769 36.5994C56.3682 36.4314 56.3837 36.2682 56.5012 36.1526C57.0189 35.6485 57.2336 34.9511 57.6493 34.3799C58.0291 33.8564 58.0816 33.259 57.897 32.6228C57.6668 31.8263 57.1928 31.195 56.612 30.6433C56.0311 30.0915 55.5921 29.466 55.4813 28.6142C55.3842 27.8672 54.951 27.2718 54.2818 26.8745C54.0671 26.7473 53.8709 26.588 53.6562 26.4617C53.2162 26.2024 52.9763 25.8216 52.8549 25.3291C52.6524 24.4883 52.3539 23.6735 51.9652 22.9008C51.6727 22.2807 51.1728 21.7822 50.5519 21.4914C49.2183 20.8504 47.973 20.0549 46.721 19.2729C46.3664 19.0603 46.082 18.7482 45.9031 18.3754C45.6185 17.7616 45.3203 17.1613 44.8862 16.6271C44.2266 15.8199 43.5001 15.1118 42.4996 14.7748C41.7906 14.5368 41.0582 14.3658 40.3297 14.192C39.3001 13.9482 38.2462 14.0744 37.2059 14.0433C36.188 14.0142 35.1661 14.2298 34.1482 14.0113C34.0365 13.988 33.918 13.9909 33.8568 14.1172C33.8296 14.3619 34.0073 14.3522 34.1657 14.3668C34.2327 14.3726 34.3153 14.3882 34.2978 14.4639C34.2853 14.4931 34.2665 14.5191 34.2426 14.5399C34.2187 14.5608 34.1904 14.576 34.1598 14.5844C34.0326 14.6213 33.8782 14.6815 33.7801 14.5533C33.6577 14.3959 33.851 14.2619 33.8578 14.1113C32.9836 14.2551 32.1414 14.4999 31.2915 14.7301C30.0113 15.0705 28.8525 15.7639 27.9473 16.731C27.3062 17.4051 26.8264 18.221 26.0901 18.8106C25.9551 18.9184 25.9046 19.1137 25.8269 19.2788C25.0828 20.8737 24.6797 22.5813 24.2213 24.2626C23.9562 25.2536 23.4396 26.1593 22.7216 26.892C21.8872 27.7575 21.1325 28.6754 20.6633 29.8147C20.0106 31.4048 20.7789 32.9093 21.9173 33.5155C22.0144 33.5689 22.1223 33.6679 22.2087 33.5533C22.2815 33.4562 22.1698 33.3542 22.1329 33.2532C22.3321 33.2066 22.4418 33.3872 22.5992 33.4475C22.6613 33.4708 22.7429 33.5135 22.7759 33.4348C22.7925 33.396 22.7439 33.3086 22.7002 33.2697C22.4361 33.0194 22.1536 32.7892 21.8551 32.581C21.419 32.2964 21.0985 31.9118 21.0383 31.3776C20.9811 30.9458 21.023 30.5067 21.1606 30.0935C21.5251 28.9858 22.164 27.9883 23.0178 27.1941C23.6346 26.6278 24.0989 25.9615 24.334 25.1543C24.7001 23.8984 25.4811 22.8921 26.2883 21.9062C26.431 21.7323 26.6972 21.3933 26.8137 21.4982C26.9798 21.6459 26.7166 21.9363 26.6438 22.1665C26.6235 22.2324 26.5871 22.2921 26.5379 22.3404C25.9871 22.8124 25.688 23.4584 25.3412 24.0693C25.0725 24.5427 24.8037 25.0161 24.535 25.4894C24.502 25.5477 24.4554 25.6157 24.535 25.6623C24.5506 25.672 24.6321 25.5914 24.6661 25.5438C24.7225 25.4725 24.775 25.3983 24.8235 25.3214C25.1877 24.7706 25.5452 24.216 25.9162 23.6701C26.0134 23.5341 26.093 23.3282 26.329 23.4487C26.127 23.6148 26.0716 23.8372 26.0775 24.0936C26.0787 24.4129 26.0177 24.7293 25.8978 25.0251C25.4995 26.0586 25.1693 27.13 24.3602 27.9517C24.1924 28.136 24.0364 28.3307 23.893 28.5345C23.4043 29.1677 23.1173 29.9332 23.0693 30.7316C23.0615 30.8531 23.0411 31.0522 23.1664 31.0716C23.2801 31.0881 23.247 30.8909 23.2733 30.788C23.5054 29.8545 23.8318 28.9765 24.5418 28.2752C24.8963 27.9255 25.1314 27.4758 25.3772 27.0387C25.6006 26.6404 25.7142 26.1888 25.9813 25.8138C25.9629 26.4452 26.1047 27.0766 25.9143 27.7167C25.721 28.3231 25.4476 28.9009 25.1013 29.4349C24.7588 29.9697 24.4847 30.5453 24.2854 31.1483C24.1633 31.54 24.124 31.9528 24.1698 32.3605C24.1805 32.4577 24.2368 32.5344 24.3456 32.5198C24.3624 32.516 24.378 32.5084 24.3915 32.4977C24.4049 32.487 24.4157 32.4734 24.4232 32.4579C24.4307 32.4424 24.4345 32.4255 24.4346 32.4083C24.4346 32.3911 24.4307 32.3741 24.4233 32.3586C24.229 31.805 24.5146 31.3339 24.7147 30.8744C25.1353 29.9177 25.8026 29.0882 26.1717 28.1032C26.1931 28.0459 26.2271 27.9566 26.3106 27.9779C26.3941 27.9993 26.366 28.0751 26.3592 28.1372C26.3368 28.3179 26.3232 28.4995 26.2863 28.6763C26.1018 29.5748 25.6831 30.3839 25.3014 31.2018C25.2016 31.3899 25.1473 31.5988 25.1431 31.8118C25.5415 31.2809 25.865 30.6979 26.1047 30.0789C26.1545 29.9284 26.2237 29.7851 26.3106 29.6525C26.3547 29.6104 26.4056 29.5759 26.4611 29.5505C26.4756 29.6142 26.4809 29.6796 26.4767 29.7448C26.3756 30.1897 26.2231 30.6212 26.0221 31.0308C25.7637 31.5621 25.449 32.0682 25.2693 32.6345C25.1188 33.1094 24.942 33.5796 24.9216 34.0856C24.9208 34.1177 24.9272 34.1495 24.9403 34.1787C24.9534 34.208 24.9729 34.2339 24.9974 34.2546C25.0722 34.2935 25.1168 34.2167 25.1246 34.1507C25.2586 33.0346 25.8434 32.0993 26.3378 31.1279C26.3711 31.0711 26.4078 31.0163 26.4476 30.9638C26.4792 30.993 26.5005 31.0317 26.5084 31.0741C26.5162 31.1164 26.5102 31.1602 26.4913 31.1988C26.324 31.7631 26.1079 32.3117 25.8453 32.8384C25.5811 33.3698 25.3276 33.9069 25.2295 34.4955C25.0809 35.3979 24.9818 36.3031 25.4063 37.1696C25.4354 37.2278 25.4451 37.3259 25.5258 37.3085C25.6064 37.291 25.5743 37.2055 25.5617 37.1443C25.4995 36.8529 25.4228 36.5722 25.3791 36.2769C25.2188 35.2085 25.585 34.2546 25.9803 33.3066C26.058 33.1201 26.0716 32.8355 26.3543 32.8278C26.4514 32.8278 26.5204 33.4397 26.4446 33.6048C26.4194 33.6411 26.3893 33.6738 26.3553 33.7019C26.1989 33.8807 26.1707 34.106 26.1037 34.3236C25.7686 35.4163 25.8327 36.5324 25.8754 37.6465C25.8952 38.0348 25.9944 38.415 26.1668 38.7635C26.195 38.8208 26.2747 38.9121 26.2999 38.9024C26.397 38.8665 26.3854 38.7693 26.3582 38.6848C26.0289 37.663 26.0814 36.6149 26.128 35.5659C26.1503 35.2471 26.2248 34.934 26.3485 34.6393C26.3728 34.5771 26.4077 34.5198 26.4378 34.4605C26.4596 34.5131 26.4781 34.5669 26.4932 34.6218C26.575 34.9976 26.5856 35.3854 26.5243 35.765C26.3932 36.6392 26.4903 37.5328 26.5456 38.4167C26.5488 38.5086 26.583 38.5966 26.6428 38.6664C26.8225 38.8383 26.9818 39.0549 27.2673 39.0607C27.3382 39.0607 27.3577 38.7616 27.4713 39.0228C27.5325 39.1637 27.6656 39.3142 27.5685 39.4667C27.5073 39.5639 27.3518 39.5444 27.2508 39.492C27.0303 39.3774 26.8215 39.2375 26.601 39.1229C26.5701 39.1146 26.5376 39.1141 26.5064 39.1213C26.4752 39.1286 26.4463 39.1435 26.4223 39.1647C26.3951 39.1957 26.4136 39.2958 26.4456 39.3405C26.7069 39.696 27.0527 39.8883 27.5005 39.7912C27.6481 39.7591 27.7579 39.7222 27.8424 39.8786C28.1182 40.3895 28.3679 40.9004 27.9298 41.4521C27.8754 41.5244 27.8276 41.6015 27.787 41.6823C26.9468 43.2734 26.1173 44.8741 25.5957 46.6011C25.5197 46.873 25.3898 47.1269 25.2138 47.3477C25.0378 47.5684 24.8192 47.7516 24.571 47.8862C23.7963 48.3217 22.987 48.6927 22.1514 48.9954C21.4452 49.2664 20.7702 49.5782 20.1582 50.0289C19.8484 50.2581 19.4958 50.4291 19.1694 50.636C18.0553 51.3402 16.8849 51.9754 16.1234 53.1128C16.1059 53.1391 16.0427 53.1352 16 53.1439C16.0866 53.1526 16.1741 53.1417 16.2559 53.1121C16.3378 53.0825 16.412 53.035 16.473 52.973C16.6981 52.7472 16.9403 52.5394 17.1976 52.3513C18.4128 51.4655 19.7075 50.7001 21.0072 49.9502C21.5735 49.6219 22.2136 49.4209 22.8216 49.1732C22.8522 49.1597 22.8853 49.1528 22.9187 49.1528C22.9522 49.1528 22.9852 49.1597 23.0159 49.1732C23.113 49.2334 23.0664 49.3247 23.0324 49.4121C22.7264 50.1969 22.4204 50.974 22.1222 51.7617C21.8901 52.3785 21.6706 53.0002 21.5909 53.6597C21.5943 53.7241 21.6074 53.7876 21.6298 53.8481C21.6623 53.7924 21.6911 53.7347 21.7162 53.6752C21.9853 52.903 22.2417 52.126 22.5253 51.3586C22.8167 50.5699 23.0839 49.7705 23.5695 49.0673C23.6869 48.8722 23.865 48.7211 24.0765 48.637C24.2213 48.5855 24.2941 48.6321 24.2708 48.7876C24.2558 48.8545 24.2337 48.9196 24.2048 48.9818C23.6751 50.4563 23.146 51.9308 22.6176 53.4052C22.4758 53.8035 22.3175 54.2017 22.4748 54.632C22.4736 54.5945 22.4769 54.557 22.4846 54.5203C23.0916 52.4164 24.028 50.4359 24.7759 48.3845C24.7914 48.3417 24.8983 48.2873 24.9167 48.299C24.9828 48.3475 24.9323 48.4175 24.9167 48.4806C24.6536 49.4472 24.3085 50.3895 23.8852 51.2974C23.8172 51.4451 23.6909 51.6384 23.8493 51.7239C24.1873 51.9026 24.0668 52.1415 23.9775 52.3572C23.7997 52.7836 23.8172 53.2527 23.656 53.6801C23.6385 53.7258 23.687 53.7957 23.7045 53.854C23.7521 53.8073 23.825 53.7685 23.8434 53.7122C24.0124 53.1925 24.1669 52.669 24.3378 52.1503C24.401 51.956 24.4544 51.7452 24.7021 51.6996C24.7837 51.685 24.8692 51.6024 24.9478 51.6928C24.9964 51.7491 24.9702 51.8142 24.9401 51.8793C24.8798 52.0024 24.8286 52.1296 24.7866 52.26C24.6791 52.6291 24.5778 53.0002 24.4826 53.3732C24.4801 53.4391 24.4896 53.5049 24.5107 53.5674C24.5554 53.5247 24.6147 53.4897 24.6389 53.4373C24.6715 53.3527 24.6984 53.2661 24.7196 53.1779C24.8779 52.7039 25.0683 52.2406 25.1372 51.7394C25.1596 51.5704 25.3111 51.5218 25.4471 51.5451C25.6006 51.5723 25.5627 51.7141 25.5335 51.82C25.4918 51.9735 25.4306 52.1221 25.3859 52.2756C25.1709 53.0164 24.9592 53.7585 24.7506 54.5018C24.7484 54.5679 24.7586 54.6338 24.7808 54.6961C24.8163 54.6494 24.8466 54.5989 24.8711 54.5455C25.1722 53.6393 25.4539 52.7243 25.8677 51.8589C25.9794 51.6258 26.0435 51.211 26.3533 51.3188C26.5622 51.3907 26.3533 51.7608 26.2834 51.9793C25.9842 52.8661 25.7802 53.7763 25.5588 54.6815C25.5374 54.769 25.5073 54.9079 25.5899 54.9302C25.6724 54.9525 25.6996 54.8136 25.7181 54.7359C25.9366 53.8035 26.3116 52.9205 26.5767 52.0036C26.6751 51.6768 26.8288 51.3692 27.0313 51.0944C27.0554 51.0726 27.0844 51.0569 27.1159 51.0488C27.1474 51.0407 27.1803 51.0403 27.212 51.0478C27.2771 51.0672 27.2644 51.1401 27.2499 51.212C27.0944 51.9686 26.973 52.734 26.7846 53.4829C26.6875 53.8608 26.6612 54.2454 26.5728 54.6213C26.5671 54.6862 26.5707 54.7517 26.5835 54.8156C26.6807 54.7864 26.6982 54.6961 26.7195 54.6145C26.7312 54.5708 26.7292 54.5232 26.7409 54.4795C27.0323 53.4276 27.3353 52.3776 27.6151 51.3227C27.7122 50.9653 27.9298 50.805 28.2863 50.7788C28.5475 50.7593 28.6078 50.8128 28.5301 51.0828C28.397 51.5422 28.2387 51.9939 28.1124 52.4553C27.9016 53.2207 27.7044 53.9909 27.5073 54.7602C27.4849 54.8467 27.5073 54.971 27.5947 54.9943C27.7316 55.0302 27.7025 54.8913 27.72 54.8136C27.9754 53.682 28.3484 52.5796 28.6971 51.4781C28.9749 50.5981 29.0245 50.5699 29.9599 50.6321C30.0278 50.637 30.0968 50.6321 30.1648 50.6389C30.3377 50.6496 30.3319 50.7555 30.2765 50.871C29.9152 51.6209 29.9307 52.4592 29.7248 53.2459C29.7073 53.311 29.7559 53.3926 29.786 53.4703C30.1434 52.6583 30.2784 51.7802 30.5475 50.9449C30.6446 50.636 30.7068 50.6117 31.0895 50.7224C31.4129 50.8196 31.2313 51.0022 31.1672 51.1411C30.5242 52.5485 30.3503 54.0686 30.1143 55.5693C30.056 55.9443 29.9764 56.3512 30.1386 56.7349C30.2214 56.3633 30.2814 55.9871 30.3183 55.6082C30.4581 54.294 30.7165 53.005 31.2119 51.7715C31.3207 51.4718 31.475 51.1908 31.6694 50.9381C31.7098 50.8818 31.769 50.8418 31.8363 50.8253C31.9036 50.8087 31.9746 50.8167 32.0365 50.8477C32.0906 50.8648 32.1376 50.8992 32.1704 50.9454C32.2032 50.9917 32.22 51.0475 32.2182 51.1042C32.2194 51.2867 32.2314 51.4689 32.2541 51.65C32.2852 51.8579 32.4659 51.9346 32.5844 51.7715C32.9117 51.3217 33.444 51.1838 33.8539 50.8672C34.2473 50.5641 34.6853 50.5573 35.1389 50.5758C35.5926 50.5942 35.8499 50.8166 35.9626 51.2411C36.0024 51.3946 36.0598 51.5442 36.0986 51.6967C36.3006 52.4067 36.2783 53.1371 36.2929 53.8637C36.3036 54.4999 36.2472 55.1371 36.3502 55.7704C36.3599 55.8326 36.3308 55.918 36.425 55.9307C36.4543 55.8819 36.4719 55.8271 36.4765 55.7704C36.5474 54.361 36.5862 52.9536 36.4337 51.5422C36.4143 51.3664 36.2696 51.145 36.4153 51.0255C36.561 50.906 36.7523 51.0731 36.9126 51.1479C38.0267 51.6734 39.0369 52.3795 40.0975 52.9934C40.3693 53.1615 40.6094 53.3762 40.8066 53.6277C41.0586 53.9201 41.3306 54.1947 41.6206 54.4494C42.147 54.9351 42.2034 54.9263 42.6783 54.3591C42.7502 54.2716 42.8192 54.1803 42.8852 54.0871C43.1922 53.6539 43.6273 53.3518 44.0081 52.9934C44.1382 52.872 44.2558 52.8962 44.3451 53.0342C44.4306 53.1687 44.5063 53.3093 44.5715 53.4548C44.7881 53.9288 44.994 54.4076 45.2125 54.8807C45.2523 54.9671 45.2805 55.1419 45.4301 55.0594C45.5603 54.9865 45.4641 54.8651 45.4185 54.7631C45.162 54.1803 44.9114 53.5975 44.654 53.0147C44.5877 52.8716 44.5555 52.715 44.5598 52.5573C44.5607 52.4995 44.5793 52.4434 44.6132 52.3967C44.6471 52.3499 44.6946 52.3147 44.7492 52.296C44.8842 52.2464 44.958 52.3455 45.0027 52.4562C45.2659 53.1119 45.8079 53.615 46.0207 54.3018C46.0599 54.4082 46.1135 54.5089 46.18 54.6009C46.1938 54.6175 46.2112 54.6308 46.2309 54.6397C46.2506 54.6486 46.272 54.653 46.2936 54.6524C46.3104 54.6509 46.3267 54.6456 46.3412 54.6369C46.3557 54.6283 46.3681 54.6165 46.3774 54.6024C46.3867 54.5883 46.3928 54.5723 46.3951 54.5556C46.3974 54.5388 46.3959 54.5218 46.3907 54.5057C46.3619 54.3501 46.2996 54.2027 46.2081 54.0735C45.8196 53.5072 45.5884 52.8593 45.2601 52.2629C45.1154 51.9997 45.1562 51.8142 45.3825 51.6092C46.0529 50.9947 46.6615 50.3161 47.1999 49.5831C47.3708 49.3529 47.4912 49.3558 47.6797 49.6054C47.932 49.9294 48.1376 50.287 48.2906 50.668C48.4723 51.1333 48.7209 51.5733 48.8326 52.0658C48.854 52.1629 48.9298 52.2484 49.0191 52.2085C49.1085 52.1687 49.0968 52.0522 49.0599 51.9628C48.7297 51.1663 48.447 50.3504 48.0575 49.5782C47.9604 49.3839 47.6282 49.1256 47.8973 48.9672C48.1032 48.8458 48.2479 49.2431 48.3926 49.4247C48.854 50.0007 49.1095 50.6875 49.3746 51.3674C49.4086 51.4548 49.4485 51.5422 49.5592 51.4849C49.635 51.4461 49.599 51.3693 49.5796 51.3042C49.3756 50.6243 49.1095 49.9444 48.6879 49.3946C48.142 48.6768 48.3217 48.1319 48.8462 47.5549C48.8618 47.5384 48.8734 47.518 48.888 47.5005C50.0186 46.0659 51.0094 44.5477 51.7418 42.8664C52.0613 42.1321 52.2274 42.1097 52.8442 42.6342C52.9666 42.7391 53.0385 42.8839 53.1356 43.0004C53.6679 43.6211 54.171 44.2709 54.7791 44.8207C55.0559 45.0713 55.1113 45.048 55.3182 44.6721C55.324 44.6721 55.3259 44.6721 55.324 44.6623C55.3259 44.6579 55.3282 44.6537 55.3308 44.6497C56.0006 45.0666 56.5799 45.6135 57.0345 46.2582C57.2569 46.5739 57.5134 46.8663 57.7533 47.1703C57.7941 47.2218 57.8504 47.2927 57.9048 47.2548C57.9806 47.2062 57.9048 47.1392 57.8834 47.08C57.6704 46.6264 57.4075 46.198 57.0996 45.8027V45.8027ZM54.205 27.3835C54.2492 27.3893 54.2907 27.4079 54.3245 27.4369C54.6475 27.6911 54.8757 28.0466 54.9724 28.4461C55.0122 28.5918 55.0899 28.8453 54.9636 28.8832C54.7995 28.9318 54.7869 28.6724 54.7373 28.5442C54.6015 28.2333 54.443 27.9326 54.2633 27.6448C54.2303 27.5855 54.1895 27.5311 54.1662 27.4991C54.1322 27.4233 54.1487 27.3825 54.205 27.3835ZM41.8343 14.9982C41.5031 15.036 41.1686 14.964 40.8824 14.7932C41.2379 14.6699 41.5225 14.9001 41.8343 14.9982ZM39.3856 14.4154C39.8712 14.4552 40.3637 14.4931 40.7891 14.7699C40.3304 14.6736 39.8639 14.6196 39.3953 14.6087C39.336 14.6087 39.2467 14.6087 39.2476 14.5174C39.2493 14.5014 39.2544 14.4859 39.2624 14.4719C39.2704 14.458 39.2813 14.4459 39.2943 14.4364C39.3073 14.4269 39.3221 14.4202 39.3378 14.4167C39.3535 14.4133 39.3698 14.4131 39.3856 14.4163V14.4154ZM36.0607 14.5028C36.9524 14.4824 37.8616 14.3008 38.7008 14.7796C38.7105 14.7796 38.7115 14.7796 38.7173 14.7845C38.7231 14.7893 38.7173 14.7845 38.7173 14.7922C37.8663 14.7074 37.0109 14.6749 36.1559 14.6951C36.0734 14.6951 35.9714 14.6951 35.9616 14.5766C35.9646 14.5494 36.0267 14.5047 36.0607 14.5038V14.5028ZM31.2333 15.1662C31.4372 15.1934 31.3634 15.344 31.3459 15.4654C31.344 15.4851 31.344 15.5049 31.3459 15.5246C31.3139 15.5023 31.2857 15.4751 31.2488 15.4547C31.1517 15.3945 30.9496 15.4799 30.9574 15.2944C30.97 15.1837 31.1264 15.1536 31.2333 15.1672V15.1662ZM30.8719 15.7208C30.9613 15.7354 31.0914 15.7655 31.04 15.8675C30.97 16.0093 30.9564 16.2706 30.7146 16.2123C30.5786 16.1793 30.3882 16.1667 30.3115 16.0103C30.2639 15.9141 30.632 15.7237 30.8719 15.7218V15.7208ZM30.1842 16.4435C30.2114 16.46 30.2454 16.4697 30.2464 16.4823C30.2464 16.5212 30.2551 16.5853 30.2357 16.596C29.7724 16.8446 29.5558 17.4002 29.0206 17.5605C28.9555 17.5799 28.8807 17.5964 28.8506 17.5158C28.8465 17.4939 28.8474 17.4713 28.8533 17.4498C28.8592 17.4282 28.8699 17.4083 28.8846 17.3915C29.2265 17.0593 29.5393 16.6892 29.9968 16.5018C30.0599 16.4765 30.1269 16.4619 30.1842 16.4435ZM26.1892 19.6683C26.4116 19.0525 26.8351 18.5726 27.2392 18.085C27.8044 17.4018 28.4256 16.767 29.0963 16.1871C29.2373 16.0722 29.39 15.9726 29.5519 15.8898C29.5956 15.8665 29.6743 15.9063 29.7374 15.9161C29.723 15.9575 29.7041 15.9972 29.6811 16.0346C29.6274 16.1081 29.5658 16.1755 29.4975 16.2356C28.8389 16.7679 28.4465 17.5323 27.8404 18.1161C27.4024 18.5377 27.0391 19.0369 26.6379 19.4983C26.4611 19.7032 26.263 19.8868 26.2115 20.1782C26.0804 20.0112 26.1231 19.8528 26.1901 19.6683H26.1892ZM25.3908 22.5502C25.3519 22.5997 25.2684 22.6667 25.2285 22.6532C25.1236 22.6182 25.178 22.5094 25.1654 22.3987C25.347 21.8334 25.5539 21.271 25.9561 20.762C26.6991 19.8101 27.4538 18.8805 28.4524 18.1822C28.5019 18.1472 28.5951 18.1074 28.6282 18.1287C28.7331 18.1996 28.6583 18.289 28.6126 18.3618C28.5722 18.4435 28.5161 18.5165 28.4475 18.5765C27.8715 18.9592 27.6471 19.6061 27.2586 20.1306C26.6515 20.9475 26.0182 21.7459 25.3917 22.5502H25.3908ZM27.9278 38.612C27.8356 38.3837 27.9045 38.2497 28.1396 38.1321C28.666 37.8699 29.2401 37.8359 29.7967 37.7883C30.2298 37.7609 30.6517 37.6387 31.0324 37.4302C31.4131 37.2217 31.7433 36.9321 31.9996 36.5819C32.2085 36.3099 32.2357 36.3206 32.3882 36.6023C32.4202 36.6625 32.4416 36.7286 32.4736 36.7878C32.5708 36.9559 32.5873 37.0792 32.3396 37.1229C32.1793 37.1521 31.9006 37.1229 31.9278 37.358C31.9627 37.664 32.2395 37.5523 32.4222 37.5027C33.0263 37.3425 33.5431 37.4668 33.9763 37.9223C34.1006 38.0525 34.4697 37.9758 34.4046 38.1487C34.3075 38.4031 34.0015 38.2186 33.8218 38.1632C33.6697 38.1154 33.509 38.1007 33.3507 38.1201C33.1923 38.1395 33.04 38.1927 32.9039 38.2759C32.4027 38.5673 31.92 38.5226 31.5033 38.1788C31.0351 37.7902 30.5125 37.9272 30.0006 37.9049C29.9723 37.9004 29.9433 37.9027 29.916 37.9116C29.8887 37.9204 29.8639 37.9356 29.8435 37.9558C29.8232 37.9761 29.8079 38.0008 29.7989 38.0281C29.7899 38.0554 29.7875 38.0843 29.7918 38.1127C29.7918 38.2361 29.8501 38.341 29.9861 38.3468C30.1225 38.3451 30.2587 38.3357 30.394 38.3186C30.6058 38.3041 30.6854 38.3925 30.6242 38.6052C30.4834 39.1006 30.7418 39.4425 31.0895 39.729C31.3071 39.9077 31.5101 40.0903 31.5334 40.3827C31.5586 40.7178 31.9579 40.7858 32.0142 41.0976C32.0239 41.153 32.1638 41.1607 32.1861 41.1112C32.2833 40.8907 32.5203 41.0228 32.6358 40.9315C32.767 40.8285 32.6446 40.6314 32.6601 40.4759C32.666 40.4089 32.6689 40.3409 32.6757 40.2739C32.6825 40.2069 32.7194 40.1826 32.7728 40.202C32.8088 40.2207 32.836 40.2528 32.8486 40.2914C32.8548 40.3362 32.8548 40.3816 32.8486 40.4264C32.8486 40.6207 32.7388 40.9684 32.9321 40.9684C33.2857 40.9684 33.0389 40.6216 33.0875 40.4322C33.1283 40.27 33.1759 40.1476 33.3488 40.0709C33.5964 39.9527 33.8166 39.7843 33.9957 39.5765C34.0129 39.5618 34.0269 39.5437 34.0368 39.5234C34.0467 39.503 34.0523 39.4808 34.0532 39.4582C34.0541 39.4356 34.0504 39.413 34.0421 39.3919C34.0339 39.3708 34.0214 39.3516 34.0054 39.3356C33.994 39.3228 33.9801 39.3124 33.9646 39.3051C33.9491 39.2978 33.9322 39.2937 33.9151 39.2931C33.8979 39.2924 33.8808 39.2953 33.8648 39.3014C33.8488 39.3076 33.8342 39.3169 33.8218 39.3288C33.2128 40.0087 32.392 39.5988 31.6849 39.729C31.2265 39.8125 30.8515 39.0627 31.0584 38.6032C31.0636 38.5816 31.0738 38.5614 31.0882 38.5444C31.1025 38.5273 31.1206 38.5139 31.141 38.505C31.1615 38.4962 31.1837 38.4922 31.2059 38.4934C31.2282 38.4946 31.2498 38.5009 31.2692 38.5119C31.4149 38.5741 31.5528 38.6586 31.7014 38.7062C32.1434 38.8538 32.5921 38.9179 33.0234 38.68C33.2442 38.5576 33.5008 38.516 33.749 38.5624C33.9996 38.6032 34.2599 38.6382 34.495 38.5508C34.9884 38.3682 35.4808 38.4226 35.9782 38.4944C36.4755 38.5663 36.9252 38.4167 37.3914 38.3264C37.5022 38.305 37.608 38.2341 37.5789 38.0875C37.5498 37.9408 37.4419 37.9389 37.3176 37.9544C36.2492 38.0855 35.3944 37.6465 34.7718 36.8306C33.95 35.7728 32.9039 35.53 31.6771 35.7611C31.4392 35.8058 31.2274 35.734 31.003 35.7252C30.4766 35.7048 30.057 36.0671 29.9472 36.6324C29.5072 36.7645 29.1886 37.1103 28.7816 37.3036C28.6602 37.3609 28.5505 37.4464 28.4261 37.4979C27.7278 37.7893 27.7093 37.766 27.4043 37.0579C27.1197 36.3954 27.0216 35.7029 26.9827 34.9957C26.9148 33.7719 26.7253 32.55 26.8934 31.3203C26.942 30.9599 26.9905 30.5976 27.0643 30.2421C27.2586 29.3475 27.1207 28.4782 26.8545 27.6263C26.7836 27.399 26.8497 27.3621 27.0352 27.3106C27.6928 27.1251 28.3455 26.9221 28.9992 26.7278C29.4946 26.5783 29.9336 26.7784 30.3765 26.9503C30.5456 27.0154 30.7039 27.1076 30.8739 27.1679C30.9057 27.1696 30.9374 27.1637 30.9665 27.1507C30.9955 27.1377 31.021 27.1179 31.0409 27.0931C31.0895 27.027 31.0273 26.9697 30.972 26.9309C30.6339 26.69 30.2347 26.5802 29.8617 26.4161C28.9691 26.0275 28.0648 26.1645 27.1634 26.384C27.0754 26.4072 26.9917 26.4446 26.9157 26.4947C26.5476 26.7385 26.5359 26.7434 26.4631 26.3451C26.298 25.4331 26.3902 24.5239 26.6204 23.642C26.8089 22.9174 27.1226 22.2267 27.3441 21.505C27.7831 20.0898 28.6427 18.965 29.7112 17.9743C30.1289 17.5858 30.5125 17.1574 30.9623 16.8087C31.9773 16.0316 33.1526 15.6208 34.4085 15.4314C34.8592 15.3634 35.3109 15.31 35.7606 15.2371C36.7093 15.0983 37.6718 15.0807 38.625 15.1847C39.2146 15.2429 39.7304 15.5178 40.1888 15.9258C40.6959 16.3949 41.2476 16.7834 41.6905 17.3138C41.9759 17.6392 42.2208 17.998 42.42 18.3822C42.7512 19.0563 43.0581 19.7421 43.4 20.4113C43.7794 21.1673 44.0083 21.9897 44.0741 22.8328C44.1285 23.4623 44.0887 24.1004 44.0819 24.7357C44.0819 24.8173 44.045 24.9523 43.9925 24.9698C43.8498 25.0193 43.8235 24.8726 43.7759 24.7755C43.762 24.7322 43.7523 24.6876 43.7468 24.6424C43.7264 24.5725 43.6808 24.522 43.6069 24.5618C43.59 24.5759 43.5766 24.5938 43.568 24.6141C43.5594 24.6343 43.5557 24.6564 43.5574 24.6784C43.5976 24.9021 43.685 25.1146 43.8138 25.3019C44.2468 25.9729 44.4411 26.7702 44.3655 27.5651L44.3859 27.5564C44.3859 27.5642 44.3859 27.5651 44.3859 27.5768L44.282 27.5418C44.3927 27.8254 44.5316 28.1003 44.5588 28.4102C43.9984 28.1188 43.6982 27.6331 43.4962 27.0581C43.4758 27.0008 43.468 26.9037 43.3758 26.9299C43.3048 26.9493 43.2932 27.0338 43.3136 27.096C43.3578 27.2472 43.4146 27.3944 43.4836 27.536C43.6098 27.7749 43.7497 28.0081 43.8906 28.2392C44.4306 29.1233 44.7664 30.1169 44.8735 31.1474C44.6705 31.0998 44.6375 30.9162 44.5919 30.7588C44.4947 30.4101 44.3976 30.0585 44.3257 29.703C44.2665 29.4116 44.2393 29.1571 43.8468 29.0668C43.5953 29.0085 43.537 28.6443 43.401 28.4121C43.0125 27.7458 42.9076 27.6409 42.8794 27.7555C42.8007 28.0819 43.0834 28.2761 43.2145 28.5199C43.4399 28.9386 43.773 29.297 43.9236 29.7593C43.9576 29.8633 44.0654 29.9837 43.9615 30.0702C43.8303 30.1799 43.7517 29.9672 43.6254 29.9662C43.5797 30.3004 43.7565 30.5782 43.8818 30.8579C44.1246 31.4038 44.2286 31.9866 44.3869 32.5548C44.3995 32.6421 44.3995 32.7307 44.3869 32.818C44.3247 32.7578 44.2305 32.7083 44.2062 32.6354C43.8808 31.6787 43.2602 30.8871 42.7716 30.0197C42.7269 29.94 42.6813 29.8613 42.6385 29.7807C42.6335 29.7649 42.6243 29.7507 42.6118 29.7398C42.5993 29.7289 42.584 29.7216 42.5677 29.7188C42.5513 29.716 42.5345 29.7178 42.5191 29.7239C42.5036 29.73 42.4902 29.7403 42.4802 29.7535C42.467 29.7703 42.4582 29.7901 42.4545 29.8111C42.4508 29.8321 42.4522 29.8537 42.4588 29.874C42.6026 30.1051 42.7609 30.3266 42.9018 30.5587C43.2485 31.1347 43.6341 31.6971 43.5982 32.4159L43.5108 32.4295C43.4787 32.5869 43.5487 32.7209 43.5972 32.8666C43.6273 32.9511 43.6536 33.0521 43.5622 33.1007C43.4709 33.1493 43.3942 33.1007 43.3233 33.0317C43.2871 33.0093 43.2474 32.9932 43.2058 32.9841C43.1086 33.0978 43.0543 33.3542 42.8435 33.057C42.7463 32.921 42.6647 32.5908 42.5365 32.6869C42.3423 32.8365 42.6278 33.0201 42.7075 33.1842C42.8163 33.4076 42.9688 33.6097 43.096 33.8253C43.1465 33.9137 43.2543 34.0429 43.1038 34.105C42.9775 34.1565 42.8046 34.2857 42.6774 34.0914C42.5802 33.9399 42.4919 33.7796 42.4044 33.6204C42.3607 33.5397 42.3005 33.4261 42.2189 33.462C42.1373 33.498 42.1791 33.6116 42.2286 33.6932C42.4151 34.005 42.5977 34.3197 42.7823 34.6325C43.2051 35.3352 43.501 36.1069 43.6565 36.9122C43.7643 37.495 43.9119 38.0642 44.0673 38.6324C44.1169 38.8121 44.1742 38.9762 44.1042 39.1569C44.079 39.221 44.0469 39.288 43.9663 39.2734C43.942 39.2734 43.9207 39.2055 43.911 39.1666C43.6604 38.1127 43.4185 37.0569 43.1553 36.0069C43.0776 35.6941 43.0533 35.3085 42.5987 35.2658C42.5637 35.1531 42.7463 34.9928 42.5375 34.919C42.5569 35.0346 42.5773 35.1492 42.5977 35.2648C42.7988 36.4304 43.3554 37.5095 43.4379 38.7043C43.4438 38.7868 43.4807 38.9111 43.3738 38.9257C43.267 38.9403 43.265 38.8082 43.2437 38.7237C43.0552 37.9816 42.861 37.2395 42.6822 36.4945C42.6395 36.3148 42.5851 36.1973 42.3753 36.2458C41.9693 36.343 41.8683 36.4459 41.9265 36.7237C41.9576 36.8723 41.9848 37.0219 42.014 37.1715C41.4865 37.0656 41.3457 37.1764 41.4428 37.6902C41.5536 38.273 41.6701 38.85 41.6517 39.4473C41.6517 39.5153 41.6808 39.5901 41.6604 39.6503C41.5885 39.8601 41.707 40.1039 41.5409 40.2933C41.3671 40.1117 41.4564 39.8805 41.4438 39.6746C41.4147 39.3123 41.4351 38.9461 41.4176 38.5819C41.4117 38.4459 41.3593 38.3012 41.1728 38.3313C41.0349 38.3536 41.0077 38.4721 41.0135 38.5906C41.0137 38.7502 41.0277 38.9094 41.0553 39.0666C41.1067 39.3045 41.2427 39.5241 40.8309 39.6076C40.6366 39.6474 40.5657 39.9505 40.623 40.1379C40.7988 40.7207 40.3122 41.152 40.3161 41.6872C40.3161 41.7163 40.2627 41.7455 40.2335 41.7746C40.217 41.7328 40.184 41.6911 40.1859 41.6512C40.2024 41.3113 40.1247 40.9713 40.1859 40.6294C40.2151 40.404 40.2278 40.1768 40.2238 39.9495C40.2265 39.9266 40.2247 39.9034 40.2183 39.8812C40.212 39.859 40.2014 39.8383 40.187 39.8202C40.1727 39.8021 40.1549 39.7871 40.1347 39.776C40.1145 39.7648 40.0923 39.7578 40.0694 39.7552C40.0411 39.7509 40.0123 39.7527 39.9848 39.7605C39.9573 39.7682 39.9317 39.7817 39.9099 39.8001C39.888 39.8185 39.8703 39.8413 39.8579 39.8671C39.8456 39.8928 39.8388 39.9209 39.8382 39.9495C39.8304 40.0624 39.8304 40.1756 39.8382 40.2885C39.8382 41.1073 39.8382 41.9261 39.8275 42.745C39.8396 42.8814 39.8237 43.0189 39.7809 43.149C39.7061 43.3112 39.7692 43.6434 39.5449 43.6046C39.3632 43.5725 39.3448 43.2054 39.4205 43.0587C39.6867 42.5429 39.4438 42.0573 39.4205 41.559C39.406 41.2676 39.4516 40.9694 39.4604 40.6741C39.4652 40.4944 39.6546 40.1952 39.3428 40.1768C39.0067 40.1564 39.1116 40.4886 39.1126 40.6984C39.1126 41.2229 39.1188 41.7471 39.1311 42.2709C39.1338 42.5679 39.0637 42.861 38.9271 43.1247C38.8912 43.1976 38.8727 43.319 38.761 43.3035C38.6493 43.2879 38.6318 43.1655 38.6512 43.0898C38.7736 42.5973 38.5629 42.1097 38.6415 41.6192C38.6508 41.5515 38.6508 41.4829 38.6415 41.4152C38.6399 41.3812 38.6262 41.349 38.6028 41.3242C38.5795 41.2995 38.5481 41.2839 38.5143 41.2802C38.4977 41.2769 38.4806 41.277 38.4641 41.2805C38.4476 41.2841 38.4319 41.291 38.4182 41.3008C38.4044 41.3106 38.3928 41.3232 38.3841 41.3377C38.3754 41.3522 38.3698 41.3683 38.3676 41.3851C38.3317 41.6532 38.2753 41.9203 38.3142 42.1962C38.354 42.446 38.3149 42.7019 38.2025 42.9285C38.1753 42.9829 38.1122 43.0189 38.0655 43.0626C38.0319 43.0064 38.0079 42.945 37.9946 42.8809C37.9878 42.6536 37.9946 42.4273 37.9946 42.201C37.9946 42.0417 38.0102 41.8814 37.9946 41.7241C37.9936 41.6954 37.986 41.6673 37.9723 41.642C37.9586 41.6168 37.9392 41.595 37.9156 41.5785C37.8921 41.5621 37.865 41.5513 37.8366 41.547C37.8082 41.5428 37.7791 41.5452 37.7518 41.5541C37.7294 41.5582 37.7081 41.5669 37.6894 41.5798C37.6707 41.5928 37.6549 41.6095 37.6431 41.629C37.6314 41.6485 37.6239 41.6702 37.6212 41.6928C37.6185 41.7154 37.6206 41.7383 37.6275 41.76C37.7246 42.3487 37.6178 42.9363 37.6216 43.5249C37.6216 43.8892 37.6022 44.2534 37.5935 44.6177C37.5935 44.7546 37.5702 44.8809 37.4235 44.9363C37.4352 44.03 37.4555 43.1277 37.4623 42.2263C37.4623 42.0602 37.5265 41.7863 37.2827 41.7824C36.9961 41.7765 37.1331 42.0485 37.1302 42.2049C37.1331 42.4089 37.1477 42.6126 37.1739 42.8149C37.2083 43.2467 37.1359 43.6804 36.9631 44.0776C36.9398 44.1349 36.9038 44.2039 36.8281 44.1747C36.797 44.165 36.7776 44.1019 36.7659 44.0592C36.6728 43.684 36.6275 43.2986 36.6309 42.912C36.6309 42.7304 36.6154 42.5487 36.6008 42.3681C36.594 42.2816 36.5211 42.2709 36.4522 42.2651C36.4353 42.2627 36.4182 42.2637 36.4018 42.2683C36.3854 42.2729 36.3701 42.2808 36.3569 42.2916C36.3438 42.3024 36.333 42.3158 36.3253 42.3309C36.3176 42.3461 36.3132 42.3627 36.3123 42.3797C36.3123 42.6711 36.3123 42.9722 36.3444 43.2666C36.4201 44.063 36.3706 44.8605 36.3861 45.657C36.3918 45.7698 36.3753 45.8827 36.3376 45.9892C36.3158 46.0428 36.2751 46.0865 36.2231 46.112C36.1711 46.1374 36.1116 46.1428 36.0559 46.1271C35.9432 46.1018 35.949 45.996 35.9529 45.9095C35.9986 44.9324 35.8412 43.9572 35.9131 42.979C35.9201 42.9115 35.9141 42.8433 35.8956 42.778C35.8839 42.743 35.8325 42.7148 35.7926 42.6974C35.7775 42.6895 35.7608 42.6851 35.7438 42.6844C35.7267 42.6838 35.7098 42.6869 35.6941 42.6936C35.6784 42.7003 35.6644 42.7104 35.653 42.7231C35.6417 42.7358 35.6333 42.7509 35.6285 42.7673C35.5488 43.0092 35.5634 43.2607 35.5721 43.5104C35.6032 44.3684 35.6317 45.226 35.6576 46.0834C35.6576 46.1446 35.6469 46.2252 35.5556 46.232C35.5335 46.2355 35.5108 46.2338 35.4894 46.227C35.468 46.2202 35.4484 46.2085 35.4323 46.1929C35.4162 46.1772 35.4039 46.1581 35.3965 46.1369C35.3891 46.1157 35.3867 46.093 35.3895 46.0708C35.4051 45.5016 35.4284 44.9324 35.4478 44.3632C35.4478 44.2515 35.4799 44.0718 35.375 44.0621C35.2205 44.0504 35.1807 44.232 35.172 44.3651C35.1574 44.6837 35.172 45.0023 35.1603 45.3209C35.1535 45.6123 35.1506 45.9115 35.1205 46.2038C35.0904 46.4962 34.8291 46.6642 34.527 46.5924C34.4816 46.5852 34.4406 46.5612 34.412 46.5253C34.3834 46.4893 34.3693 46.4439 34.3726 46.3981C34.3726 46.2942 34.4221 46.2203 34.5357 46.2388C34.6902 46.265 34.7854 46.2757 34.7747 46.0523C34.7375 45.3488 34.7488 44.6436 34.8087 43.9416C34.8174 43.851 34.8144 43.7596 34.8 43.6697C34.7902 43.6046 34.7592 43.5337 34.6766 43.5298C34.6602 43.5273 34.6434 43.5282 34.6273 43.5324C34.6112 43.5366 34.5961 43.544 34.583 43.5542C34.5698 43.5643 34.5589 43.577 34.5508 43.5915C34.5426 43.606 34.5375 43.622 34.5357 43.6386C34.5183 43.7959 34.5056 43.9542 34.5018 44.1126C34.492 44.5895 34.4872 45.0664 34.4794 45.5433C34.4821 45.5774 34.4721 45.6113 34.4513 45.6384C34.4305 45.6655 34.4004 45.6839 34.3667 45.69C34.2599 45.6997 34.2065 45.6249 34.2045 45.522C34.1948 45.0674 34.189 44.6118 34.1812 44.1573C34.1812 44.0203 34.1812 43.8833 34.1715 43.7474C34.1647 43.6629 34.1657 43.5531 34.0452 43.5473C33.8782 43.5405 33.8879 43.6842 33.884 43.7872C33.8791 43.9232 33.9102 44.0601 33.9112 44.1961C33.917 44.9246 33.919 45.6534 33.917 46.3826C33.917 46.4389 33.8617 46.5399 33.8286 46.5409C33.7568 46.5409 33.7422 46.4632 33.7393 46.3952C33.6956 45.4239 33.5295 44.4525 33.579 43.4725C33.5849 43.4049 33.581 43.3369 33.5673 43.2704C33.5587 43.2262 33.5341 43.1867 33.4984 43.1593C33.4626 43.132 33.418 43.1186 33.3731 43.1218C33.3504 43.1239 33.3285 43.1308 33.3088 43.142C33.289 43.1532 33.2719 43.1686 33.2585 43.187C33.2452 43.2054 33.2359 43.2264 33.2314 43.2487C33.2269 43.271 33.2272 43.2939 33.2322 43.3161C33.2614 43.5871 33.3167 43.8552 33.3371 44.1262C33.3507 44.3107 33.4343 44.5293 33.0817 44.5526C32.8476 44.5681 32.9447 44.809 32.9845 44.9411C33.104 45.3666 33.0817 45.7969 33.0671 46.2281C33.0671 46.3175 33.0457 46.4224 32.9389 46.4447C32.8078 46.4758 32.7223 46.3903 32.6669 46.2903C32.5513 46.0814 32.5572 45.8532 32.5834 45.624C32.6417 45.1253 32.6987 44.6274 32.7543 44.1301C32.767 44.0164 32.7854 43.8804 32.632 43.861C32.4989 43.8445 32.4377 43.9581 32.4163 44.0737C32.3775 44.2738 32.3464 44.4759 32.3192 44.6789C32.2988 44.8372 32.2969 44.9975 32.2755 45.1548C32.2739 45.1833 32.266 45.211 32.2525 45.2361C32.239 45.2611 32.2201 45.2829 32.1972 45.2999C32.1743 45.3169 32.1479 45.3286 32.12 45.3342C32.0921 45.3399 32.0633 45.3393 32.0356 45.3326C31.92 45.3131 31.9141 45.215 31.9239 45.1228C31.9851 44.5788 32.0666 44.0368 32.1026 43.4919C32.1172 43.2656 32.2891 42.8625 32.0055 42.8372C31.6548 42.8061 31.7607 43.2442 31.7306 43.4832C31.6946 43.7746 31.6334 44.066 31.6655 44.3642C31.68 44.4666 31.6739 44.571 31.6476 44.671C31.6212 44.7711 31.5751 44.8649 31.512 44.9469C31.4741 44.9936 31.4489 45.0868 31.379 45.0548C31.3391 45.0353 31.3187 44.9421 31.3148 44.8809C31.2906 44.4691 31.3673 44.064 31.4188 43.657C31.4528 43.386 31.478 43.1141 31.5043 42.8421C31.513 42.745 31.4829 42.6556 31.376 42.6362C31.2235 42.609 31.1711 42.7265 31.1614 42.8382C31.1148 43.3812 31.0885 43.9261 31.0351 44.4681C31.0196 44.6322 31.0982 44.9324 30.938 44.9343C30.6767 44.9343 30.7214 44.6361 30.7155 44.4438C30.6814 43.761 30.7261 43.0766 30.8486 42.404C30.8933 42.1874 31.0487 41.8329 30.7301 41.7931C30.4727 41.762 30.5184 42.133 30.5057 42.3477C30.4785 42.8013 30.4669 43.2568 30.4504 43.7075C30.4504 43.8047 30.429 43.8969 30.3173 43.9018C30.2056 43.9067 30.1755 43.7969 30.1512 43.7182C30.0837 43.4758 30.0701 43.2215 30.1114 42.9732C30.169 42.5672 30.2338 42.1628 30.3056 41.76C30.3377 41.5794 30.3843 41.4016 30.3435 41.219C30.3299 41.1617 30.3328 41.0675 30.2328 41.0879C30.1673 41.0957 30.1063 41.1254 30.0599 41.1724C29.9152 41.3929 29.9764 41.658 29.921 41.896C29.8627 42.1524 30.0181 42.4361 29.8122 42.6731C29.5519 42.439 29.7938 42.1806 29.787 41.9358C29.7592 41.3889 29.8073 40.8407 29.9297 40.3069C29.9822 40.103 29.9686 39.9184 29.6685 40.0321C29.5665 40.069 29.5616 39.9854 29.5558 39.9242C29.556 39.8792 29.5649 39.8347 29.582 39.7931C29.65 39.5843 29.8093 39.2229 29.6267 39.1909C29.3197 39.1365 29.3353 39.5318 29.3062 39.7513C29.2747 40.0678 29.2165 40.381 29.1323 40.6877C29.107 40.7683 29.1556 40.915 29.0526 40.9179C28.9497 40.9208 28.9914 40.7829 28.9914 40.7071C28.9914 40.0942 28.9157 39.4774 29.108 38.8752C29.1307 38.7873 29.135 38.6958 29.1206 38.6062C29.1148 38.544 29.0934 38.4711 29.0002 38.4692C28.9674 38.466 28.9345 38.473 28.9059 38.4894C28.8774 38.5058 28.8547 38.5306 28.8409 38.5605C28.7272 38.7703 28.7622 39.0063 28.7146 39.2268C28.7068 39.2647 28.668 39.2968 28.6437 39.3308C28.6223 39.2919 28.5815 39.2521 28.5845 39.2142C28.599 38.9879 28.6262 38.7625 28.6427 38.5343C28.6483 38.5064 28.6477 38.4777 28.6409 38.4501C28.6341 38.4226 28.6214 38.3968 28.6037 38.3747C28.5859 38.3526 28.5635 38.3346 28.538 38.3221C28.5125 38.3095 28.4846 38.3027 28.4562 38.3021C28.3591 38.2953 28.296 38.3711 28.2853 38.475C28.2841 38.4976 28.2808 38.52 28.2756 38.542C28.2212 38.7062 28.3513 38.9957 28.1998 39.0219C27.989 39.0617 27.9939 38.7722 27.9288 38.612H27.9278ZM30.8127 36.2808C30.5077 36.578 30.3154 37.0248 29.8083 37.0579C29.8569 36.919 29.9055 36.781 29.9531 36.6431C30.3027 36.6742 30.4008 36.3245 30.633 36.1827C30.6942 36.1458 30.7573 36.1244 30.8127 36.1749C30.8223 36.1912 30.8274 36.2098 30.8276 36.2287C30.8278 36.2476 30.823 36.2663 30.8136 36.2827L30.8127 36.2808ZM31.3673 36.3527C31.412 36.3177 31.5072 36.2837 31.5373 36.3711C31.5428 36.4021 31.5415 36.4338 31.5334 36.4642C31.5254 36.4946 31.5108 36.5228 31.4907 36.5469C31.2255 36.8471 30.9525 37.1395 30.532 37.2152C30.6893 36.8141 31.0477 36.5984 31.3683 36.3546L31.3673 36.3527ZM33.3439 36.3595C33.3226 36.3234 33.3087 36.2835 33.3031 36.242L33.4459 36.2109C33.7072 36.3546 34.0044 36.4731 34.187 36.7538C34.2084 36.794 34.2263 36.8359 34.2405 36.8791C34.3376 37.1064 34.6067 37.2084 34.6581 37.4619C34.3551 37.4095 34.1569 37.1948 33.952 36.9957C33.747 36.7966 33.544 36.578 33.3449 36.3614L33.3439 36.3595ZM33.8529 37.2453C33.714 37.3337 33.5771 37.3813 33.4158 37.2871C33.1204 37.122 32.8797 36.8742 32.7233 36.5741C32.663 36.4556 32.5601 36.2721 32.6601 36.2118C32.8291 36.1089 32.8097 36.3595 32.9 36.4323C33.2264 36.6956 33.4586 37.0676 33.8539 37.2473L33.8529 37.2453ZM46.9492 26.959C46.9259 27.2922 47.0386 27.5797 47.1804 27.8692C47.3349 28.1819 47.5126 28.4859 47.5806 28.8405C47.2222 28.6122 47.1251 28.2111 46.959 27.8624C46.3451 26.5763 46.0964 25.1961 45.9799 23.7896C45.9478 23.4011 45.8517 23.03 45.8012 22.6483C45.7749 22.4443 45.7264 22.2928 45.4641 22.3569C45.2524 22.4123 45.2747 22.2316 45.2407 22.1092C45.1112 21.6294 44.9788 21.1495 44.8434 20.6697C44.8159 20.5349 44.7416 20.4141 44.6336 20.3288C44.6336 20.3288 44.6394 20.3229 44.6424 20.321C44.6453 20.3191 44.6424 20.3288 44.6424 20.3327C44.8415 20.2287 44.9338 20.3657 45.0095 20.5094C45.2815 21.0038 45.5923 21.4808 45.8128 21.9985C46.1265 22.7221 46.4529 23.4555 46.6316 24.218C46.8016 24.9435 47.0202 25.6487 47.229 26.3607C47.264 26.4811 47.2649 26.6356 47.4165 26.6958C46.9696 26.5627 46.9774 26.5637 46.9492 26.959ZM47.4242 26.6997C47.4966 27.3021 47.7268 27.8748 48.0915 28.3597C48.0915 28.3597 48.0867 28.3597 48.0838 28.3665C48.0808 28.3733 48.0838 28.3597 48.077 28.3548C48.0637 28.3569 48.0507 28.3602 48.0381 28.3645C48.0031 28.3733 47.9672 28.384 47.9497 28.3704C47.4932 28.0032 47.2562 27.2397 47.4242 26.6997ZM46.4811 28.8278C46.3733 28.652 46.1809 28.5015 46.2761 28.2606C46.2761 28.2606 46.2761 28.2557 46.2761 28.2528C46.2761 28.2499 46.2761 28.2412 46.2829 28.2353C46.6093 28.7647 47.0435 29.2164 47.3514 29.7681C47.8386 30.6146 48.19 31.5323 48.3926 32.4878C48.4655 32.8414 48.6656 33.1677 48.6714 33.5349C48.6742 33.5988 48.6636 33.6627 48.6403 33.7223C48.5199 33.7223 48.5432 33.6126 48.5247 33.5436C48.3674 33.001 48.2055 32.459 48.0391 31.9176C47.6972 30.7948 47.0911 29.8147 46.4811 28.8278ZM47.3951 33.8068C47.401 33.8339 47.4011 33.8619 47.3953 33.889C47.3895 33.916 47.3779 33.9416 47.3615 33.9638C47.345 33.9861 47.324 34.0046 47.2998 34.018C47.2756 34.0315 47.2488 34.0396 47.2212 34.0419C47.1513 34.0545 47.092 34.0341 47.1017 33.9448C47.1688 33.8476 47.1289 33.6641 47.3086 33.6592C47.3368 33.6573 47.3873 33.7534 47.3951 33.8088V33.8068ZM46.5996 35.5941C46.5879 35.6854 46.5821 35.7767 46.5627 35.8641C46.5481 35.9272 46.5238 36.0059 46.4364 35.9923C46.349 35.9787 46.3655 35.901 46.3597 35.8398C46.3509 35.7505 46.3461 35.6601 46.3393 35.5698C46.3266 35.3998 46.2421 35.1055 46.416 35.1055C46.6705 35.1065 46.5714 35.4124 46.5996 35.5941ZM45.9954 34.8073C45.8575 34.9433 45.7526 35.0123 45.5573 34.8073C45.3087 34.5519 45.2475 34.5936 45.1096 35.0016C45.0756 35.0987 45.0183 35.1958 44.9435 35.1803C44.8162 35.1502 44.7686 34.954 44.8289 34.9064C45.2397 34.5781 44.857 34.006 45.2242 33.667C45.263 33.632 45.2135 33.4931 45.1941 33.4047C45.1494 33.2046 45.0969 33.0074 45.0493 32.8074C44.9959 32.5645 44.9036 32.3217 44.9901 32.0701C45.229 32.1935 45.2553 32.4402 45.3369 32.6529C45.366 32.7297 45.4068 32.8365 45.5311 32.7782C45.5826 32.7522 45.6223 32.7078 45.6425 32.6538C45.6627 32.5998 45.6617 32.5402 45.6399 32.4868C45.4981 31.9371 45.3485 31.3883 45.1989 30.8356C45.1766 30.755 45.1251 30.6782 45.2125 30.6073C45.2559 30.6585 45.2943 30.7138 45.3271 30.7724C45.4651 31.0852 45.5214 31.4213 45.5991 31.7525C45.6671 32.0439 45.7584 32.0439 45.9692 31.8389C46.1227 31.6855 46.3878 31.5864 46.1945 31.3416C46.1945 31.2445 46.1945 31.2018 46.1945 31.1561C46.2013 31.0939 46.2013 31.0162 46.2829 31.0085C46.304 31.0104 46.3243 31.0174 46.3421 31.0289C46.3599 31.0404 46.3746 31.056 46.3849 31.0745C46.6005 31.5252 46.8706 31.9623 47.0027 32.4344C47.0852 32.7355 46.8735 33.0754 46.8084 33.4057C46.7035 33.9525 46.3956 34.4159 45.9993 34.8073H45.9954ZM45.8808 36.0933C45.7166 36.0933 45.7788 35.8942 45.7633 35.7534C45.763 35.6946 45.7689 35.6361 45.7808 35.5785C45.7885 35.5543 45.8439 35.5407 45.8779 35.53C45.8895 35.53 45.9187 35.5484 45.9226 35.564C45.9446 35.6249 45.9573 35.6887 45.9604 35.7534C45.9595 35.8767 45.9838 36.0933 45.8808 36.0933ZM45.0066 35.7048C45.0066 35.663 45.0066 35.597 45.0338 35.5834C45.1144 35.5377 45.1445 35.6106 45.1601 35.6679C45.1724 35.7346 45.1799 35.8021 45.1824 35.8699C45.2086 36.0836 45.2096 36.3022 45.2999 36.5032C45.1057 36.3255 45.1882 36.0885 45.1824 35.869C45.16 35.8699 45.1376 35.8662 45.1166 35.8581C45.0956 35.8501 45.0765 35.8378 45.0605 35.822C45.0445 35.8063 45.0318 35.7874 45.0234 35.7666C45.015 35.7457 45.0109 35.7234 45.0115 35.7009L45.0066 35.7048ZM45.1183 29.636C45.1348 29.6894 45.1183 29.8001 45.0795 29.8147C45.0183 29.8419 44.9823 29.7642 44.961 29.7059C44.8026 29.3067 44.6365 28.9104 44.5909 28.4782C44.8648 28.8162 44.9959 29.2241 45.1232 29.6321L45.1183 29.636ZM44.6569 23.8129C44.6593 23.8019 44.6643 23.7915 44.6714 23.7827C44.6784 23.7739 44.6875 23.7669 44.6977 23.7622C44.708 23.7575 44.7192 23.7552 44.7305 23.7556C44.7418 23.756 44.7529 23.759 44.7628 23.7643C44.7861 23.7974 44.823 23.8275 44.8308 23.8615C44.8551 23.9703 44.8599 24.0829 44.8862 24.1908C44.9357 24.3918 45.0717 24.5871 44.9153 24.7978C44.7405 24.6376 44.7065 24.4093 44.6375 24.2024C44.5956 24.0746 44.6025 23.9359 44.6569 23.8129ZM45.2018 28.3781C45.2175 28.3671 45.2356 28.3601 45.2545 28.3577C45.2735 28.3554 45.2928 28.3577 45.3106 28.3645C45.4895 28.5165 45.6207 28.7168 45.6885 28.9415C45.6874 28.9925 45.6732 29.0425 45.6474 29.0865C45.6215 29.1305 45.5849 29.1672 45.5408 29.1931C45.4184 29.262 45.3893 29.1474 45.3466 29.0814C45.3262 29.0411 45.3165 28.9963 45.3184 28.9512C45.3019 28.7492 45.1164 28.587 45.197 28.3742L45.2018 28.3781ZM45.6875 26.4569C45.6088 26.2228 45.569 25.9712 45.5127 25.7332C45.4777 25.5856 45.6098 25.5535 45.6894 25.4816C45.7798 25.4321 45.8099 25.503 45.8274 25.5632C46.0216 26.2315 46.1945 26.9095 46.4791 27.5496C46.4854 27.5706 46.4869 27.5928 46.4836 27.6144C46.4802 27.6361 46.472 27.6568 46.4597 27.6749C46.3995 27.7487 46.3373 27.6836 46.3014 27.6457C45.9838 27.3038 45.8293 26.8784 45.6846 26.453L45.6875 26.4569ZM45.7973 30.0129C45.7691 30.0721 45.739 30.0789 45.6904 30.0362C45.6373 29.9934 45.5972 29.9366 45.5746 29.8723C45.5519 29.8079 45.5476 29.7386 45.5622 29.6719C45.568 29.6428 45.6069 29.6195 45.6283 29.5962C45.7254 29.6117 45.841 29.9089 45.7944 30.009L45.7973 30.0129ZM44.9707 22.3977C45.1173 22.9436 45.1882 23.5099 45.298 24.0897L45.23 24.2558C45.1853 24.2112 45.1135 24.1723 45.1018 24.1198C45.0425 23.8537 45.0047 23.5827 44.9483 23.3166C44.6851 22.1393 44.2577 21.0184 43.7701 19.9169C43.7196 19.8023 43.5758 19.6314 43.7147 19.5546C43.8313 19.4896 43.909 19.6906 43.9867 19.7975C44.5229 20.5803 44.7278 21.4963 44.9678 22.3938L44.9707 22.3977ZM44.4364 19.3866C44.3286 19.4837 44.2295 19.4157 44.145 19.3205C44.0605 19.2254 43.9896 19.1525 43.9255 19.0593C43.7186 18.7562 43.4059 18.5503 43.1485 18.3094C42.5832 17.7849 42.251 17.4779 41.9392 16.8204C42.7687 17.5207 43.5321 18.2861 44.2956 19.0544C44.3286 19.086 44.3579 19.1211 44.383 19.1593C44.4258 19.2186 44.5248 19.2963 44.4335 19.3779L44.4364 19.3866ZM44.0567 36.0156C44.2354 36.6198 44.3685 37.2376 44.5015 37.7747C44.4908 37.9243 44.4879 37.9913 44.4801 38.0593C44.4809 38.0921 44.4708 38.1242 44.4515 38.1507C44.4322 38.1772 44.4047 38.1966 44.3733 38.206C44.2869 38.2283 44.2441 38.1593 44.2228 38.1011C44.1692 37.9527 44.1247 37.8012 44.0897 37.6475C43.875 36.7024 43.6924 35.7495 43.3874 34.8306C43.368 34.7723 43.3651 34.6568 43.3874 34.6451C43.5098 34.5888 43.4991 34.7267 43.5467 34.7801C43.8634 35.124 43.9304 35.5844 44.0567 36.0156ZM44.0023 39.6872C43.9877 39.8698 43.7458 40.1525 43.638 40.1088C43.6228 40.1035 43.6089 40.0952 43.5969 40.0844C43.5849 40.0736 43.5753 40.0606 43.5684 40.046C43.5615 40.0315 43.5576 40.0157 43.5569 39.9996C43.5562 39.9836 43.5587 39.9675 43.5642 39.9524C43.5788 39.7465 43.6458 39.5959 43.8808 39.592C43.9547 39.5852 44.0091 39.593 44.0023 39.6824V39.6872ZM41.0562 42.6148C41.2359 42.4992 41.2787 42.2875 41.3884 42.1223C41.4351 42.0524 41.4584 41.9164 41.5574 41.9514C41.9042 42.0738 41.877 41.8096 41.9023 41.625C41.9353 41.3793 41.9304 41.1287 41.9576 40.882C41.9751 40.7188 42.1062 40.7489 42.217 40.7635C42.3277 40.778 42.3986 40.8256 42.3607 40.9364C42.1509 41.5463 42.0645 42.2234 41.4205 42.5944C41.3675 42.6313 41.3051 42.6524 41.2406 42.6551C41.1761 42.6579 41.1122 42.6422 41.0562 42.6099V42.6148ZM41.0203 40.9092C40.9339 40.9092 40.9329 40.8208 40.9358 40.7576C40.9465 40.5566 40.961 40.3555 40.9814 40.1564C40.9873 40.0952 41.0048 40.0087 41.0786 40.0175C41.1524 40.0262 41.1427 40.1146 41.1446 40.1758C41.1446 40.2661 41.1446 40.3555 41.1446 40.4449H41.166C41.1617 40.5554 41.1493 40.6654 41.1291 40.7741C41.1213 40.8246 41.063 40.9024 41.0203 40.9043V40.9092ZM42.3316 40.1846C42.251 39.5338 42.1538 38.883 42.1179 38.2283C42.0985 37.8815 41.8401 37.5552 42.0149 37.1929C42.4617 37.9457 42.5696 38.7975 42.7211 39.6338C42.7591 39.8383 42.7185 40.0495 42.6074 40.2253C42.5565 40.2963 42.5017 40.3644 42.4433 40.4293C42.3936 40.3522 42.356 40.2681 42.3316 40.1797V40.1846ZM39.1534 44.3612C39.1609 44.4177 39.1544 44.4752 39.1344 44.5286C39.1144 44.5819 39.0816 44.6295 39.0388 44.6672C39.009 44.702 38.9685 44.7258 38.9236 44.7349C38.8788 44.7441 38.8321 44.738 38.7911 44.7177C38.7493 44.6925 38.7309 44.5982 38.7348 44.537C38.7528 44.4006 38.8125 44.2731 38.9057 44.1718C38.9475 44.1194 38.9951 44.0096 39.0213 44.0154C39.1184 44.0368 39.1184 44.1427 39.1311 44.2262C39.1398 44.2631 39.1456 44.3078 39.1534 44.3535V44.3612ZM38.3463 44.3865C38.3497 44.4318 38.3497 44.4772 38.3463 44.5225C38.3064 44.7838 38.387 45.0829 38.116 45.2694C38.0964 45.2758 38.0754 45.2772 38.0551 45.2735C38.0347 45.2698 38.0156 45.261 37.9995 45.2481C37.8897 45.0042 37.9587 44.7566 37.9995 44.5128C38.0306 44.3803 38.0718 44.2504 38.1228 44.1242C38.152 44.0436 38.1695 43.9183 38.2812 43.9465C38.3929 43.9746 38.3307 44.099 38.3375 44.1815C38.3501 44.2418 38.3433 44.3098 38.3433 44.3787L38.3463 44.3865ZM37.0418 45.7065C36.9165 45.7415 36.7785 45.7065 36.8329 45.5686C36.898 45.3996 36.7581 44.9227 37.2535 45.2111C37.3157 45.2471 37.3652 45.0781 37.4118 44.9771C37.4614 45.5035 37.407 45.6055 37.0418 45.7065ZM29.4849 41.558C29.4625 41.6503 29.4295 41.7649 29.3421 41.7523C29.2547 41.7396 29.2566 41.6124 29.2731 41.5269C29.3469 41.1432 29.2848 40.7197 29.5849 40.3992C29.4412 40.7751 29.5801 41.1763 29.4849 41.558V41.558ZM32.0783 50.4815C31.9569 50.6593 31.7869 50.4738 31.6538 50.4407C31.0108 50.2911 30.3503 50.2307 29.6908 50.261C29.3994 50.2717 29.2751 50.0085 29.0633 50.0036C28.8516 49.9988 28.803 50.3611 28.532 50.3805C28.3533 50.3931 28.1784 50.4777 27.9997 50.4922C27.0847 50.566 26.2193 50.8351 25.3577 51.1275C25.207 51.1775 25.0528 51.2164 24.8963 51.244C24.7361 51.2722 24.6263 51.2246 24.6613 51.0284C24.6846 50.8934 24.704 50.7584 24.7312 50.5816C24.6234 50.1134 24.9255 49.7074 25.0692 49.2586C25.4413 48.1203 25.787 46.9712 26.196 45.8454C26.7207 44.3943 27.3866 42.9983 28.1843 41.6775C28.2183 41.6179 28.2559 41.5605 28.2969 41.5055C28.3834 41.3977 28.4825 41.3696 28.5582 41.5104C28.6352 41.65 28.7002 41.7959 28.7525 41.9465C29.1158 43.0441 29.6646 44.0543 30.1988 45.0722C30.4279 45.543 30.7276 45.9761 31.0876 46.3563C31.4794 46.7401 31.7349 47.2416 31.8151 47.7842C31.9122 48.367 32.0715 48.9362 32.2036 49.5122C32.2382 49.6677 32.2622 49.8254 32.2755 49.9842C32.2862 50.1756 32.1745 50.3407 32.0783 50.4815V50.4815ZM32.4377 49.4772C32.3736 48.6826 32.1521 47.9231 31.9948 47.146C31.9773 47.0586 32.0093 46.9624 32.1414 46.9838C32.1861 46.9906 32.2318 46.9955 32.2765 47.0061C32.9913 47.1839 33.7101 47.3296 34.4522 47.2053C34.4522 47.247 34.4629 47.3024 34.4415 47.3199C33.7616 47.9707 33.239 48.7361 32.7475 49.5287C32.7145 49.5821 32.6553 49.6511 32.6038 49.6549C32.5008 49.6608 32.4445 49.5578 32.4377 49.4772V49.4772ZM51.7894 42.0427C51.6213 42.4157 51.4785 42.8013 51.2823 43.1587C50.3251 44.9174 49.2172 46.5898 47.9711 48.1572C46.6112 49.8618 45.161 51.5005 43.5088 52.94C43.0776 53.3159 42.7318 53.7666 42.3326 54.1716C42.1703 54.3367 42.0412 54.3659 41.8896 54.1716C41.8488 54.1182 41.7925 54.0803 41.743 54.0298C40.2491 52.3183 38.252 51.3703 36.2482 50.4524C35.3633 50.0464 34.4367 50.0376 33.5868 50.6389C33.513 50.6913 33.4236 50.7215 33.3469 50.77C33.1176 50.9157 32.8942 51.074 32.6203 51.1294C32.5824 50.8098 32.6864 50.5146 32.8243 50.2416C33.4576 48.9886 34.2444 47.8599 35.4527 47.0858C35.5463 47.0226 35.6488 46.9735 35.7567 46.9401C37.371 46.4836 38.7231 45.5802 39.9509 44.4739C40.3724 44.0931 40.8251 43.7503 41.2078 43.3219C41.3865 43.1218 41.5681 42.8314 41.9304 42.8897C42.0344 42.9062 42.0975 42.8382 42.114 42.7362C42.1762 42.3419 42.4666 42.1029 42.7366 41.862C43.7021 41.0121 44.4044 39.9553 45.1494 38.9228C45.6729 38.1972 46.0236 37.3813 46.5092 36.6402C46.5617 36.5615 46.5937 36.4352 46.7492 36.4556C46.7686 36.8957 47.1289 36.5265 47.3203 36.7101C48.0381 37.4037 48.8744 37.9728 49.5145 38.7499C49.8749 39.188 50.2158 39.6406 50.6073 40.0544C50.7782 40.2341 50.921 40.4371 51.1327 40.5828C51.327 40.7129 51.4688 40.9024 51.4523 41.1549C51.4368 41.3764 51.4426 41.5366 51.7175 41.6202C51.868 41.6658 51.8632 41.8814 51.7894 42.0427V42.0427ZM48.6811 35.5348C48.6811 35.4717 48.7064 35.3551 48.7297 35.3522C48.8336 35.3415 48.889 35.4377 48.9142 35.5173C49.1085 36.1118 49.3028 36.7053 49.3717 37.3298C49.3289 37.3323 49.2863 37.3226 49.2488 37.3018C49.2113 37.281 49.1805 37.2499 49.16 37.2123C48.8987 36.679 48.6831 36.1341 48.6772 35.53L48.6811 35.5348ZM49.7651 37.9369C49.8312 38.0515 49.9992 38.1749 49.8545 38.3478C49.7528 38.2662 49.6555 38.1793 49.5631 38.0875C49.3688 37.8767 49.3542 37.6193 49.3824 37.3531C49.5961 37.4852 49.6456 37.7349 49.7612 37.934L49.7651 37.9369ZM49.4368 35.6436C49.7845 35.7874 49.8312 36.1594 50.0264 36.4207C50.1356 36.5605 50.2008 36.7295 50.2139 36.9063C50.0779 36.9423 50.007 36.7422 49.8671 36.8014C49.7428 36.8539 49.6641 36.8364 49.6223 36.6936C49.5219 36.3504 49.4584 35.9974 49.4329 35.6407L49.4368 35.6436ZM50.6995 38.2147C50.4538 37.8194 50.1808 37.4318 50.2216 36.9326C50.5179 37.3162 50.6257 37.7873 50.8103 38.2225C50.7763 38.2167 50.7112 38.2293 50.6995 38.2118V38.2147ZM50.8132 38.2341C50.8744 38.5178 50.9394 38.8004 50.9938 39.085C51.0181 39.2123 51.0482 39.3473 50.953 39.4658C50.8666 39.3686 50.9045 39.2511 50.8831 39.1433C50.8229 38.8393 50.6655 38.5459 50.8132 38.2312V38.2341ZM52.6878 41.322C52.5441 41.3288 52.4984 41.2083 52.5013 41.0889C52.5051 40.5883 52.4772 40.0881 52.4178 39.5911C52.3566 39.0015 52.3207 38.4099 52.1526 37.8427C52.1014 37.6444 52.1185 37.4346 52.2012 37.2473C52.1864 37.3833 52.2135 37.5205 52.2789 37.6407C52.7121 38.7353 52.7539 39.9009 52.816 41.0665C52.816 41.1636 52.852 41.3113 52.6878 41.3191V41.322ZM52.9472 38.8674C52.9248 38.2186 52.6111 37.6436 52.48 37.0219C52.4576 36.9131 52.446 36.782 52.2857 36.8053C52.141 36.8257 52.1215 36.9491 52.1264 37.0637C52.1406 37.1269 52.166 37.1871 52.2012 37.2414C51.9273 37.2113 51.9273 36.9666 51.8748 36.7888C51.597 35.8457 51.1813 34.9617 50.7374 34.0905C50.6396 33.9115 50.5245 33.7427 50.3936 33.5864C50.3661 33.5694 50.3349 33.5595 50.3026 33.5577C50.2704 33.5558 50.2382 33.562 50.209 33.5757C50.1829 33.5947 50.1619 33.6199 50.148 33.6491C50.1341 33.6783 50.1277 33.7105 50.1294 33.7427C50.178 33.8699 50.2384 33.9922 50.31 34.108C50.863 35.0747 51.3061 36.1004 51.631 37.1657C51.9582 38.2791 52.1391 39.4304 52.1691 40.5906C52.1691 40.6945 52.2294 40.8421 52.0633 40.8577C51.9992 40.8635 51.9166 40.7751 51.8564 40.7149C51.701 40.5595 51.6689 40.3642 51.6709 40.1496C51.6702 38.8949 51.3915 37.6559 50.8549 36.5217C50.7636 36.3216 50.7219 36.0739 50.4188 36.0681C50.2945 36.0681 50.2168 35.9651 50.1536 35.8738C49.7729 35.3056 49.429 34.716 49.2338 34.0565C49.1862 33.8943 49.093 33.7136 49.2027 33.529C49.2207 33.4994 49.2319 33.4662 49.2355 33.4317C49.239 33.3972 49.2348 33.3623 49.2232 33.3297C49.2115 33.297 49.1928 33.2674 49.1682 33.2429C49.1437 33.2184 49.114 33.1997 49.0813 33.1881C48.7773 33.0541 48.7384 32.7831 48.6928 32.5198C48.5247 31.4796 48.2324 30.4801 47.6855 29.5719C47.6163 29.4713 47.5716 29.356 47.5547 29.2351C47.5378 29.1142 47.5494 28.9911 47.5884 28.8754C47.9866 29.1309 48.074 29.6107 48.3654 29.9488C49.272 30.9958 50.1634 32.0559 51.0395 33.1289C51.8587 34.1052 52.4817 35.2305 52.8743 36.443C53.1249 37.2453 53.0744 38.0632 53.1249 38.8771C53.1249 38.9141 53.0958 38.9743 53.0686 38.9859C52.9753 39.0112 52.9491 38.9296 52.9472 38.8645V38.8674ZM53.3794 41.7299C53.3707 41.8164 53.3532 41.932 53.2395 41.9145C53.1956 41.9024 53.1569 41.8763 53.1292 41.8402C53.1015 41.8041 53.0863 41.7599 53.0861 41.7144C53.0793 41.4444 53.0861 41.1743 53.0861 40.9033H53.0997C53.1123 40.6119 53.1191 40.3205 53.1434 40.0291C53.1434 39.9777 53.2279 39.932 53.2735 39.8854C53.3075 39.9388 53.3707 39.9903 53.3707 40.0456C53.4231 40.6047 53.426 41.1674 53.3794 41.727V41.7299ZM53.7019 42.2739C53.53 42.2272 53.6679 42.0194 53.6815 41.8776C53.7506 41.1293 53.759 40.3766 53.7067 39.627C53.6747 39.1501 53.7067 38.6489 53.5989 38.2021C53.3474 37.1288 53.2502 36.0156 52.7141 35.0064C51.9852 33.6649 51.0846 32.4242 50.0351 31.3154C49.8098 31.0735 49.667 30.7452 49.3387 30.6034C49.3387 30.6034 49.3387 30.5957 49.3387 30.5918H49.3533C49.5563 30.5112 49.6981 30.6345 49.8457 30.7423C50.0109 30.8628 50.175 30.9852 50.346 31.0959C50.4528 31.1649 50.5927 31.3096 50.6976 31.1639C50.8025 31.0182 50.6306 30.9308 50.5237 30.854C49.1474 29.8701 48.3674 28.484 47.8322 26.9202C47.5738 26.1655 47.3951 25.3748 47.0959 24.6521C46.5879 23.4244 46.3907 22.0762 45.6564 20.9359C45.4495 20.6153 45.5107 20.2035 45.2815 19.8577C44.7692 19.1034 44.1835 18.4016 43.5331 17.7625C43.2291 17.4556 42.9095 17.1642 42.5968 16.866C42.7531 16.7601 42.8804 16.8524 43.0076 16.9495C44.0761 17.7616 44.9988 18.7047 45.6001 19.9276C45.7196 20.1695 45.8478 20.4133 45.977 20.6454C46.0187 20.7212 46.0071 20.8999 46.1712 20.8018C46.2256 20.7688 46.2412 20.6755 46.2684 20.5969L46.2742 20.5794C46.7805 21.2036 47.4364 21.6897 48.1809 21.9927C49.7078 22.6493 50.8413 23.7721 51.5611 25.2893C51.633 25.4408 51.6835 25.7293 51.834 25.6827C52.107 25.5982 51.8185 25.3913 51.834 25.2359C51.8418 25.1242 51.834 25.0115 51.834 24.8998C51.5154 24.6269 51.4455 24.1976 51.1842 23.8828C50.3197 22.8367 49.3504 21.9344 48.0449 21.4604C47.5078 21.2557 47.0402 20.9023 46.6967 20.4415C46.5617 20.2705 46.4694 20.0471 46.1586 20.1996C45.9789 20.287 45.9643 20.0607 45.9187 19.948C45.365 18.5134 44.3121 17.4925 43.1378 16.5698C42.9552 16.426 42.7697 16.2657 42.5336 16.292C42.1111 16.3386 41.8003 16.1783 41.5069 15.8927C41.334 15.7247 41.1301 15.5848 40.8416 15.6014C40.5813 15.6159 40.3977 15.3983 40.1976 15.2526C40.1531 15.2048 40.1173 15.1496 40.0917 15.0895C40.1551 15.0735 40.2208 15.0679 40.286 15.073C41.4933 15.3838 42.7337 15.6198 43.6856 16.5367C43.7313 16.5814 43.7827 16.6475 43.843 16.5707C43.8886 16.5144 43.843 16.4513 43.8138 16.3901C43.5059 15.8335 42.9493 15.6052 42.4229 15.3391C42.2364 15.242 41.9722 15.2711 41.8925 15.0088C42.1365 14.9811 42.3829 15.0311 42.5968 15.1516C43.4826 15.6373 44.2937 16.1929 44.7861 17.1205C45.0523 17.6217 45.3349 18.1122 45.569 18.6319C45.7633 19.067 46.0333 19.4594 46.4529 19.7275C47.161 20.1782 47.8565 20.6542 48.6316 20.9844C50.3732 21.7275 51.3688 23.0864 51.8748 24.859L52.816 26.2694C52.9433 26.4636 53.0832 26.6424 52.7733 26.8075C52.6849 26.8551 52.6907 26.9629 52.7801 27.0328C52.8332 27.0748 52.893 27.1077 52.9569 27.13C53.8408 27.4214 54.1982 28.1596 54.477 28.9434C54.7286 29.6506 54.9277 30.3781 54.9141 31.1415C54.9141 31.2299 54.9559 31.2571 55.0326 31.2494C55.0889 31.2435 55.1064 31.2076 55.1064 31.1522C55.1064 30.856 55.1113 30.5597 55.1181 30.2635C55.1181 30.2207 55.1375 30.1459 55.1598 30.1411C55.2395 30.1226 55.2803 30.1858 55.2832 30.2547C55.2968 30.5461 55.4833 30.6646 55.7193 30.7967C56.0712 31.0055 56.4072 31.2399 56.7246 31.498C57.3395 31.972 57.4211 32.6374 57.3473 33.3435C57.3437 33.3751 57.3332 33.4054 57.3164 33.4323C57.2996 33.4592 57.2769 33.482 57.2501 33.4989C57.1297 33.5407 57.0801 33.4251 57.0724 33.3474C57.0228 32.8812 56.8072 32.481 56.5945 32.0779C56.4914 31.8727 56.3243 31.7067 56.1185 31.6049C56.0136 31.5534 55.8874 31.5349 55.8223 31.6593C55.7795 31.7428 55.8281 31.8273 55.9058 31.8943C56.6528 32.5402 56.8325 33.4271 56.9403 34.344C56.9539 34.4547 57.0131 34.5781 56.9208 34.6674C56.813 34.7733 56.7518 34.9841 56.5683 34.9433C56.4099 34.9083 56.4566 34.7199 56.442 34.5956C56.3798 34.0536 56.3449 33.5077 56.1836 32.9812C56.0738 32.6088 55.8789 32.267 55.6144 31.9827C55.5027 31.8661 55.3638 31.7399 55.2065 31.8972C55.0695 32.0342 55.2065 32.141 55.2968 32.2382C55.5294 32.4892 55.7097 32.7841 55.8271 33.1056C55.8393 33.1871 55.8333 33.2704 55.8097 33.3494C55.5445 33.2377 55.4707 32.955 55.2929 32.7666C55.1152 32.5781 54.9665 32.378 54.7276 32.2809C54.6861 32.2602 54.639 32.2535 54.5933 32.2617C54.5476 32.2699 54.5058 32.2927 54.4741 32.3266C54.4051 32.4101 54.4449 32.4936 54.4955 32.5723C54.5061 32.5924 54.5207 32.6102 54.5382 32.6247C55.5163 33.2823 55.7116 34.2925 55.8009 35.3658C55.898 36.5431 55.9078 37.7106 55.5785 38.8577C55.528 39.0316 55.4299 39.3531 55.3638 39.3181C55.155 39.2055 55.3434 38.9791 55.3541 38.8014C55.4175 37.9363 55.2901 37.0679 54.9811 36.2575C54.9285 36.1309 54.8634 36.0099 54.7869 35.8962C54.7208 35.7932 54.6208 35.7349 54.4955 35.8039C54.3702 35.8729 54.3983 35.9894 54.4547 36.0953C55.2395 37.5163 55.0637 38.9937 54.7121 40.4808C54.7045 40.5478 54.6868 40.6133 54.6596 40.6751C54.6285 40.7275 54.5673 40.7926 54.5159 40.7945C54.4352 40.7945 54.4372 40.7061 54.4372 40.645C54.4333 40.2351 54.4317 39.8248 54.4323 39.4143C54.4473 39.2325 54.4156 39.05 54.34 38.8839C54.3274 38.8659 54.3107 38.8509 54.2913 38.8403C54.272 38.8297 54.2504 38.8237 54.2283 38.8228C54.1963 38.8228 54.138 38.8645 54.1312 38.8927C54.1089 39.119 54.0894 39.3453 54.0817 39.5726C54.0603 40.2759 54.1672 40.9859 53.9467 41.6755C53.9263 41.7406 53.9301 41.8125 53.9097 41.8766C53.869 42.0378 53.8116 42.3011 53.7019 42.2709V42.2739Z" fill="black"/>
<path d="M23.452 33.3928C23.3763 33.2743 23.2578 33.183 23.1121 33.2957C22.9994 33.3831 23.046 33.5035 23.1121 33.5987C23.6055 34.2602 23.5608 35.0004 23.4511 35.758C23.4025 36.0941 23.3957 36.4379 23.3734 36.775C23.3335 37.3704 23.5511 37.8949 23.8493 38.3854C24.2174 38.9925 25.2752 39.4539 25.9231 39.314C25.9784 39.3023 26.0202 39.2314 26.0697 39.1877C26.0319 39.1634 25.9959 39.1207 25.9561 39.1168C25.4258 39.0741 25.2334 38.7817 25.248 38.264C25.2558 37.9998 25.1509 37.7327 25.0945 37.4665C25.0809 37.3985 25.0537 37.3335 24.977 37.3257C24.8381 37.3102 24.8333 37.4296 24.843 37.5064C24.8935 37.8648 24.9867 38.2203 25.01 38.5806C25.0343 38.9566 24.8352 38.7798 24.6856 38.6778L24.6973 38.6836C24.6933 38.6746 24.6888 38.6658 24.6837 38.6574C24.6837 38.6574 24.6837 38.6681 24.6837 38.6729C24.2077 38.432 23.9736 38.0299 23.8503 37.5161C23.7061 36.8714 23.7021 36.2033 23.8386 35.5569C24.0017 34.8128 23.8627 34.0344 23.452 33.3928V33.3928Z" fill="black"/>
<path d="M23.329 28.718C23.532 28.4198 23.7107 28.1041 23.8972 27.7952C23.9322 27.737 23.9661 27.6544 23.8914 27.6204C23.8601 27.6145 23.828 27.6157 23.7972 27.6237C23.7665 27.6318 23.7379 27.6466 23.7136 27.667C23.4455 27.8846 23.2736 28.1818 23.1007 28.4703C22.7063 29.1337 22.3722 29.8234 22.3071 30.6665C22.3528 30.9035 22.4043 31.1919 22.4703 31.4775C22.482 31.5251 22.5674 31.5552 22.6141 31.5941C22.6306 31.5527 22.641 31.5092 22.6451 31.4649C22.6209 31.1104 22.4965 30.7714 22.6179 30.3964C22.8074 29.8146 22.9783 29.2318 23.329 28.718Z" fill="black"/>
<path d="M50.1159 47.1188C50.0742 47.0518 50.0275 46.9371 49.9149 47.011C49.8902 47.0256 49.8689 47.0452 49.8523 47.0686C49.8357 47.092 49.8242 47.1186 49.8185 47.1467C49.8128 47.1748 49.8131 47.2038 49.8193 47.2318C49.8256 47.2597 49.8376 47.2861 49.8547 47.3092C50.0489 47.618 50.2208 47.9454 50.4549 48.2203C51.117 48.9952 51.6545 49.8685 52.0479 50.8088C52.0741 50.8712 52.1139 50.927 52.1645 50.972C52.1878 50.9924 52.246 50.9808 52.2859 50.972C52.3043 50.972 52.317 50.9409 52.3325 50.9235C52.35 50.7768 52.2558 50.668 52.2014 50.5456C51.6506 49.3159 50.8163 48.2543 50.1159 47.1188Z" fill="black"/>
<path d="M50.7461 46.4417C50.6888 46.3669 50.6227 46.2775 50.5382 46.3242C50.4537 46.3708 50.4615 46.4932 50.4994 46.5748C50.5606 46.7214 50.642 46.8587 50.7413 46.9827C51.5183 47.8569 52.0321 48.8982 52.5664 49.9249C52.6185 50.0267 52.679 50.1242 52.747 50.2163C52.7587 50.2318 52.8247 50.2162 52.8626 50.2017C52.8752 50.2017 52.8801 50.1667 52.8927 50.1366L52.8121 49.9608C52.239 48.7175 51.5834 47.5267 50.7461 46.4417Z" fill="black"/>
<path d="M49.7332 47.8998C49.6361 47.7677 49.5953 47.4142 49.3447 47.5919C49.1747 47.7104 49.4136 47.9173 49.5049 48.0475C50.0789 48.8623 50.5857 49.7225 51.0202 50.6195C51.1373 50.8399 51.2671 51.0533 51.4087 51.2587C51.4243 51.283 51.4835 51.2849 51.5224 51.2868C51.535 51.2868 51.5496 51.2548 51.5641 51.2363C51.5591 51.1917 51.5483 51.148 51.5321 51.1062C50.9707 50.0154 50.4393 48.9061 49.7332 47.8998Z" fill="black"/>
<path d="M51.337 45.9465C51.2564 45.8493 51.1728 45.6677 51.0281 45.7736C50.8834 45.8794 51.0466 46.0222 51.101 46.13C51.1729 46.2454 51.2573 46.3526 51.3525 46.4496C51.6439 46.8012 51.9353 47.1431 52.1461 47.5511C52.3987 48.0368 52.6891 48.4952 52.9688 48.9634C52.9989 49.0139 53.066 49.0411 53.1174 49.08L53.167 48.9547C53.1271 48.8575 53.0932 48.7458 53.0436 48.6438C52.5888 47.6774 52.0155 46.7714 51.337 45.9465V45.9465Z" fill="black"/>
<path d="M49.0775 48.3214C48.993 48.2136 48.9221 48.0951 48.7861 48.0436C48.7647 48.0416 48.7432 48.0443 48.7229 48.0513C48.7026 48.0583 48.6841 48.0696 48.6685 48.0844C48.637 48.1252 48.6115 48.1704 48.5928 48.2184C48.6433 48.2796 48.6967 48.3486 48.753 48.4127C49.3856 49.1571 49.8866 50.0039 50.2343 50.9168C50.3213 51.1267 50.4219 51.3308 50.5354 51.5277C50.5762 51.6054 50.6413 51.7103 50.7374 51.6676C50.8336 51.6249 50.7938 51.5103 50.754 51.4325C50.2246 50.3825 49.8147 49.2646 49.0775 48.3214Z" fill="black"/>
<path d="M29.7159 50.9285C29.6314 50.8868 29.5488 50.9557 29.5032 51.0451C29.4301 51.1593 29.3695 51.2811 29.3225 51.4084C29.0758 52.4146 28.8368 53.4248 28.6027 54.434C28.5999 54.4556 28.5999 54.4775 28.6027 54.4991C28.6367 54.5195 28.6698 54.5554 28.6999 54.5564C28.797 54.5564 28.7824 54.47 28.797 54.4107C29.0797 53.3209 29.3458 52.2252 29.7479 51.1704C29.7955 51.08 29.8004 50.9742 29.7159 50.9285Z" fill="black"/>
<path d="M24.6913 38.2001C24.6369 37.1832 24.5893 36.1662 24.8408 35.1638C24.8884 34.9763 25.1031 34.6577 24.938 34.6247C24.6466 34.5654 24.6174 34.9394 24.5718 35.1599C24.362 36.1846 24.3775 37.2191 24.5048 38.2516C24.5222 38.3915 24.6203 38.5207 24.6883 38.6537C24.7097 38.5034 24.7107 38.3508 24.6913 38.2001V38.2001Z" fill="black"/>
<path d="M52.2596 45.2024C52.2344 45.1732 52.1819 45.1684 52.1421 45.1528C52.1052 45.1732 52.0372 45.1956 52.0372 45.216C52.0359 45.2807 52.0523 45.3445 52.0848 45.4005C52.5442 46.0804 53.1532 46.6215 53.7487 47.1742C53.7778 47.2004 53.8458 47.2256 53.8652 47.2111C53.939 47.1644 53.9157 47.0906 53.8701 47.0382C53.3358 46.4243 52.799 45.8124 52.2596 45.2024Z" fill="black"/>
<path d="M45.9248 51.7403C45.9053 51.6976 45.8354 51.7161 45.815 51.7627C45.7921 51.8003 45.7809 51.844 45.7829 51.888C45.9481 52.5679 46.4842 53.0448 46.7941 53.6471C46.8223 53.7024 46.8708 53.6946 46.8912 53.6471C46.899 53.6267 46.9048 53.6053 46.9116 53.5849C46.9156 53.5624 46.9156 53.5394 46.9116 53.5169C46.6601 52.8807 46.2113 52.3562 45.9248 51.7403Z" fill="black"/>
<path d="M46.5502 51.8403C46.5327 51.8802 46.4968 51.9219 46.4997 51.9598C46.5434 52.3371 46.6884 52.6956 46.9193 52.9972C46.9372 53.0251 46.9655 53.0448 46.9979 53.0519C47.0303 53.059 47.0642 53.0529 47.0922 53.0351C47.1084 53.0223 47.1209 53.0056 47.1286 52.9865C47.1362 52.9674 47.1388 52.9466 47.1359 52.9263C46.9837 52.5805 46.826 52.237 46.6629 51.8957C46.6493 51.8666 46.589 51.8578 46.5502 51.8403Z" fill="black"/>
<path d="M53.6615 45.5278C53.6256 45.8144 53.781 46.0407 53.9034 46.2738C53.9602 46.3709 54.0283 46.4609 54.1064 46.5419C54.1278 46.5652 54.1802 46.5652 54.2191 46.5662C54.2307 46.5662 54.2424 46.5312 54.256 46.5098C54.2222 46.381 54.1737 46.2565 54.1112 46.1388C53.9704 45.93 53.9568 45.623 53.6615 45.5278Z" fill="black"/>
<path d="M34.1075 33.7002C33.8695 33.7731 33.9598 33.9285 34.0385 34.0732C34.0749 34.1311 34.1046 34.1931 34.1269 34.2578C34.1659 34.3785 34.163 34.5089 34.1186 34.6277C34.0741 34.7466 33.9908 34.8469 33.8821 34.9124C33.6947 35.0309 33.5635 34.8648 33.4178 34.7493C33.0905 34.4889 32.6835 34.3743 32.3542 34.6521C31.8802 35.0572 31.3946 34.9435 30.9031 34.8046C30.4281 34.6715 30.3601 34.5404 30.4757 34.0616C30.6078 33.5108 30.7739 32.9678 30.9254 32.422C31.2826 31.1338 31.5494 29.8222 31.7238 28.4968C31.7666 28.1511 31.7918 27.8169 31.4956 27.5479C31.413 27.4731 31.3722 27.3536 31.2362 27.4604C31.1975 27.4853 31.1699 27.524 31.159 27.5687C31.1482 27.6134 31.1549 27.6606 31.178 27.7004C31.3052 27.9238 31.3946 28.1511 31.3518 28.4143C31.2207 29.2215 31.1459 30.0422 30.9448 30.8319C30.7049 31.778 30.5233 32.7406 30.2018 33.6662C30.1252 33.9049 30.0855 34.1538 30.0842 34.4044C30.0774 34.7201 30.2027 34.9931 30.534 35.0902C31.0196 35.231 31.5053 35.3592 32.0114 35.2252C32.4591 35.1067 32.8613 35.0649 33.3256 35.266C33.8967 35.5117 34.328 35.2951 34.5057 34.8036C34.6106 34.5122 34.5057 34.2209 34.4533 33.9363C34.4241 33.7818 34.3046 33.641 34.1075 33.7002Z" fill="black"/>
<path d="M36.4589 28.7248C36.6231 29.1182 36.9349 29.2659 37.3166 29.2911C37.4673 29.3082 37.6189 29.2676 37.7408 29.1775C37.8628 29.0874 37.9462 28.9545 37.9742 28.8054C38.0597 28.4752 38.2394 28.5568 38.4229 28.6782C38.591 28.7889 38.7367 28.9346 38.9018 29.0531C38.9484 29.0871 39.0397 29.1124 39.0708 29.0211C39.0962 28.9593 39.0996 28.8908 39.0805 28.8268C38.9834 28.6248 38.7561 28.5927 38.5949 28.4733C37.7993 27.8905 36.9504 27.5991 35.9898 28.077C35.9694 28.0867 35.948 28.1041 35.9276 28.1032C35.8868 28.1032 35.8246 28.1032 35.811 28.0799C35.8038 28.0653 35.7997 28.0493 35.799 28.033C35.7983 28.0167 35.8011 28.0005 35.8072 27.9854C35.8132 27.9702 35.8224 27.9565 35.8341 27.9452C35.8458 27.9339 35.8598 27.9251 35.8752 27.9196C36.3696 27.687 36.9153 27.5847 37.4604 27.6224C37.6639 27.6283 37.863 27.683 38.041 27.7818C38.219 27.8807 38.3706 28.0209 38.4832 28.1906C38.4963 28.2094 38.515 28.2237 38.5366 28.2314C38.5764 28.2469 38.624 28.2722 38.658 28.2615C38.6897 28.2502 38.7158 28.2272 38.731 28.1972C38.7462 28.1672 38.7493 28.1325 38.7396 28.1003C38.7245 28.0114 38.6908 27.9267 38.6406 27.8519C38.5903 27.777 38.5247 27.7137 38.4482 27.6661C38.1175 27.4379 37.7207 27.3256 37.3195 27.3465C36.6211 27.2824 36.0403 27.5408 35.474 27.8458C35.2729 27.9555 35.0855 28.0993 35.0971 28.3693C35.1003 28.4373 35.0885 28.5051 35.0627 28.568C35.0368 28.6309 34.9975 28.6874 34.9475 28.7336C34.93 28.7478 34.9157 28.7657 34.9057 28.786C34.8957 28.8063 34.8902 28.8286 34.8897 28.8512C34.8891 28.8738 34.8935 28.8963 34.9025 28.9171C34.9115 28.9379 34.9249 28.9564 34.9417 28.9715C35.0495 29.0755 35.1651 29.023 35.2438 28.9434C35.4187 28.7633 35.6226 28.6139 35.847 28.5014C36.2579 28.3033 36.2831 28.3013 36.4589 28.7248ZM37.2622 28.1741C37.4137 28.1605 37.4565 28.2518 37.4846 28.3683C37.4968 28.4054 37.5013 28.4445 37.4981 28.4833C37.4948 28.5221 37.4838 28.5599 37.4657 28.5944C37.4476 28.6289 37.4227 28.6595 37.3926 28.6842C37.3625 28.7089 37.3277 28.7274 37.2904 28.7384C37.2697 28.7479 37.247 28.7522 37.2244 28.7507C37.2017 28.7493 37.1797 28.7422 37.1604 28.7302C37.1412 28.7181 37.1252 28.7015 37.114 28.6817C37.1027 28.662 37.0966 28.6397 37.0961 28.617C37.0689 28.4441 37.0446 28.2557 37.2622 28.1741Z" fill="black"/>
<path d="M36.012 26.8006C36.6919 26.8084 37.3718 26.8113 38.0411 26.8599C38.551 26.8958 39.0124 27.0852 39.3368 27.5185C39.3624 27.5568 39.4008 27.5847 39.4451 27.5974C39.4894 27.61 39.5367 27.6065 39.5787 27.5874C39.62 27.5663 39.6517 27.5302 39.6672 27.4865C39.6827 27.4428 39.6809 27.3948 39.6622 27.3524C39.3941 26.9075 39.1639 26.3869 38.585 26.2985C37.9138 26.1965 37.2252 26.1741 36.2985 26.0964C35.9984 26.111 35.5108 26.3587 35.0174 26.5627C34.8231 26.6452 34.5637 26.6812 34.4346 26.89C34.3374 27.0551 34.0538 27.1979 34.184 27.4019C34.351 27.6642 34.5919 27.4417 34.7823 27.3562C34.9854 27.2541 35.1825 27.1406 35.3729 27.0163C35.5617 26.8864 35.783 26.8117 36.012 26.8006Z" fill="black"/>
<path d="M28.4932 28.6839C28.5318 28.7859 28.5922 28.8782 28.6703 28.9544C28.7484 29.0305 28.8422 29.0886 28.9451 29.1246C29.0481 29.1607 29.1577 29.1737 29.2662 29.1628C29.3747 29.152 29.4795 29.1175 29.5733 29.0618C29.7396 28.9798 29.8687 28.8378 29.9346 28.6645C30.0376 28.3517 30.1969 28.412 30.3853 28.5674C30.4323 28.617 30.484 28.6619 30.5397 28.7014C30.6369 28.7529 30.7418 28.8559 30.8379 28.7296C30.9341 28.6033 30.8379 28.5207 30.7408 28.4498C29.9715 27.8515 29.1605 27.4785 28.1823 27.9642C28.0046 28.0526 27.8346 28.1798 27.6199 28.172C27.5296 28.2799 27.3285 28.3459 27.447 28.5285C27.5345 28.6587 27.6889 28.613 27.8123 28.5285C27.851 28.5042 27.8916 28.4831 27.9337 28.4654C28.2037 28.3284 28.3513 28.3517 28.4932 28.6839ZM29.2926 28.0565C29.3897 28.1002 29.5577 28.1176 29.5587 28.274C29.5587 28.4052 29.4674 28.5547 29.3304 28.5557C29.1119 28.5557 29.1682 28.3401 29.1362 28.207C29.1099 28.1079 29.1643 28.0438 29.2926 28.0565Z" fill="black"/>
<path d="M27.6123 28.1757H27.618C27.625 28.1698 27.6314 28.1631 27.637 28.1558L27.6123 28.1757Z" fill="black"/>
<path d="M31.8043 33.4522C31.8344 33.459 31.918 33.323 31.9442 33.2424C32.208 32.371 32.399 31.4792 32.5153 30.5761C32.5681 30.1726 32.6496 29.7733 32.7591 29.3814C32.7902 29.2755 32.8708 29.1541 32.7164 29.1046C32.6598 29.0914 32.6003 29.0987 32.5486 29.1252C32.4968 29.1516 32.4561 29.1956 32.4337 29.2493C32.3612 29.3908 32.3161 29.5447 32.3007 29.7029C32.2851 30.3197 32.1433 30.9161 32.0335 31.5183C31.9364 32.0758 31.8335 32.6334 31.7324 33.1987C31.783 33.2754 31.647 33.4172 31.8043 33.4522Z" fill="black"/>
<path d="M28.402 27.53C29.0294 27.4601 29.7181 27.1998 30.2329 27.8515C30.3028 27.9399 30.4097 27.8923 30.4583 27.8137C30.4702 27.7837 30.4745 27.7512 30.4708 27.7192C30.4671 27.6871 30.4554 27.6565 30.4369 27.6301C30.0726 27.3134 29.6929 27.0269 29.1625 27.1143C28.9181 27.1638 28.671 27.1985 28.4224 27.2182C28.0047 27.2338 27.6987 27.4708 27.4035 27.7136C27.1684 27.9079 27.2451 28.0448 27.6239 28.1507C27.6763 27.9811 27.7785 27.8312 27.9173 27.7205C28.0561 27.6098 28.225 27.5434 28.402 27.53V27.53Z" fill="black"/>
<path d="M42.5436 24.8552C41.7549 24.0134 40.963 23.1761 40.1678 22.3434C40.1153 22.289 40.0153 22.2054 39.9453 22.322C39.8958 22.4046 39.9453 22.4881 40.0153 22.558C40.5145 23.0437 40.9992 23.5546 41.514 24.0276C41.9025 24.388 42.157 24.8911 42.6543 25.1408C42.6583 25.0879 42.6504 25.0349 42.6312 24.9855C42.6121 24.9361 42.5821 24.8916 42.5436 24.8552V24.8552Z" fill="black"/>
<path d="M40.6319 21.9313C41.3711 22.7559 42.1647 23.5369 42.7688 24.4732C42.808 24.54 42.8653 24.5943 42.934 24.6299C43.0028 24.6655 43.0802 24.6809 43.1574 24.6743C42.9534 24.5538 42.866 24.3431 42.7552 24.1517C42.2162 23.2484 41.4644 22.5228 40.7475 21.7671C40.6873 21.704 40.5853 21.6049 40.5261 21.6603C40.4124 21.7729 40.5659 21.8536 40.6319 21.9313Z" fill="black"/>
<path d="M39.8258 24.6252C40.6145 25.3847 41.2556 26.2618 41.852 27.1739C41.9015 27.2497 41.9403 27.3313 41.9879 27.409C42.02 27.4595 42.0588 27.4682 42.0851 27.4342C42.0969 27.412 42.1051 27.3881 42.1094 27.3633C42.0739 27.3101 42.0415 27.255 42.0122 27.1982C41.6043 26.324 40.9156 25.6441 40.3348 24.8942C40.1832 24.6999 40.0171 24.5115 39.8491 24.325C39.8093 24.2803 39.7432 24.2279 39.682 24.2939C39.6699 24.3056 39.6602 24.3197 39.6536 24.3352C39.647 24.3507 39.6436 24.3674 39.6436 24.3843C39.6436 24.4011 39.647 24.4178 39.6536 24.4334C39.6602 24.4489 39.6699 24.4629 39.682 24.4746C39.7325 24.527 39.7772 24.5785 39.8258 24.6252Z" fill="black"/>
<path d="M30.5293 29.3271C30.4749 29.2145 30.3351 29.3096 30.2302 29.3553C29.6784 29.6059 29.1423 29.6176 28.6207 29.2698C28.5249 29.2109 28.4193 29.1697 28.3089 29.1484C28.2662 29.1338 28.2197 29.1357 28.1783 29.1537C28.137 29.1716 28.1039 29.2044 28.0855 29.2455C28.0515 29.3262 28.1175 29.3708 28.1729 29.4048C28.5808 29.6545 28.9995 29.873 29.4987 29.8565C29.7935 29.8536 30.0828 29.7775 30.3409 29.635C30.4526 29.5651 30.5886 29.4485 30.5293 29.3271Z" fill="black"/>
<path d="M38.3781 29.5155C38.367 29.4974 38.3517 29.4822 38.3334 29.4714C38.3151 29.4606 38.2944 29.4544 38.2732 29.4534C38.1611 29.4583 38.0513 29.4864 37.9507 29.5359C37.601 29.7652 37.2203 29.7496 36.8347 29.6981C36.7028 29.6721 36.573 29.6367 36.4461 29.5923C36.349 29.566 36.2577 29.5709 36.2286 29.6758C36.1994 29.7807 36.2936 29.8419 36.3752 29.8701C36.6647 29.9714 36.9681 30.0271 37.2747 30.0352C37.6923 30.1158 38.0003 29.7933 38.3616 29.6263C38.381 29.6195 38.3936 29.5437 38.3781 29.5155Z" fill="black"/>
<path d="M41.3229 24.9969C41.3433 25.0163 41.3909 25.0076 41.4326 25.0047C41.0849 24.3549 40.504 23.9168 39.9824 23.4263C39.9713 23.4133 39.9577 23.4028 39.9424 23.3953C39.927 23.3879 39.9103 23.3837 39.8933 23.3829C39.8763 23.3822 39.8593 23.385 39.8434 23.3911C39.8274 23.3972 39.813 23.4066 39.8008 23.4185C39.7454 23.4836 39.8095 23.5428 39.8523 23.5836C40.3399 24.0576 40.8301 24.5287 41.3229 24.9969Z" fill="black"/>
<path d="M42.3556 21.4457C42.375 21.4777 42.4236 21.4923 42.4595 21.5156C42.4692 21.4525 42.51 21.3699 42.4848 21.3291C42.1468 20.7881 41.6825 20.3578 41.2298 19.9178C41.2026 19.8916 41.1482 19.8945 41.1045 19.8828C41.021 19.9644 41.0521 20.0431 41.1143 20.1159C41.5076 20.5773 42.0341 20.9173 42.3556 21.4457Z" fill="black"/>
<path d="M41.3292 21.4507C41.4584 21.576 41.5915 21.6984 41.7236 21.8208C41.7855 21.8837 41.8642 21.9275 41.9503 21.947C42.0364 21.9664 42.1263 21.9607 42.2093 21.9305C41.9043 21.8043 41.7537 21.509 41.5293 21.3002C41.4031 21.1846 41.2506 20.9301 41.1107 21.068C40.9223 21.2516 41.2137 21.34 41.3292 21.4507Z" fill="black"/>
<path d="M42.1661 22.2906C42.3108 22.5188 42.4575 22.7461 42.611 22.9705C42.6683 23.055 42.6799 23.2619 42.8004 23.1939C42.9529 23.1133 42.812 22.954 42.7576 22.8539C42.5896 22.5422 42.3973 22.243 42.2147 21.938C42.1619 21.9786 42.1272 22.0383 42.1181 22.1043C42.109 22.1703 42.1262 22.2372 42.1661 22.2906V22.2906Z" fill="black"/>
<path d="M42.5474 31.6021C42.4192 31.8381 42.5873 32.0226 42.6795 32.2023C42.8175 32.4743 42.9505 32.757 43.2031 32.9522C43.2215 32.6103 42.9117 32.418 42.8146 32.1275C42.7607 31.9366 42.6699 31.7581 42.5474 31.6021V31.6021Z" fill="black"/>
<path d="M42.8763 28.7578C42.8102 28.8102 42.8491 28.8802 42.8909 28.9278C43.1609 29.2386 43.2638 29.6708 43.6087 29.9263C43.5407 29.5086 43.3017 29.1657 43.1055 28.8054C43.0958 28.7849 43.0815 28.7669 43.0636 28.7529C43.0458 28.7388 43.025 28.7291 43.0028 28.7245C42.9805 28.7199 42.9575 28.7205 42.9356 28.7263C42.9137 28.732 42.8933 28.7428 42.8763 28.7578V28.7578Z" fill="black"/>
<path d="M42.7405 30.9533C42.6842 30.8853 42.6279 30.8154 42.5667 30.7503C42.5577 30.7436 42.5474 30.7392 42.5364 30.7373C42.5254 30.7355 42.5141 30.7362 42.5035 30.7396C42.4763 30.7688 42.4336 30.829 42.4414 30.8367C42.726 31.1495 42.7852 31.6818 43.3155 31.7527C43.0426 31.5478 42.9513 31.2078 42.7405 30.9533Z" fill="black"/>
<path d="M41.6003 18.6981C41.6246 18.669 41.6634 18.6204 41.6537 18.601C41.5653 18.4018 41.4944 18.192 41.3371 18.0405C41.305 18.0347 41.2691 18.0201 41.2642 18.0269C41.2409 18.0609 41.204 18.1046 41.2108 18.1357C41.2648 18.3483 41.3783 18.541 41.5381 18.6913C41.5488 18.701 41.5925 18.7068 41.6003 18.6981Z" fill="black"/>
<path d="M41.3684 18.9834C41.2713 19.0465 41.3684 19.1446 41.4111 19.2116C41.5326 19.3836 41.5724 19.6351 41.8356 19.675C41.8735 19.4224 41.6413 19.3 41.552 19.1097C41.517 19.0358 41.4519 18.927 41.3684 18.9834Z" fill="black"/>
<path d="M49.8778 24.2531C50.154 24.7227 50.3561 25.2322 50.4771 25.7635C50.4936 25.848 50.4907 25.9577 50.6189 25.9247C50.6587 25.914 50.6752 25.8188 50.6908 25.7877C50.6949 25.7318 50.6949 25.6756 50.6908 25.6197C50.4188 24.1511 49.7855 22.9573 48.2625 22.4386C48.1411 22.3978 48.0051 22.2735 47.907 22.4445C47.8089 22.6154 47.9614 22.6951 48.0731 22.763C48.246 22.8689 48.4295 22.9573 48.6121 23.0486C49.1492 23.3084 49.5917 23.7295 49.8778 24.2531V24.2531Z" fill="black"/>
<path d="M48.9437 26.5696C48.9058 26.4725 48.8465 26.4161 48.7368 26.4511C48.7091 26.4589 48.6834 26.4723 48.6612 26.4904C48.639 26.5086 48.6207 26.5311 48.6076 26.5566C48.5945 26.5821 48.5867 26.6101 48.5849 26.6387C48.5831 26.6674 48.5871 26.6961 48.5969 26.7231C48.6375 26.829 48.6862 26.9316 48.7426 27.03C49.2156 28.0985 49.8975 29.0445 50.4239 30.079C50.5023 30.2181 50.6236 30.3282 50.7697 30.3927C50.7896 30.4016 50.8111 30.4062 50.8329 30.4062C50.8546 30.4062 50.8761 30.4016 50.896 30.3927C50.9271 30.3743 50.9387 30.3218 50.9591 30.2849C50.9467 30.2421 50.9311 30.2002 50.9125 30.1596C50.2569 28.96 49.4682 27.8372 48.9437 26.5696Z" fill="black"/>
<path d="M52.6975 31.9837C52.4518 31.8146 52.3828 31.5572 52.2847 31.3037C52.2798 31.2876 52.2716 31.2726 52.2608 31.2596C52.2499 31.2466 52.2366 31.2359 52.2216 31.2281C52.2066 31.2204 52.1902 31.2156 52.1733 31.2143C52.1565 31.2129 52.1395 31.2149 52.1235 31.2202C52.0633 31.2462 52.0139 31.2922 51.9836 31.3503C51.9591 31.4142 51.948 31.4825 51.9512 31.5509C51.9544 31.6193 51.9717 31.6863 52.0021 31.7476C52.1263 32.0167 52.321 32.2473 52.5654 32.4149C53.0693 32.7748 53.4116 33.3183 53.5183 33.9282C53.5979 34.3265 53.6941 34.7218 53.7815 35.1181C53.7951 35.1812 53.765 35.256 53.8388 35.2997C53.8576 35.2419 53.871 35.1824 53.8787 35.122C53.8845 34.9404 53.8787 34.7597 53.8787 34.6198C53.9049 33.5261 53.6077 32.616 52.6975 31.9837Z" fill="black"/>
<path d="M53.6755 28.9766C54.1737 29.7741 54.3156 30.6628 54.3554 31.5788C54.3554 31.6817 54.2952 31.8372 54.4603 31.8381C54.5982 31.8381 54.5982 31.6808 54.6089 31.573C54.6147 31.4597 54.6147 31.3462 54.6089 31.233C54.5818 30.6884 54.5018 30.1477 54.37 29.6187C54.2476 29.0932 53.9406 28.6736 53.6201 28.2588C53.5417 28.1449 53.4253 28.0626 53.2918 28.0267C53.2486 28.011 53.2016 28.0087 53.1571 28.0201C53.1125 28.0316 53.0725 28.0562 53.0422 28.0908C53.0286 28.1091 53.0189 28.1299 53.0135 28.1521C53.0082 28.1742 53.0074 28.1972 53.0111 28.2196C53.0148 28.2421 53.023 28.2636 53.0352 28.2829C53.0473 28.3021 53.0633 28.3187 53.082 28.3317C53.3225 28.503 53.5246 28.7227 53.6755 28.9766V28.9766Z" fill="black"/>
<path d="M50.1008 27.197C50.0548 27.1557 50.0018 27.1228 49.9444 27.0999C49.8074 27.1436 49.7171 27.2125 49.7783 27.3475C49.8374 27.4698 49.9107 27.5845 49.9968 27.6894C50.5223 28.3461 50.9856 29.0376 51.2421 29.8506C51.2621 29.9147 51.2952 29.9739 51.3392 30.0245C51.3546 30.0385 51.3731 30.0489 51.3931 30.0548C51.4131 30.0607 51.4342 30.0619 51.4548 30.0585C51.4888 30.0507 51.5374 30.007 51.5393 29.9759C51.5479 29.8867 51.5434 29.7967 51.5257 29.7088C51.3052 28.7307 50.7137 27.9536 50.1008 27.197Z" fill="black"/>
<path d="M49.5467 26.1907C49.5495 26.2071 49.5558 26.2226 49.5651 26.2363C49.5744 26.25 49.5866 26.2615 49.6008 26.2701C49.615 26.2786 49.6309 26.284 49.6473 26.2859C49.6638 26.2878 49.6805 26.2862 49.6962 26.2811C49.7244 26.2723 49.7341 26.2072 49.7555 26.1606C49.6584 25.7235 49.534 25.2864 49.2795 24.9066C49.058 24.5904 48.7841 24.3145 48.4695 24.0907C48.4333 24.0617 48.3881 24.0465 48.3417 24.0479C48.2954 24.0494 48.2512 24.0673 48.2169 24.0985C48.1198 24.1781 48.1897 24.2617 48.2344 24.3336C48.272 24.3905 48.3179 24.4415 48.3704 24.4851C48.9133 24.9494 49.3339 25.4982 49.5467 26.1907Z" fill="black"/>
<path d="M54.05 31.9022C54.1267 31.8818 54.1393 31.8128 54.1306 31.7166C54.0442 31.1834 53.9917 30.6181 53.7615 30.0936C53.7122 29.9927 53.6561 29.8953 53.5935 29.8022C53.5823 29.7825 53.567 29.7655 53.5487 29.7522C53.5304 29.7389 53.5095 29.7296 53.4874 29.725C53.4652 29.7204 53.4424 29.7206 53.4203 29.7255C53.3982 29.7304 53.3775 29.74 53.3594 29.7536C53.3384 29.7625 53.3195 29.7756 53.304 29.7923C53.2884 29.8089 53.2765 29.8286 53.2691 29.8502C53.2617 29.8717 53.2589 29.8946 53.2609 29.9173C53.2629 29.9399 53.2696 29.962 53.2807 29.9819C53.4694 30.2899 53.6099 30.625 53.6974 30.9755C53.7615 31.2378 53.8091 31.5029 53.8664 31.7662C53.8849 31.8594 53.9373 31.9362 54.05 31.9022Z" fill="black"/>
<path d="M52.7653 29.0055C52.6419 28.7141 52.5049 28.4343 52.3767 28.1497C52.3194 28.0264 52.2582 27.8758 52.0912 27.9555C51.9484 28.0196 51.9639 28.176 51.9863 28.3129L51.9736 28.3003C51.9901 28.3314 52.0057 28.3634 52.0222 28.3974C52.0163 28.4019 52.0111 28.4071 52.0067 28.413C52.0032 28.3738 51.9916 28.3357 51.9727 28.3013C51.7658 28.1361 51.5647 27.9633 51.3491 27.8098C51.3099 27.7855 51.2631 27.7767 51.2178 27.7851C51.1725 27.7936 51.132 27.8186 51.1043 27.8554C51.0883 27.8717 51.0759 27.8911 51.0678 27.9124C51.0597 27.9336 51.0562 27.9564 51.0574 27.9791C51.0585 28.0019 51.0644 28.0241 51.0747 28.0445C51.085 28.0648 51.0993 28.0828 51.1169 28.0973C51.5723 28.4773 51.8976 28.9901 52.0475 29.564C52.0504 29.5805 52.0571 29.596 52.0669 29.6095C52.0768 29.623 52.0896 29.6341 52.1045 29.6419C52.1193 29.6496 52.1356 29.6539 52.1524 29.6544C52.1691 29.6549 52.1857 29.6515 52.2009 29.6446C52.2581 29.6119 52.3013 29.5594 52.3223 29.497C52.3942 29.2736 52.1611 29.0851 52.2349 28.8569C52.2037 28.8421 52.1772 28.8191 52.1582 28.7904C52.1392 28.7616 52.1284 28.7281 52.1271 28.6937C52.1369 28.7015 52.1477 28.708 52.1591 28.7131L52.1815 28.7209C52.197 28.7265 52.2136 28.7289 52.2301 28.7277C52.2462 28.7681 52.2564 28.8106 52.2602 28.854C52.3952 28.9064 52.4029 29.0482 52.4612 29.1551C52.5098 29.2425 52.537 29.3998 52.6866 29.3105C52.7343 29.2777 52.7685 29.2288 52.783 29.1727C52.7974 29.1166 52.7911 29.0573 52.7653 29.0055V29.0055Z" fill="black"/>
</g>
<defs>
<clipPath id="clip0">
<rect width="73.82" height="69.89" fill="white"/>
</clipPath>
</defs>
</svg>
