<svg xmlns="http://www.w3.org/2000/svg" viewBox="0 0 62.07 63.16" width="90" height="90"><g id="Layer_2" data-name="Layer 2"><g id="Layer_1-2" data-name="Layer 1"><path d="M60.74,47a6.51,6.51,0,0,0-3-2.46,2.44,2.44,0,0,1-1.48-1.29c-.25-.54-.34-.93.12-1.19s.5-.6.69-.93.51-.88.74-1.32c1-2,2-4.06,1.85-6.41a.81.81,0,0,1,.19-.66,18.37,18.37,0,0,0,1.7-2.62,2.87,2.87,0,0,0,.36-2.6A6.52,6.52,0,0,0,60,24.6a4.87,4.87,0,0,1-1.67-3A3.45,3.45,0,0,0,56.58,19c-.32-.19-.61-.43-.93-.61a2.5,2.5,0,0,1-1.18-1.68,16.57,16.57,0,0,0-1.32-3.58,4.31,4.31,0,0,0-2.09-2.08A61.21,61.21,0,0,1,45.4,7.8a3.18,3.18,0,0,1-1.21-1.33,11.57,11.57,0,0,0-1.5-2.59,7.88,7.88,0,0,0-3.53-2.73C38.11.79,37,.54,36,.28A22.92,22.92,0,0,0,31.34.06a24.37,24.37,0,0,1-4.52,0,.36.36,0,0,0-.44.15c0,.36.22.35.46.37s.22,0,.19.15a.3.3,0,0,1-.2.18c-.19.05-.42.14-.56-.05s.1-.42.11-.65a37.33,37.33,0,0,0-3.79.91,10.51,10.51,0,0,0-4.94,3A30.86,30.86,0,0,1,14.9,7.12a1.78,1.78,0,0,0-.39.69,45.1,45.1,0,0,0-2.37,7.36,8.81,8.81,0,0,1-2.22,3.89,14,14,0,0,0-3,4.32,4.28,4.28,0,0,0,1.85,5.47c.15.08.31.23.43.06s-.05-.3-.11-.45c.3-.07.46.2.69.29s.21.1.26,0-.05-.19-.11-.24a9.43,9.43,0,0,0-1.25-1,2.45,2.45,0,0,1-1.21-1.78,4.38,4.38,0,0,1,.18-1.9,10.19,10.19,0,0,1,2.75-4.28,6.65,6.65,0,0,0,2-3,13.83,13.83,0,0,1,2.88-4.8c.21-.26.61-.76.78-.61s-.14.65-.25,1a.57.57,0,0,1-.16.26,9.09,9.09,0,0,0-1.77,2.56c-.39.7-.79,1.39-1.19,2.09,0,.09-.12.19,0,.26s.14-.1.19-.17.16-.22.24-.33c.53-.82,1.06-1.64,1.61-2.44.14-.2.26-.51.61-.33a1.1,1.1,0,0,0-.37.95,3.61,3.61,0,0,1-.27,1.38,11.63,11.63,0,0,1-2.27,4.33,8.12,8.12,0,0,0-.69.86,5.93,5.93,0,0,0-1.22,3.25c0,.18,0,.47.15.5s.12-.27.16-.42a7.35,7.35,0,0,1,1.88-3.71,7.93,7.93,0,0,0,1.23-1.83,19,19,0,0,1,.89-1.81,10.2,10.2,0,0,1-.1,2.81,10.2,10.2,0,0,1-1.2,2.54,11.28,11.28,0,0,0-1.2,2.53,4.23,4.23,0,0,0-.17,1.8c0,.14.09.25.25.23a.17.17,0,0,0,.12-.24A2.9,2.9,0,0,1,12.87,25c.62-1.42,1.61-2.64,2.16-4.1,0-.08.08-.21.21-.18s.08.15.07.23a7,7,0,0,1-.11.8,17.35,17.35,0,0,1-1.45,3.74,2.09,2.09,0,0,0-.24.9,10.43,10.43,0,0,0,1.41-2.58,3.07,3.07,0,0,1,.31-.63.94.94,0,0,1,.22-.15,1,1,0,0,1,0,.29,8.41,8.41,0,0,1-.67,1.9,17.72,17.72,0,0,0-1.11,2.38,7.86,7.86,0,0,0-.51,2.14.28.28,0,0,0,.11.25c.11.06.17-.06.19-.16a13.4,13.4,0,0,1,1.79-4.46,2,2,0,0,1,.16-.24.28.28,0,0,1,.06.34,14.08,14.08,0,0,1-1,2.43,8.56,8.56,0,0,0-.91,2.44,6.32,6.32,0,0,0,.26,4c0,.08.06.23.18.2s.07-.15,0-.24c-.09-.43-.2-.85-.27-1.28a8.12,8.12,0,0,1,.89-4.39c.11-.28.13-.7.55-.71.15,0,.25.9.14,1.15a.66.66,0,0,1-.14.15,2.32,2.32,0,0,0-.37.92A14.75,14.75,0,0,0,14.58,35,4.35,4.35,0,0,0,15,36.61c0,.08.16.22.2.21s.12-.2.08-.33A13,13,0,0,1,15,31.88a4.29,4.29,0,0,1,.33-1.37c0-.09.09-.17.13-.26a2.25,2.25,0,0,1,.08.24,4.56,4.56,0,0,1,.05,1.69,18.35,18.35,0,0,0,0,3.92.64.64,0,0,0,.15.37c.26.25.5.57.92.58.11,0,.13-.44.3-.06.09.21.29.43.15.66s-.32.11-.47,0c-.33-.17-.63-.38-1-.55a.29.29,0,0,0-.27.06.28.28,0,0,0,0,.26,1.47,1.47,0,0,0,1.56.67c.22-.05.38-.1.5.13.41.75.78,1.51.13,2.32a3.13,3.13,0,0,0-.21.34,41.78,41.78,0,0,0-3.24,7.27,3.12,3.12,0,0,1-1.51,1.9,23.61,23.61,0,0,1-3.58,1.64,12.1,12.1,0,0,0-2.94,1.53c-.46.34-1,.59-1.47.9-1.64,1-3.37,2-4.5,3.66,0,0-.12,0-.18,0a.89.89,0,0,0,.7-.26,9.43,9.43,0,0,1,1.07-.92A63.37,63.37,0,0,1,7.4,53.14,22.75,22.75,0,0,1,10.08,52a.34.34,0,0,1,.28,0c.15.09.08.23,0,.36-.45,1.16-.91,2.31-1.34,3.47a11.86,11.86,0,0,0-.79,2.81,1,1,0,0,0,.06.28l.13-.26c.39-1.14.77-2.29,1.19-3.42a15,15,0,0,1,1.54-3.39,1.53,1.53,0,0,1,.75-.63c.22-.08.33,0,.3.22s-.07.19-.1.28L9.78,58.24a2.59,2.59,0,0,0-.21,1.81.44.44,0,0,1,0-.16c.89-3.11,2.28-6,3.38-9.07,0-.06.18-.15.21-.13s0,.18,0,.27a25.6,25.6,0,0,1-1.53,4.16c-.1.22-.29.51-.05.63.5.27.32.62.19.94-.26.63-.24,1.32-.48,2,0,.07,0,.17.08.26.07-.07.17-.13.2-.21.25-.77.48-1.54.73-2.31.09-.28.17-.6.54-.66.12,0,.25-.15.36,0a.23.23,0,0,1,0,.27,4.33,4.33,0,0,0-.22.56q-.24.83-.45,1.65a.59.59,0,0,0,0,.29c.06-.06.15-.11.19-.19s.07-.25.12-.38a12.06,12.06,0,0,0,.61-2.13A.35.35,0,0,1,14,55.5c.23,0,.17.25.13.4s-.15.45-.22.68c-.32,1.09-.63,2.19-.94,3.29a.72.72,0,0,0,.05.28,1.59,1.59,0,0,0,.13-.22,35,35,0,0,1,1.47-4c.17-.34.26-1,.73-.8.31.11,0,.66-.11,1-.44,1.31-.74,2.65-1.07,4,0,.13-.07.34,0,.37s.16-.17.19-.29c.32-1.38.88-2.68,1.27-4a4.43,4.43,0,0,1,.67-1.34.28.28,0,0,1,.27-.07c.09,0,.08.13.05.24-.23,1.12-.41,2.25-.68,3.36-.14.56-.19,1.12-.32,1.68a1,1,0,0,0,0,.29c.15,0,.17-.17.2-.3s0-.13,0-.19c.44-1.56.88-3.11,1.3-4.67a1,1,0,0,1,1-.81c.39,0,.48,0,.36.45-.19.68-.43,1.35-.61,2-.32,1.13-.61,2.27-.9,3.41,0,.13,0,.31.13.35s.16-.16.19-.27c.37-1.67.92-3.3,1.44-4.93.41-1.3.48-1.34,1.87-1.25H21c.26,0,.25.17.17.34A18.45,18.45,0,0,0,20.3,58a.71.71,0,0,0,.09.33,37.43,37.43,0,0,0,1.13-3.74c.14-.45.23-.49.8-.32s.21.41.11.62a24.47,24.47,0,0,0-1.55,6.54,3.05,3.05,0,0,0,0,1.72,13.35,13.35,0,0,0,.27-1.66,21.18,21.18,0,0,1,1.32-5.67,4.83,4.83,0,0,1,.68-1.24.43.43,0,0,1,.54-.13.4.4,0,0,1,.27.38,5.51,5.51,0,0,0,.05.81c.05.3.31.42.49.18.48-.67,1.27-.87,1.88-1.34a2.71,2.71,0,0,1,1.89-.44,1.21,1.21,0,0,1,1.22,1c.06.22.14.45.2.67a12.31,12.31,0,0,1,.29,3.2,19,19,0,0,0,.08,2.82c0,.1,0,.22.11.24a.54.54,0,0,0,.08-.24,39.53,39.53,0,0,0-.07-6.25c0-.26-.24-.58,0-.76s.5.07.73.18c1.65.78,3.14,1.82,4.71,2.73a4.12,4.12,0,0,1,1,.94,11.52,11.52,0,0,0,1.2,1.22c.78.71.87.7,1.56-.14.11-.13.21-.26.31-.4a11.56,11.56,0,0,1,1.66-1.62.29.29,0,0,1,.5.06,4.71,4.71,0,0,1,.33.63l.95,2.1c.06.13.1.39.32.27s.05-.29,0-.44c-.37-.86-.75-1.72-1.13-2.58A1.62,1.62,0,0,1,42.2,57a.43.43,0,0,1,.28-.39c.2-.07.31.08.38.24.39,1,1.19,1.71,1.5,2.73a2.11,2.11,0,0,0,.24.44.21.21,0,0,0,.17.07.16.16,0,0,0,.14-.21,1.57,1.57,0,0,0-.27-.64c-.57-.84-.92-1.8-1.4-2.68a.68.68,0,0,1,.18-1,20.61,20.61,0,0,0,2.68-3c.26-.34.43-.33.71,0a6.55,6.55,0,0,1,.91,1.58,14.64,14.64,0,0,1,.8,2.06c0,.14.14.27.27.21s.12-.23.06-.36c-.48-1.18-.9-2.38-1.48-3.53-.14-.28-.63-.66-.23-.9s.51.41.73.68a10.47,10.47,0,0,1,1.45,2.87c0,.13.11.25.27.17s.06-.17,0-.27a8.87,8.87,0,0,0-1.31-2.82,1.85,1.85,0,0,1,.23-2.72l.06-.08a31.11,31.11,0,0,0,4.22-6.85c.47-1.08.72-1.12,1.63-.34a3.64,3.64,0,0,1,.43.54,28.22,28.22,0,0,0,2.43,2.69c.41.37.49.34.8-.22h0v0a8.76,8.76,0,0,1,2.52,2.37c.33.47.7.9,1.06,1.35.06.08.14.18.22.13s0-.17,0-.26A10.2,10.2,0,0,0,60.74,47ZM56.46,19.78a.33.33,0,0,1,.18.08,2.7,2.7,0,0,1,1,1.49c.06.22.17.59,0,.65s-.27-.31-.34-.5a8.85,8.85,0,0,0-.7-1.33c0-.09-.11-.17-.14-.22S56.38,19.78,56.46,19.78ZM38.18,1.47a2.19,2.19,0,0,1-1.41-.3C37.3,1,37.72,1.33,38.18,1.47ZM34.56.61a4.25,4.25,0,0,1,2.07.53A10.93,10.93,0,0,0,34.57.9c-.08,0-.22,0-.21-.14S34.47.61,34.56.61ZM29.65.74c1.31,0,2.66-.3,3.9.41h0A31.86,31.86,0,0,0,29.79,1c-.13,0-.28,0-.29-.17S29.6.74,29.65.74Zm-7.14,1c.3,0,.19.27.17.45,0,0,0,.05,0,.08l-.14-.1c-.14-.09-.44,0-.43-.24S22.35,1.7,22.51,1.72ZM22,2.54c.13,0,.32.07.24.22s-.12.6-.48.51c-.2,0-.48-.07-.59-.3S21.62,2.55,22,2.54ZM21,3.61s.09,0,.09.06,0,.15,0,.17c-.69.36-1,1.18-1.8,1.42-.1,0-.21,0-.25-.07A.21.21,0,0,1,19,5,5.45,5.45,0,0,1,20.68,3.7Zm-5.9,4.77A7.82,7.82,0,0,1,16.61,6a24.25,24.25,0,0,1,2.74-2.81A4,4,0,0,1,20,2.79c.06,0,.18,0,.27,0a.67.67,0,0,1-.08.17,2,2,0,0,1-.27.3c-1,.79-1.56,1.92-2.45,2.78-.65.63-1.19,1.36-1.78,2.05a2.13,2.13,0,0,0-.63,1C14.89,8.88,15,8.65,15.06,8.38Zm-1.18,4.26c-.06.07-.19.17-.24.15s-.08-.21-.1-.38A7.52,7.52,0,0,1,14.71,10,17.78,17.78,0,0,1,18.4,6.18c.07,0,.21-.11.26-.08s0,.24,0,.35a1,1,0,0,1-.25.31,8,8,0,0,0-1.75,2.3C15.74,10.27,14.8,11.45,13.88,12.64Zm3.75,23.74c-.14-.34,0-.54.31-.71a6.55,6.55,0,0,1,2.45-.51,4.38,4.38,0,0,0,3.25-1.78c.31-.41.35-.39.57,0,.05.09.08.18.13.27.13.25.17.43-.2.5s-.65,0-.61.34.46.29.73.22a2.16,2.16,0,0,1,2.3.62c.18.19.73.08.63.33s-.59.11-.86,0a1.68,1.68,0,0,0-1.36.17,1.71,1.71,0,0,1-2.07-.14c-.69-.57-1.46-.37-2.22-.41a.28.28,0,0,0-.31.31c0,.18.09.34.29.35s.4,0,.6,0,.43.11.34.42A1.51,1.51,0,0,0,22.29,38a1.42,1.42,0,0,1,.65,1c0,.49.63.59.71,1,0,.09.23.1.26,0,.15-.32.49-.13.66-.26s0-.44,0-.67,0-.2,0-.3.07-.14.14-.11a.25.25,0,0,1,.12.13.67.67,0,0,1,0,.2c0,.29-.17.8.12.8.52,0,.16-.51.23-.79a.65.65,0,0,1,.39-.53,3.06,3.06,0,0,0,.95-.73.25.25,0,0,0,0-.36.19.19,0,0,0-.28,0c-.9,1-2.11.4-3.16.59-.68.13-1.23-1-.93-1.66.07-.16.17-.2.31-.14s.42.22.64.29a2.35,2.35,0,0,0,2,0,1.6,1.6,0,0,1,1.07-.17,2.16,2.16,0,0,0,1.1,0,4.29,4.29,0,0,1,2.19-.08A6.41,6.41,0,0,0,31.59,36c.17,0,.32-.14.28-.35s-.2-.22-.38-.2a3.94,3.94,0,0,1-3.77-1.66,4.23,4.23,0,0,0-4.55-1.59,4.12,4.12,0,0,1-1,0,1.53,1.53,0,0,0-1.56,1.34,13.94,13.94,0,0,0-1.72,1c-.18.09-.35.21-.53.29-1,.44-1.06.4-1.51-.65a8.65,8.65,0,0,1-.62-3,29,29,0,0,1-.14-5.43c.08-.53.15-1.07.26-1.59A7.59,7.59,0,0,0,16,20.14c-.11-.33,0-.39.27-.47,1-.27,1.93-.57,2.9-.86a3,3,0,0,1,2,.33c.25.1.49.23.74.32a.3.3,0,0,0,.25-.11c.07-.09,0-.18-.11-.24a9,9,0,0,0-1.64-.76,6.06,6.06,0,0,0-4-.05,1.69,1.69,0,0,0-.36.17c-.55.36-.56.37-.67-.22a9.16,9.16,0,0,1,.23-4c.28-1.07.74-2.09,1.07-3.15a11.93,11.93,0,0,1,3.5-5.22c.62-.57,1.18-1.21,1.85-1.72a11,11,0,0,1,5.09-2l2-.28a16.72,16.72,0,0,1,4.24-.08,4,4,0,0,1,2.31,1.09A21.38,21.38,0,0,1,38,4.9,7.71,7.71,0,0,1,39,6.48c.49,1,1,2,1.45,3a9.54,9.54,0,0,1,1,3.57c.08.93,0,1.88,0,2.82,0,.12-.06.32-.13.34s-.26-.14-.33-.28a1.18,1.18,0,0,1,0-.2c0-.1-.1-.18-.21-.12a.22.22,0,0,0-.07.17,2.44,2.44,0,0,0,.38.93A5.28,5.28,0,0,1,41.93,20h0s0,0,0,0l-.16,0a4.45,4.45,0,0,1,.41,1.28,3.32,3.32,0,0,1-1.57-2c0-.08,0-.23-.18-.19s-.12.16-.09.25a5.12,5.12,0,0,0,.25.65c.19.35.4.7.61,1a10.41,10.41,0,0,1,1.45,4.3c-.3-.07-.35-.35-.42-.58-.14-.52-.28-1-.39-1.56s-.13-.81-.71-.94c-.37-.09-.46-.63-.66-1-.57-1-.73-1.14-.77-1-.11.48.3.77.5,1.13a11.81,11.81,0,0,1,1,1.83c0,.15.21.33.06.46s-.31-.15-.5-.15a2.5,2.5,0,0,0,.38,1.31A17.21,17.21,0,0,1,42,27.41a1.28,1.28,0,0,1,0,.39c-.09-.09-.23-.16-.27-.27a23,23,0,0,0-2.12-3.86l-.19-.36a.14.14,0,0,0-.24,0,.23.23,0,0,0,0,.18c.21.34.45.67.66,1a4.89,4.89,0,0,1,1,2.75l-.13,0a1.11,1.11,0,0,0,.13.64c0,.13.08.28-.06.35s-.24,0-.35-.1a.44.44,0,0,0-.17-.07c-.15.17-.23.54-.54.11-.14-.21-.26-.69-.45-.55s.13.49.25.73.39.63.57.95c.08.13.24.32,0,.41s-.44.27-.63,0-.27-.46-.4-.69-.15-.29-.28-.24-.05.22,0,.35c.28.46.54.92.82,1.38a10.22,10.22,0,0,1,1.28,3.37c.16.86.38,1.71.61,2.55a1.13,1.13,0,0,1,.05.77c0,.1-.08.19-.2.17s-.07-.1-.08-.16c-.37-1.55-.73-3.11-1.12-4.67-.11-.46-.15-1-.82-1.09h0c0-.17.22-.4-.09-.51l.09.51h0c.29,1.72,1.12,3.32,1.24,5.08,0,.12.06.31-.1.33s-.16-.17-.19-.3c-.28-1.1-.56-2.19-.83-3.29-.06-.27-.14-.44-.45-.37-.6.14-.75.29-.67.7.05.22.09.45.13.67-.77-.16-1,0-.84.76a12,12,0,0,1,.31,2.6,1,1,0,0,1,0,.3c-.1.31.07.67-.18,1-.25-.27-.12-.61-.14-.91-.05-.54,0-1.08,0-1.62,0-.2-.09-.41-.36-.37s-.25.21-.24.38A4.17,4.17,0,0,0,37,37c.08.35.28.67-.33.8-.29.06-.39.5-.31.78.26.86-.46,1.5-.45,2.29,0,0-.08.09-.12.13a.45.45,0,0,1-.07-.18,10.87,10.87,0,0,1,0-1.51,8.44,8.44,0,0,0,.05-1,.25.25,0,0,0-.23-.28.29.29,0,0,0-.34.28,4.21,4.21,0,0,0,0,.5c0,1.21,0,2.42,0,3.63a1.48,1.48,0,0,1-.07.6c-.11.24,0,.73-.35.67s-.29-.59-.18-.8c.39-.77,0-1.48,0-2.22,0-.43,0-.87.06-1.31,0-.26.28-.71-.18-.73s-.34.46-.34.77c0,.77,0,1.55,0,2.32a2.6,2.6,0,0,1-.3,1.26c0,.11-.08.29-.25.27s-.19-.2-.16-.32c.18-.72-.13-1.45,0-2.17a1.5,1.5,0,0,0,0-.3.21.21,0,0,0-.19-.2.18.18,0,0,0-.22.15,4.82,4.82,0,0,0-.08,1.2,1.83,1.83,0,0,1-.16,1.08c0,.08-.14.14-.2.2a.77.77,0,0,1-.11-.27c0-.33,0-.67,0-1s0-.47,0-.71a.28.28,0,0,0-.36-.25A.24.24,0,0,0,32,41a16.25,16.25,0,0,1,0,2.61c0,.53,0,1.07,0,1.61,0,.2,0,.39-.25.47,0-1.34,0-2.67.05-4,0-.25.1-.65-.26-.66s-.22.39-.23.62,0,.61.07.91A4,4,0,0,1,31,44.45c0,.09-.09.19-.2.15s-.08-.11-.1-.17a7,7,0,0,1-.19-1.7c0-.27,0-.54,0-.81s-.11-.15-.22-.15a.18.18,0,0,0-.2.17c0,.44,0,.87,0,1.31.12,1.18,0,2.36.07,3.53a1.12,1.12,0,0,1-.08.49.34.34,0,0,1-.41.21c-.17,0-.16-.2-.15-.32.06-1.45-.17-2.89-.06-4.33a1,1,0,0,0,0-.3.26.26,0,0,0-.15-.12.16.16,0,0,0-.24.1,3.14,3.14,0,0,0-.09,1.1c0,1.27.09,2.54.13,3.8,0,.09,0,.21-.15.22a.22.22,0,0,1-.25-.24l.09-2.52c0-.16.05-.43-.11-.44s-.29.25-.3.44c0,.47,0,1,0,1.42s0,.87,0,1.3a.68.68,0,0,1-.88.58.27.27,0,0,1-.23-.29c0-.15.07-.26.24-.24s.37.06.35-.27a23.21,23.21,0,0,1,.05-3.12,1.34,1.34,0,0,0,0-.4.21.21,0,0,0-.18-.21c-.11,0-.2,0-.21.16s0,.47-.05.7l0,2.12a.2.2,0,0,1-.17.21c-.16,0-.24-.09-.24-.25l0-2c0-.21,0-.41,0-.61s0-.29-.18-.29-.24.2-.24.35,0,.4,0,.6c0,1.08,0,2.16,0,3.24,0,.08-.09.23-.13.23s-.13-.11-.14-.21c-.06-1.45-.31-2.88-.23-4.33a1.42,1.42,0,0,0,0-.29.26.26,0,0,0-.29-.22.23.23,0,0,0-.21.29c0,.4.12.79.15,1.19s.14.6-.37.63c-.35,0-.21.38-.15.58a5.8,5.8,0,0,1,.12,1.9c0,.13,0,.29-.19.32a.35.35,0,0,1-.4-.23,1.56,1.56,0,0,1-.12-1c.08-.74.17-1.47.25-2.21,0-.17,0-.37-.18-.4s-.29.15-.32.32-.1.59-.14.89,0,.47-.07.71a.28.28,0,0,1-.35.26c-.17,0-.18-.17-.17-.31.09-.8.21-1.61.27-2.41,0-.34.27-.93-.14-1s-.37.6-.41,1a6.17,6.17,0,0,0-.1,1.3,1.17,1.17,0,0,1-.22.86c-.06.07-.1.2-.2.16s-.09-.17-.1-.26a10,10,0,0,1,.16-1.81q.07-.6.12-1.2c0-.15,0-.28-.19-.31s-.3.14-.31.3c-.07.8-.11,1.61-.19,2.41,0,.24.09.69-.15.69s-.32-.44-.33-.73a13.86,13.86,0,0,1,.2-3c.07-.32.3-.84-.18-.9s-.31.5-.33.82c0,.67-.05,1.34-.08,2,0,.15,0,.28-.2.3s-.2-.16-.24-.28a2.54,2.54,0,0,1-.06-1.1c.08-.6.18-1.19.29-1.79a2.16,2.16,0,0,0,.05-.8c0-.08,0-.22-.16-.19a.45.45,0,0,0-.26.12c-.21.33-.12.72-.2,1.07s.14.8-.16,1.14c-.39-.34,0-.72,0-1.09a8.83,8.83,0,0,1,.21-2.4c.08-.31.06-.57-.39-.41-.15.05-.15-.07-.16-.16a.43.43,0,0,1,0-.19c.1-.31.33-.85.06-.89-.45-.08-.43.5-.47.83a9.32,9.32,0,0,1-.26,1.38c0,.12,0,.33-.12.34s-.09-.2-.09-.31a8.51,8.51,0,0,1,.18-2.71,1.07,1.07,0,0,0,0-.4c0-.09,0-.2-.17-.2a.25.25,0,0,0-.24.14,3.28,3.28,0,0,0-.19,1c0,.06-.06.1-.1.15s-.09-.11-.09-.17c0-.33.06-.67.09-1a.29.29,0,0,0-.28-.34c-.14,0-.23.1-.25.25a.34.34,0,0,1,0,.1c-.09.24.11.67-.12.71S17.72,36.61,17.63,36.38Zm4.26-3.45c-.45.44-.74,1.1-1.48,1.15l.21-.61c.52,0,.66-.47,1-.68.09-.06.18-.09.26,0A.14.14,0,0,1,21.89,32.93Zm.82.11c.07,0,.21-.1.25,0a.32.32,0,0,1-.07.26,2.57,2.57,0,0,1-1.42,1A3.25,3.25,0,0,1,22.71,33Zm2.92,0s0-.11-.06-.17l.21-.05a2.7,2.7,0,0,1,1.1.8c0,.06.05.13.08.19.14.33.54.49.61.87a2.1,2.1,0,0,1-1-.69C26.22,33.69,25.93,33.37,25.63,33.05Zm.75,1.31a.56.56,0,0,1-.64.06,2.67,2.67,0,0,1-1-1.05c-.09-.18-.24-.45-.09-.54s.22.22.35.33A7.66,7.66,0,0,0,26.38,34.36ZM45.74,19.15a2.56,2.56,0,0,0,.34,1.35,5.6,5.6,0,0,1,.59,1.43,3,3,0,0,1-.92-1.45,17.13,17.13,0,0,1-1.44-6c-.05-.57-.19-1.12-.27-1.69,0-.3-.11-.52-.5-.42s-.28-.18-.33-.37c-.19-.71-.39-1.41-.58-2.12a.94.94,0,0,0-.31-.51h0v0c.29-.16.42.05.54.26.4.73.86,1.44,1.19,2.2a20.51,20.51,0,0,1,1.21,3.28c.25,1.07.58,2.12.88,3.17.05.18.05.4.28.49C45.77,18.57,45.78,18.57,45.74,19.15Zm.7-.38a5,5,0,0,0,1,2.45h0a0,0,0,0,1,0,0h-.06c-.05,0-.11,0-.13,0A2.5,2.5,0,0,1,46.44,18.77Zm-1.39,3.15c-.16-.26-.45-.48-.31-.84h0a0,0,0,0,1,0,0c.48.78,1.12,1.45,1.58,2.27a13.55,13.55,0,0,1,1.54,4,8.23,8.23,0,0,1,.41,1.55.72.72,0,0,1,0,.27c-.18,0-.14-.16-.17-.26-.24-.8-.48-1.61-.72-2.4A19.62,19.62,0,0,0,45.05,21.92Zm1.35,7.36a.29.29,0,0,1-.26.34c-.1,0-.19,0-.18-.14s0-.42.31-.43C46.31,29.05,46.39,29.2,46.4,29.28Zm-1.17,2.64c0,.13,0,.27-.06.4s-.05.2-.18.18-.11-.13-.12-.22l0-.4c0-.25-.14-.69.12-.69S45.18,31.65,45.23,31.92Zm-.89-1.17c-.21.2-.36.31-.65,0s-.46-.32-.66.28c-.05.15-.14.29-.25.27s-.26-.34-.17-.41c.61-.48,0-1.33.59-1.83,0-.05,0-.26-.05-.39-.07-.29-.15-.58-.21-.88a1.93,1.93,0,0,1-.09-1.09c.35.18.39.55.51.87,0,.11.11.27.29.18a.34.34,0,0,0,.16-.43c-.21-.81-.43-1.62-.65-2.43,0-.12-.11-.24,0-.34a2.07,2.07,0,0,1,.17.24,9.16,9.16,0,0,1,.4,1.45c.1.43.23.44.55.13s.61-.37.33-.74a2.36,2.36,0,0,1,0-.27c0-.09,0-.21.13-.22a.2.2,0,0,1,.15.1,12.43,12.43,0,0,1,.91,2c.13.45-.19.95-.28,1.43A4.09,4.09,0,0,1,44.34,30.75Zm-.18,1.9c-.24,0-.15-.29-.17-.5a1.23,1.23,0,0,1,0-.26s.1-.05.15-.07.06,0,.06.05a.94.94,0,0,1,.06.28C44.28,32.33,44.31,32.65,44.16,32.65Zm-1.28-.58a.21.21,0,0,1,0-.18c.11-.06.16,0,.18.13a1.53,1.53,0,0,1,0,.3,3.26,3.26,0,0,0,.18.93c-.29-.26-.17-.61-.18-.93A.24.24,0,0,1,42.88,32.07Zm.16-9c0,.08,0,.25-.06.27s-.14-.08-.17-.16a6.83,6.83,0,0,1-.55-1.82A5.2,5.2,0,0,1,43,23.1Zm-.7-8.6c0-.07.08-.1.16-.07s.09.09.1.15,0,.33.08.48.28.59,0,.9a1.79,1.79,0,0,1-.41-.88A.78.78,0,0,1,42.34,14.5Zm.81,6.74a.21.21,0,0,1,.16,0,1.86,1.86,0,0,1,.56.86.47.47,0,0,1-.22.37c-.18.1-.22-.07-.29-.17a.38.38,0,0,1,0-.19C43.3,21.8,43,21.56,43.15,21.24Zm.72-2.84a9.64,9.64,0,0,1-.26-1.06c0-.22.15-.27.26-.38s.18,0,.21.12A23.47,23.47,0,0,0,45,20a.19.19,0,0,1,0,.18c-.09.11-.18,0-.23,0A4.56,4.56,0,0,1,43.87,18.4ZM44,23.66c0,.09-.08.1-.16,0a.54.54,0,0,1-.18-.54c0-.05.06-.08.09-.12S44.1,23.51,44,23.66ZM42.81,12.4c.22.81.32,1.65.48,2.51l-.1.24C43.13,15.09,43,15,43,15c-.08-.39-.13-.79-.22-1.19a27.12,27.12,0,0,0-1.74-5c-.08-.17-.29-.42-.09-.54s.3.2.41.36A12.08,12.08,0,0,1,42.81,12.4ZM42,8c-.16.14-.3,0-.42-.1s-.23-.25-.33-.39a6.72,6.72,0,0,0-1.15-1.11,6.47,6.47,0,0,1-1.79-2.2c1.23,1,2.36,2.17,3.49,3.3,0,0,.09.1.13.16S42.16,7.83,42,8Zm-.56,24.58c.27.9.46,1.81.66,2.6,0,.22,0,.32,0,.42a.22.22,0,0,1-.16.22c-.13,0-.19-.07-.22-.15a5.31,5.31,0,0,1-.2-.68,41,41,0,0,0-1-4.17c0-.08,0-.25,0-.27s.16.12.23.2A4.26,4.26,0,0,1,41.46,32.53ZM41.38,38c0,.27-.38.69-.53.62a.18.18,0,0,1-.11-.23c0-.3.12-.53.46-.53C41.31,37.82,41.39,37.83,41.38,38ZM37,42.29h0c.27-.17.33-.48.5-.73.06-.1.1-.3.25-.25.51.18.47-.21.51-.48s0-.74.08-1.1.22-.2.38-.18.27.1.21.26c-.31.9-.44,1.9-1.39,2.45A.51.51,0,0,1,37,42.29ZM37,39.77c-.13,0-.13-.14-.13-.23,0-.3,0-.59.07-.89,0-.09,0-.22.15-.2s.09.14.1.23v.4h0a4.1,4.1,0,0,1-.06.49C37.12,39.65,37,39.76,37,39.77Zm1.93-1.08c-.11-1-.26-1.92-.31-2.89,0-.51-.41-1-.15-1.53a10.34,10.34,0,0,1,1,3.61,1.18,1.18,0,0,1-.17.87,3.65,3.65,0,0,1-.24.31A1.37,1.37,0,0,1,38.91,38.69Zm-4.69,6.17a.57.57,0,0,1-.17.46.33.33,0,0,1-.37.07.34.34,0,0,1-.08-.27,1,1,0,0,1,.25-.54c.06-.07.13-.24.17-.23s.14.19.16.31A1.77,1.77,0,0,1,34.22,44.86Zm-1.2,0h0a1.33,1.33,0,0,1,0,.2c-.06.39.06.83-.34,1.11,0,0-.16,0-.18,0a1.73,1.73,0,0,1,0-1.08,5.58,5.58,0,0,1,.18-.58c0-.12.07-.3.24-.26s.07.23.08.35S33,44.8,33,44.9Zm-1.93,2c-.18.06-.38,0-.3-.2s-.11-1,.62-.53c.09,0,.16-.2.23-.35C31.72,46.56,31.64,46.71,31.09,46.86ZM19.93,40.73c0,.14-.09.31-.22.29s-.12-.21-.1-.33c.11-.57,0-1.2.46-1.67C19.86,39.57,20.07,40.17,19.93,40.73Zm3.83,13.19c-.18.26-.43,0-.63-.06a10.49,10.49,0,0,0-2.9-.26c-.43,0-.61-.38-.93-.39s-.38.53-.78.56-.52.15-.79.17a15.86,15.86,0,0,0-3.9.94,5.78,5.78,0,0,1-.69.17c-.23,0-.4,0-.34-.32l.1-.66c-.16-.69.28-1.3.5-2,.55-1.68,1.06-3.38,1.66-5A34.82,34.82,0,0,1,18,40.91c.06-.09.11-.18.17-.26s.27-.2.39,0a3.75,3.75,0,0,1,.28.65A31.7,31.7,0,0,0,21,45.93a7.52,7.52,0,0,0,1.31,1.89,3.74,3.74,0,0,1,1.08,2.11c.14.86.38,1.71.57,2.56a5.36,5.36,0,0,1,.1.7A1.14,1.14,0,0,1,23.76,53.92Zm.53-1.48A28.36,28.36,0,0,0,23.64,49c0-.13,0-.27.21-.24l.2,0a8,8,0,0,0,3.22.3c0,.06,0,.13,0,.16a16.49,16.49,0,0,0-2.5,3.27c-.05.08-.14.18-.21.19A.26.26,0,0,1,24.29,52.44Zm28.6-11c-.25.55-.46,1.12-.75,1.65a51,51,0,0,1-4.89,7.38,53.83,53.83,0,0,1-6.6,7.07c-.63.56-1.15,1.22-1.74,1.82-.23.24-.43.29-.65,0-.06-.08-.15-.13-.22-.21-2.2-2.53-5.16-3.93-8.12-5.29a3.75,3.75,0,0,0-3.93.28c-.11.08-.24.12-.36.19a3.07,3.07,0,0,1-1.07.53,2.29,2.29,0,0,1,.3-1.31,11.3,11.3,0,0,1,3.89-4.66,1.88,1.88,0,0,1,.45-.22A15.59,15.59,0,0,0,35.4,45a23,23,0,0,0,1.85-1.71c.27-.29.54-.72,1.07-.64a.22.22,0,0,0,.27-.22,2.21,2.21,0,0,1,.92-1.29,24.84,24.84,0,0,0,3.57-4.35c.77-1.07,1.29-2.27,2-3.37.08-.12.12-.3.35-.27,0,.65.57.1.85.38a36.88,36.88,0,0,1,3.24,3c.53.65,1,1.32,1.62,1.93a5.16,5.16,0,0,0,.77.78.92.92,0,0,1,.47.85c0,.32,0,.56.4.68C53,40.89,53,41.21,52.89,41.45Zm-4.6-9.63c0-.09,0-.26.07-.26s.24.12.28.24a13.66,13.66,0,0,1,.67,2.68A.35.35,0,0,1,49,34.3,5.82,5.82,0,0,1,48.29,31.82Zm1.61,3.56c.09.16.34.35.13.6a5.3,5.3,0,0,1-.43-.38,1.33,1.33,0,0,1-.27-1.09C49.65,34.71,49.72,35.08,49.9,35.38ZM49.41,32c.51.22.58.77.87,1.15a1.34,1.34,0,0,1,.28.72c-.2.06-.31-.24-.51-.15s-.3,0-.37-.16A8.21,8.21,0,0,1,49.41,32Zm1.87,3.81a3.15,3.15,0,0,1-.7-1.9,8.69,8.69,0,0,1,.87,1.91C51.39,35.79,51.3,35.81,51.28,35.79Zm.17,0c.09.42.19.84.27,1.26a.65.65,0,0,1-.06.56c-.13-.13-.07-.31-.11-.47C51.46,36.71,51.23,36.28,51.45,35.81Zm2.77,4.57c-.21,0-.28-.17-.27-.35a18.2,18.2,0,0,0-.13-2.21,14.09,14.09,0,0,0-.39-2.59,1.4,1.4,0,0,1,.07-.88,1,1,0,0,0,.12.58A15.85,15.85,0,0,1,54.41,40C54.42,40.15,54.46,40.37,54.22,40.38Zm.38-3.63A15.17,15.17,0,0,0,53.91,34c0-.16,0-.35-.28-.32s-.25.22-.24.38a1,1,0,0,0,.11.27c-.4-.05-.4-.41-.48-.67a22.93,22.93,0,0,0-1.68-4,4.72,4.72,0,0,0-.51-.75.28.28,0,0,0-.27,0,.29.29,0,0,0-.12.25,3.4,3.4,0,0,0,.27.54,21.58,21.58,0,0,1,1.95,4.52,19.71,19.71,0,0,1,.79,5.06c0,.15.09.37-.15.39s-.22-.12-.31-.21a1.09,1.09,0,0,1-.27-.83,12.65,12.65,0,0,0-1.21-5.37c-.13-.29-.19-.66-.64-.67-.19,0-.3-.15-.39-.29a9.54,9.54,0,0,1-1.36-2.68c-.07-.24-.21-.51,0-.78a.35.35,0,0,0-.18-.51c-.45-.2-.51-.6-.57-1A12,12,0,0,0,46.83,23a1.18,1.18,0,0,1-.13-1c.58.38.72,1.08,1.15,1.58q2,2.32,3.95,4.7a14.66,14.66,0,0,1,2.7,4.91,15.13,15.13,0,0,1,.37,3.6s0,.15-.09.16S54.61,36.84,54.6,36.75ZM55.24,41c0,.13,0,.3-.2.27a.29.29,0,0,1-.23-.29c0-.4,0-.8,0-1.2h0c0-.43,0-.86.06-1.29,0-.07.13-.14.19-.21.05.08.14.15.15.24A13.69,13.69,0,0,1,55.24,41Zm.48.81c-.25-.07,0-.38,0-.59a20.57,20.57,0,0,0,0-3.33,14.41,14.41,0,0,0-.16-2.1A18.81,18.81,0,0,0,54.26,31a25.93,25.93,0,0,0-4-5.45c-.33-.36-.54-.84-1-1.05v0h0c.3-.12.51.06.73.22s.48.36.74.52.36.32.52.1-.1-.34-.26-.46a11.24,11.24,0,0,1-4-5.81C46.66,18,46.4,16.81,46,15.75c-.75-1.82-1-3.81-2.12-5.5-.31-.47-.22-1.08-.56-1.59a20.71,20.71,0,0,0-2.58-3.1c-.45-.45-.92-.88-1.38-1.32.23-.16.42,0,.61.12a12.58,12.58,0,0,1,3.83,4.4c.17.36.36.71.56,1.06.06.12,0,.38.28.23.08,0,.1-.18.14-.3h0v0a7,7,0,0,0,2.82,2.09,9.64,9.64,0,0,1,5,4.87c.11.22.18.65.41.58.4-.12,0-.43,0-.66s0-.33,0-.5c-.48-.4-.58-1-1-1.5A10.93,10.93,0,0,0,47.34,11a4.45,4.45,0,0,1-2-1.5c-.2-.25-.34-.58-.8-.36-.26.13-.29-.2-.35-.37a11.9,11.9,0,0,0-4.11-5,1.24,1.24,0,0,0-.89-.41,1.8,1.8,0,0,1-1.52-.59,1.29,1.29,0,0,0-1-.44c-.39,0-.66-.3-1-.51a1,1,0,0,1-.15-.24,1,1,0,0,1,.29,0c1.79.46,3.62.81,5,2.17.07.06.14.16.23,0s0-.18,0-.27A4.23,4.23,0,0,0,39,2c-.27-.14-.66-.1-.78-.49a1.72,1.72,0,0,1,1,.21,7.36,7.36,0,0,1,3.24,2.91c.39.74.81,1.47,1.15,2.23A3.52,3.52,0,0,0,45,8.46a22.43,22.43,0,0,0,3.22,1.86A8.24,8.24,0,0,1,53,16.05c.47.69.93,1.39,1.39,2.08.19.28.4.56-.06.8-.13.07-.12.23,0,.33a1,1,0,0,0,.26.15,3.76,3.76,0,0,1,2.25,2.68,9.5,9.5,0,0,1,.65,3.25c0,.13.06.17.17.16s.11-.06.11-.14c0-.44,0-.88,0-1.32,0-.06,0-.17.06-.18s.18.07.18.17c0,.43.3.61.64.8a11.7,11.7,0,0,1,1.49,1,2.77,2.77,0,0,1,.92,2.73c0,.08-.07.21-.14.23s-.25-.11-.26-.22A5.12,5.12,0,0,0,60,26.73a1.53,1.53,0,0,0-.7-.7c-.16-.08-.34-.1-.44.08s0,.25.12.35a5.13,5.13,0,0,1,1.53,3.62c0,.16.11.35,0,.48S60.23,31,60,31s-.16-.33-.18-.52a12.7,12.7,0,0,0-.38-2.38,3.66,3.66,0,0,0-.85-1.48c-.16-.17-.37-.36-.6-.13s0,.36.13.51a3.7,3.7,0,0,1,.79,1.28.76.76,0,0,1,0,.36c-.39-.17-.5-.58-.76-.86a2.4,2.4,0,0,0-.84-.71.31.31,0,0,0-.37.06c-.1.13,0,.25,0,.36s0,.07.06.08c1.45,1,1.74,2.47,1.87,4.05a14.29,14.29,0,0,1-.33,5.17c-.08.25-.22.73-.32.68-.31-.17,0-.5,0-.77a8.92,8.92,0,0,0-.55-3.76,3.92,3.92,0,0,0-.29-.53.3.3,0,0,0-.42-.14c-.2.11-.15.28-.06.43,1.16,2.1.9,4.29.38,6.49a.9.9,0,0,1-.08.28c0,.08-.14.18-.21.18s-.12-.13-.12-.22c0-.61,0-1.21,0-1.82a1.6,1.6,0,0,0-.14-.78.2.2,0,0,0-.17-.09s-.13.06-.13.1c0,.33-.07.67-.08,1a10.82,10.82,0,0,1-.2,3.11c0,.1,0,.2-.05.3S55.88,41.83,55.72,41.79Z"/><path d="M11,28.67c-.11-.18-.29-.31-.5-.15s-.1.31,0,.45a4,4,0,0,1,.5,3.19c-.07.49-.08,1-.11,1.5A4,4,0,0,0,11.6,36a3.41,3.41,0,0,0,3.07,1.37c.08,0,.14-.12.21-.18s-.1-.1-.16-.11c-.79-.06-1.07-.49-1.05-1.26a5,5,0,0,0-.23-1.18c0-.1-.06-.19-.17-.21s-.21.16-.2.27c.08.53.21,1.06.25,1.59s-.26.29-.48.14h0s0,0,0,0,0,0,0,0a2.39,2.39,0,0,1-1.23-1.71,6.71,6.71,0,0,1,0-2.89A4.26,4.26,0,0,0,11,28.67Z"/><path d="M10.83,21.75c.3-.44.56-.9.84-1.36.05-.09.1-.21,0-.26a.35.35,0,0,0-.27.07,4.2,4.2,0,0,0-.9,1.19,7.44,7.44,0,0,0-1.18,3.24c.07.35.15.78.25,1.2,0,.07.14.12.21.17a.41.41,0,0,0,0-.19,4,4,0,0,1,0-1.58A9.35,9.35,0,0,1,10.83,21.75Z"/><path d="M50.42,49c-.06-.1-.13-.27-.3-.16a.3.3,0,0,0-.09.44,11.24,11.24,0,0,0,.89,1.35,14.39,14.39,0,0,1,2.36,3.83.66.66,0,0,0,.17.24s.12,0,.18,0l.07-.07a1.12,1.12,0,0,0-.2-.56A46,46,0,0,0,50.42,49Z"/><path d="M51.35,48c-.08-.11-.18-.24-.31-.17s-.11.25,0,.37a2.55,2.55,0,0,0,.35.6A20.79,20.79,0,0,1,54,53.1a3,3,0,0,0,.27.42s.11,0,.17,0,0,0,0-.09l-.11-.26A26.59,26.59,0,0,0,51.35,48Z"/><path d="M49.85,50.1c-.13-.19-.2-.71-.58-.45s.11.48.24.67a27,27,0,0,1,2.24,3.81,9,9,0,0,0,.57.94s.11,0,.17,0,0,0,.06-.07a.65.65,0,0,0,0-.2A39.35,39.35,0,0,0,49.85,50.1Z"/><path d="M52.22,47.22c-.12-.15-.24-.41-.45-.26s0,.37.11.53a2.07,2.07,0,0,0,.37.47,9.89,9.89,0,0,1,1.17,1.63c.37.71.8,1.4,1.22,2.09,0,.07.14.11.22.17l.07-.19c-.06-.14-.11-.31-.18-.46A19,19,0,0,0,52.22,47.22Z"/><path d="M48.89,50.73c-.13-.16-.23-.34-.43-.41a.19.19,0,0,0-.17.06.7.7,0,0,0-.12.2l.24.29a12.92,12.92,0,0,1,2.19,3.7,9.37,9.37,0,0,0,.44.9c.06.12.16.27.3.21s.09-.23,0-.35A27.16,27.16,0,0,0,48.89,50.73Z"/><path d="M20.27,54.58c-.13-.06-.25,0-.32.17a2.43,2.43,0,0,0-.26.54c-.37,1.49-.72,3-1.07,4.47a.34.34,0,0,0,0,.1c.05,0,.1.08.15.08s.12-.12.14-.21a44.53,44.53,0,0,1,1.41-4.79C20.38,54.81,20.39,54.64,20.27,54.58Z"/><path d="M12.84,35.77a15,15,0,0,1,.22-4.49c.07-.28.39-.75.15-.8-.44-.08-.48.47-.55.79a13.75,13.75,0,0,0-.09,4.57,1.89,1.89,0,0,0,.27.6A3,3,0,0,0,12.84,35.77Z"/><path d="M53.59,46.12s-.12,0-.17-.08-.16.07-.16.1a.5.5,0,0,0,.07.27A15.28,15.28,0,0,0,55.79,49s.14.08.17.06.08-.18,0-.26C55.18,47.92,54.39,47,53.59,46.12Z"/><path d="M44.22,55.78c0-.06-.13,0-.16,0A.49.49,0,0,0,44,56a12.46,12.46,0,0,0,1.5,2.6c0,.08.11.07.14,0l0-.09a.33.33,0,0,0,0-.1C45.31,57.47,44.65,56.69,44.22,55.78Z"/><path d="M45.15,55.93a.48.48,0,0,0-.08.18,3.09,3.09,0,0,0,.63,1.53.19.19,0,0,0,.25.06.23.23,0,0,0,.07-.17c-.23-.51-.46-1-.7-1.52C45.3,56,45.21,56,45.15,55.93Z"/><path d="M55.66,46.6A1.88,1.88,0,0,0,56,47.7a1.9,1.9,0,0,0,.3.4s.11,0,.16,0,0-.05.06-.08a3.29,3.29,0,0,0-.21-.55C56.12,47.19,56.1,46.74,55.66,46.6Z"/><path d="M26.76,29.12c-.35.1-.22.33-.1.55s.1.18.13.27a.84.84,0,0,1-.37,1c-.27.17-.47-.07-.68-.24a1.18,1.18,0,0,0-1.57-.14,2.08,2.08,0,0,1-2.15.22c-.7-.19-.8-.39-.63-1.09s.44-1.62.66-2.43a40.84,40.84,0,0,0,1.18-5.8A1.42,1.42,0,0,0,22.9,20c-.12-.11-.18-.29-.39-.13a.26.26,0,0,0-.08.35,1.53,1.53,0,0,1,.25,1.06c-.19,1.19-.3,2.41-.6,3.57-.35,1.4-.62,2.82-1.09,4.19a3.71,3.71,0,0,0-.18,1.09,1,1,0,0,0,.67,1,4.16,4.16,0,0,0,2.18.2,2.71,2.71,0,0,1,1.94.06,1.19,1.19,0,0,0,1.75-.69,2.43,2.43,0,0,0-.08-1.28A.39.39,0,0,0,26.76,29.12Z"/><path d="M30.23,21.76a1.36,1.36,0,0,0,1.27.84.88.88,0,0,0,1-.71c.13-.49.4-.37.67-.19s.46.38.7.55c.07.05.21.09.25,0a.42.42,0,0,0,0-.29c-.14-.3-.48-.34-.72-.52a3.5,3.5,0,0,0-3.85-.59.18.18,0,0,1-.09,0c-.06,0-.15,0-.18,0a.18.18,0,0,1,.1-.24,4.69,4.69,0,0,1,2.34-.44,1.88,1.88,0,0,1,1.51.84.16.16,0,0,0,.08.06c.06,0,.13.06.18.05a.19.19,0,0,0,.12-.24.91.91,0,0,0-.43-.64,2.64,2.64,0,0,0-1.67-.48,4.72,4.72,0,0,0-2.72.74.84.84,0,0,0-.56.78.63.63,0,0,1-.22.53.25.25,0,0,0,0,.36.3.3,0,0,0,.45-.05,3.57,3.57,0,0,1,.89-.65C29.94,21.14,30,21.14,30.23,21.76ZM31.42,21c.22,0,.29.11.33.29a.43.43,0,0,1-.29.55.21.21,0,0,1-.29-.18C31.14,21.35,31.1,21.07,31.42,21Z"/><path d="M29.58,18.92c1,0,2,0,3,.09a2.48,2.48,0,0,1,1.91,1,.28.28,0,0,0,.36.1.27.27,0,0,0,.12-.35c-.39-.65-.74-1.42-1.59-1.55s-2-.19-3.38-.3a8.13,8.13,0,0,0-1.89.69c-.3.12-.67.17-.86.48s-.57.46-.38.76.61.06.89-.07.58-.33.87-.5A1.75,1.75,0,0,1,29.58,18.92Z"/><path d="M18.46,21.7a1.11,1.11,0,0,0,1.6.56,1.09,1.09,0,0,0,.53-.59c.15-.46.39-.37.67-.14a1,1,0,0,0,.22.2c.14.08.3.23.45,0s0-.3-.15-.41c-1.13-.88-2.33-1.43-3.78-.72a1.75,1.75,0,0,1-.83.31c-.13.16-.44.26-.26.53s.36.12.54,0l.18-.09C18,21.18,18.25,21.21,18.46,21.7Zm1.18-.93c.15.07.39.1.39.33a.38.38,0,0,1-.33.41c-.33,0-.24-.32-.29-.51S19.45,20.76,19.64,20.77Z"/><path d="M17.16,21h0l0,0Z"/><path d="M23.35,28.75s.17-.19.21-.31a24,24,0,0,0,.85-3.94,13.22,13.22,0,0,1,.36-1.77c0-.15.16-.33-.07-.41a.36.36,0,0,0-.41.22,1.79,1.79,0,0,0-.2.67,17.31,17.31,0,0,1-.39,2.68c-.15.83-.3,1.65-.45,2.49C23.32,28.49,23.12,28.7,23.35,28.75Z"/><path d="M18.32,20c.93-.11,1.95-.49,2.71.47a.2.2,0,0,0,.33,0,.28.28,0,0,0,0-.28,2.27,2.27,0,0,0-1.88-.76,10.23,10.23,0,0,1-1.09.16,2.51,2.51,0,0,0-1.51.73c-.35.28-.24.49.32.64A1.3,1.3,0,0,1,18.32,20Z"/><path d="M39.23,16q-1.75-1.86-3.52-3.71c-.07-.08-.22-.2-.32,0s0,.24.1.35c.74.72,1.45,1.47,2.21,2.17.58.53,1,1.28,1.69,1.65A.56.56,0,0,0,39.23,16Z"/><path d="M36.4,11.72a32.4,32.4,0,0,1,3.17,3.75.61.61,0,0,0,.58.3,2,2,0,0,1-.6-.77,20.83,20.83,0,0,0-3-3.53c-.09-.09-.25-.24-.33-.15S36.3,11.61,36.4,11.72Z"/><path d="M35.21,15.7a21.28,21.28,0,0,1,3,3.77,4.05,4.05,0,0,1,.21.35c0,.07.1.08.14,0s0-.05,0-.1a1.88,1.88,0,0,1-.14-.24A18.94,18.94,0,0,0,36,16.1q-.34-.44-.72-.84c-.06-.07-.15-.14-.24,0a.18.18,0,0,0,0,.27A2.09,2.09,0,0,0,35.21,15.7Z"/><path d="M21.47,22.65c-.08-.16-.3,0-.44,0a2.29,2.29,0,0,1-2.38-.12,1.3,1.3,0,0,0-.46-.18.26.26,0,0,0-.33.14c-.05.12,0,.18.13.23a3.45,3.45,0,0,0,2,.67,2.58,2.58,0,0,0,1.24-.33C21.36,23,21.56,22.83,21.47,22.65Z"/><path d="M33.07,22.93a.18.18,0,0,0-.15-.09,1.21,1.21,0,0,0-.48.12,2.27,2.27,0,0,1-1.65.24,3.8,3.8,0,0,1-.58-.15c-.14,0-.28,0-.32.12s.1.24.22.29a4.31,4.31,0,0,0,1.33.24c.61.12,1.07-.35,1.6-.6A.2.2,0,0,0,33.07,22.93Z"/><path d="M37.42,16.25s.1,0,.16,0a9.68,9.68,0,0,0-2.14-2.33.19.19,0,0,0-.27,0c-.08.1,0,.18.08.24C36,14.86,36.69,15.56,37.42,16.25Z"/><path d="M39,11c0,.05.1.07.15.11s.08-.22,0-.28a11.44,11.44,0,0,0-1.85-2.08s-.12,0-.19-.06-.08.24,0,.35A16.24,16.24,0,0,1,39,11Z"/><path d="M37.43,11c.19.19.39.37.59.55a.67.67,0,0,0,.71.16c-.45-.19-.67-.62-1-.93-.18-.17-.41-.55-.62-.35S37.26,10.85,37.43,11Z"/><path d="M38.67,12.25c.21.34.43.68.66,1,.08.12.1.42.28.32s0-.35-.07-.5c-.24-.46-.53-.9-.8-1.35A.37.37,0,0,0,38.67,12.25Z"/><path d="M39.23,26c-.19.35.06.63.2.89A3,3,0,0,0,40.2,28c0-.5-.43-.79-.57-1.22A2.31,2.31,0,0,0,39.23,26Z"/><path d="M39.72,21.81c-.1.08,0,.18,0,.25.4.46.55,1.1,1.06,1.48a5.28,5.28,0,0,0-.74-1.66A.22.22,0,0,0,39.72,21.81Z"/><path d="M39.52,25.06c-.09-.1-.17-.21-.26-.3a.11.11,0,0,0-.09,0s-.1.13-.09.14c.42.47.5,1.25,1.3,1.36C40,25.94,39.83,25.43,39.52,25.06Z"/><path d="M37.83,6.94s.1-.11.08-.15A2.31,2.31,0,0,0,37.44,6l-.1,0s-.09.11-.08.16a1.72,1.72,0,0,0,.48.82S37.82,7,37.83,6.94Z"/><path d="M37.49,7.36c-.14.1,0,.24.06.34.18.26.24.63.63.69.06-.38-.29-.56-.42-.84C37.71,7.44,37.61,7.28,37.49,7.36Z"/><path d="M50.07,15.15A8.1,8.1,0,0,1,51,17.38c0,.13,0,.3.21.24s.09-.15.11-.2a2.06,2.06,0,0,0,0-.25c-.4-2.17-1.34-3.93-3.59-4.7-.17-.06-.38-.24-.52,0s.08.37.24.47a8.73,8.73,0,0,0,.8.42A4.29,4.29,0,0,1,50.07,15.15Z"/><path d="M48.69,18.58c-.06-.14-.15-.23-.31-.18a.31.31,0,0,0-.21.4,4.81,4.81,0,0,0,.22.46c.7,1.57,1.71,3,2.48,4.5a1.12,1.12,0,0,0,.52.47.23.23,0,0,0,.18,0s.07-.1.1-.16,0-.12-.07-.18A54.58,54.58,0,0,1,48.69,18.58Z"/><path d="M54.24,26.58a1.82,1.82,0,0,1-.61-1,.19.19,0,0,0-.24-.12.43.43,0,0,0-.21.19.76.76,0,0,0,0,.59,2.46,2.46,0,0,0,.83,1,3.52,3.52,0,0,1,1.41,2.24c.12.59.26,1.17.39,1.76,0,.09,0,.2.08.27a1.31,1.31,0,0,0,.06-.27c0-.27,0-.53,0-.74A4.23,4.23,0,0,0,54.24,26.58Z"/><path d="M55.68,22.13a7.67,7.67,0,0,1,1,3.85c0,.15-.09.38.15.38s.21-.23.22-.39a4.13,4.13,0,0,0,0-.5,12.11,12.11,0,0,0-.36-2.39,5.19,5.19,0,0,0-1.11-2,.89.89,0,0,0-.48-.35.34.34,0,0,0-.37.1.24.24,0,0,0,.06.35A3.28,3.28,0,0,1,55.68,22.13Z"/><path d="M50.4,19.5a.79.79,0,0,0-.23-.14c-.21.07-.34.17-.25.37a2.37,2.37,0,0,0,.32.5,9.75,9.75,0,0,1,1.84,3.2.79.79,0,0,0,.15.25.18.18,0,0,0,.17.05c.05,0,.13-.07.13-.12a1.26,1.26,0,0,0,0-.39A9.45,9.45,0,0,0,50.4,19.5Z"/><path d="M49.58,18a.18.18,0,0,0,.22.13s.06-.11.09-.18a5.42,5.42,0,0,0-.71-1.85A4.89,4.89,0,0,0,48,14.91a.32.32,0,0,0-.38,0c-.14.12,0,.25,0,.35a.87.87,0,0,0,.2.23A5.38,5.38,0,0,1,49.58,18Z"/><path d="M56.23,26.46c.12,0,.14-.13.12-.28a9.27,9.27,0,0,0-.54-2.39,3.83,3.83,0,0,0-.25-.44.27.27,0,0,0-.46.27,5.26,5.26,0,0,1,.61,1.47c.1.39.17.78.25,1.17C56,26.4,56.07,26.51,56.23,26.46Z"/><path d="M54.34,22.18c-.19-.43-.39-.85-.58-1.27-.09-.18-.18-.4-.42-.29s-.19.33-.16.53l0,0h0l.08.14,0,0a.48.48,0,0,0-.05-.17c-.3-.24-.6-.5-.92-.72a.27.27,0,0,0-.36.06.24.24,0,0,0,0,.36A4.14,4.14,0,0,1,53.27,23a.16.16,0,0,0,.23.12.4.4,0,0,0,.18-.22c.11-.33-.24-.61-.13-.95a.29.29,0,0,1-.16-.24l0,0h.1a1.05,1.05,0,0,1,.05.19c.2.08.21.29.29.44s.12.37.34.23A.35.35,0,0,0,54.34,22.18Z"/></g></g></svg>