<svg xmlns="http://www.w3.org/2000/svg" viewBox="0 0 53.1 57.4" width="90" height="90"><g id="Layer_2" data-name="Layer 2"><g id="Layer_1-2" data-name="Layer 1"><path d="M26,4.37a14.37,14.37,0,0,1,2.72.75,6.68,6.68,0,0,1,4,6.25c0,2,0,4,0,6,0,.81-.39,1.26-1.06,1.24s-1-.45-1-1.24c0-1.88,0-3.76,0-5.65a5,5,0,0,0-2-4.18,4.71,4.71,0,0,0-2.42-1,6.52,6.52,0,0,0-.77,0H7.27a5,5,0,0,0-4.19,2,4.93,4.93,0,0,0-1,3.14c0,5.8,0,11.61,0,17.41a4.93,4.93,0,0,0,5.14,5.1c.68,0,1.35,0,2,0a1.7,1.7,0,0,1,1.34.54c1.28,1.31,2.58,2.6,3.88,3.89l.43.41c0-.21,0-.35,0-.5,0-1,0-2.1,0-3.16A1,1,0,0,1,16,34.14q2.28,0,4.56,0a1,1,0,0,1,1.07,1,1,1,0,0,1-1.11,1c-1.15,0-2.31,0-3.52,0,0,.21,0,.4,0,.58,0,1.52,0,3,0,4.56a1.07,1.07,0,0,1-.59,1.11,1.12,1.12,0,0,1-1.31-.32c-1.84-1.85-3.7-3.68-5.53-5.54a1.22,1.22,0,0,0-1-.4,10.07,10.07,0,0,1-4.08-.43A6.94,6.94,0,0,1,.1,30.41a1.15,1.15,0,0,0-.1-.23V10.48a.56.56,0,0,0,.09-.17A6.74,6.74,0,0,1,4.17,5a14.47,14.47,0,0,1,2.57-.67Z"/><path d="M24.76,28.19H19.31c-1.48,0-2.1-.6-2.08-2.06,0-2.19,0-4.39.11-6.58A7.33,7.33,0,0,1,20,14a7.47,7.47,0,0,1,4.43-1.51,1,1,0,0,1,1.07,1c0,1,0,2.08,0,3.11,0,.6-.32.91-1,1a2.09,2.09,0,0,0-1.9,2.26h1.65a1.64,1.64,0,0,1,1.81,1.83V26a1.44,1.44,0,0,0,.23-.13A6.2,6.2,0,0,1,30.7,24.1c1.2,0,2.39,0,3.58,0a1.77,1.77,0,0,1,.56.08,1,1,0,0,1,.71,1,.94.94,0,0,1-.71,1,2.5,2.5,0,0,1-.72.09c-1.1,0-2.21,0-3.32,0a4.06,4.06,0,0,0-4.25,4.18q-.06,7.62,0,15.24a4.06,4.06,0,0,0,4.22,4.16c.8,0,1.59,0,2.39,0s1.29.39,1.3,1.29,0,1.72,0,2.58l.16.09c.23-.25.43-.52.67-.76.86-.87,1.75-1.72,2.6-2.61a1.86,1.86,0,0,1,1.47-.6q3.64,0,7.31,0A4.1,4.1,0,0,0,51,45.49q0-7.5,0-15a4.09,4.09,0,0,0-4.25-4.29c-1,0-2,0-3,0s-1.39-.61-1.18-1.34a.93.93,0,0,1,.94-.74,28.87,28.87,0,0,1,4.75.19,6,6,0,0,1,4.77,5.91c0,5.08,0,10.16,0,15.24a6.3,6.3,0,0,1-6.43,6.45c-2.27,0-4.53,0-6.79,0a1.23,1.23,0,0,0-1,.41c-1.49,1.51-3,3-4.5,4.51a2.27,2.27,0,0,1-.61.47,1,1,0,0,1-1.45-1.07c0-1.23,0-2.45,0-3.68v-.69c-.82,0-1.59.06-2.36,0a6.12,6.12,0,0,1-5.53-6q0-7.84,0-15.7A14.17,14.17,0,0,1,24.76,28.19ZM19.3,26.05H24V22H21.65a1.12,1.12,0,0,1-1.2-1.3c0-.36,0-.72.09-1.08a4.36,4.36,0,0,1,2.67-3.77.4.4,0,0,0,.21-.29,5.21,5.21,0,0,0,0-.79l-.17,0-.15,0a4.55,4.55,0,0,0-3.51,3.8C19.08,21,19.42,23.51,19.3,26.05Z"/><path d="M12.06,19.9H13.7a1.68,1.68,0,0,1,1.84,1.87v4.56a1.7,1.7,0,0,1-1.87,1.86H8.49a1.68,1.68,0,0,1-1.85-1.87c0-2,0-4,0-6a8.89,8.89,0,0,1,1.63-5.24,6.6,6.6,0,0,1,4.57-2.55,8.58,8.58,0,0,1,.87-.1,1.06,1.06,0,0,1,1.19,1.08q0,1.5,0,3a1,1,0,0,1-1,1.09C12.67,17.92,12.19,18.48,12.06,19.9Zm.77-5.19a4.34,4.34,0,0,0-2.33,1.08,5.48,5.48,0,0,0-1.68,3.94c-.1,2-.08,4-.11,6a2.88,2.88,0,0,0,0,.35c1.48,0,2.94,0,4.41,0a.37.37,0,0,0,.26-.27c0-1.26,0-2.51,0-3.82H11.06c-.73,0-1.21-.41-1.19-1.08,0-2.25.55-4.26,3-5.17Z"/><path d="M33,38.57H31.49a1.58,1.58,0,0,1-1.63-1.63c0-1.47,0-2.93,0-4.4a1.56,1.56,0,0,1,1.63-1.63c1.65,0,3.31,0,5,0A1.51,1.51,0,0,1,38,32.46c0,2,.07,3.94,0,5.9a7.36,7.36,0,0,1-2,5.08,6.57,6.57,0,0,1-4.61,1.79,1,1,0,0,1-1-1.07c0-.9,0-1.79,0-2.69a1.07,1.07,0,0,1,1-1.1C32.45,40.13,32.79,39.77,33,38.57Z"/><path d="M42.59,38.57H41.15a1.55,1.55,0,0,1-1.65-1.65q0-2.18,0-4.35a1.54,1.54,0,0,1,1.69-1.66H46a1.56,1.56,0,0,1,1.68,1.68c0,1.83,0,3.66,0,5.49A7.83,7.83,0,0,1,46.08,43,6.38,6.38,0,0,1,41,45.23a1,1,0,0,1-1-1q0-1.43,0-2.85a1.07,1.07,0,0,1,1-1C42.07,40.15,42.44,39.74,42.59,38.57Z"/></g></g></svg>