<svg xmlns="http://www.w3.org/2000/svg" viewBox="0 0 69.4 47.74" width="90" height="90"><g id="Layer_2" data-name="Layer 2"><g id="Layer_1-2" data-name="Layer 1"><path d="M9.3,0h1.5c.16,0,.32.08.48.1,1.87.22,3.75.34,5.59.67A32,32,0,0,1,32,7.5c.91.76,1.8,1.54,2.71,2.32l.4-.34A33.67,33.67,0,0,1,55,.37C56.33.21,57.66.12,59,0h1.26a2.73,2.73,0,0,0,.41.1c1.11.1,1.54.54,1.63,1.66,0,.59.06,1.17.09,1.76.08,1.28.16,2.57.24,3.93l.68-.14,3.09-.8c.8-.2,1.2.08,1.25.91.09,1.64.17,3.29.25,4.94.22,4.32.43,8.64.66,13,.27,5.07.57,10.14.84,15.21,0,.89-.26,1.29-1.14,1.41-3.6.47-7.2.92-10.81,1.38-5.53.71-11.06,1.4-16.59,2.13-1,.13-2.15,0-2.74,1.14-.08.16-.32.25-.5.36a5.65,5.65,0,0,1-4.17.64,3.58,3.58,0,0,1-2.7-1.73c-.06-.12-.31-.17-.48-.19L26,45.12,14.66,43.67,1.12,41.94C.25,41.82,0,41.48,0,40.6c.09-2,.18-4,.29-6,.23-4.32.48-8.64.72-13q.38-7.2.76-14.39c0-.69.42-1,1.08-.82.83.2,1.66.43,2.49.64l1.39.32c0-.17,0-.25,0-.34l.27-5.25A1.58,1.58,0,0,1,8.68.1C8.89.08,9.09,0,9.3,0Zm50,3c-2.14.27-4.18.45-6.19.79a29.8,29.8,0,0,0-16.4,8.39,1.61,1.61,0,0,0-.52,1.27q0,13.83,0,27.66c0,.22,0,.44,0,.75l.37-.29a32,32,0,0,1,8.68-5.3,42.4,42.4,0,0,1,12.89-2.63L61,33.47C60.4,23.34,59.86,13.27,59.3,3ZM33.11,41.91c0-.29,0-.37,0-.45q0-14.18,0-28.35a1.28,1.28,0,0,0-.38-.8,29.35,29.35,0,0,0-8.63-6.14A35.9,35.9,0,0,0,13,3.28c-.94-.11-1.9-.12-2.9-.18L8.41,33.49C17.53,33.7,26,35.5,33.11,41.91ZM6.7,8.08c-.64.12-1.19.23-1.74.32-.34,0-.42.23-.44.55q-.36,6.32-.73,12.64-.51,8.93-1,17.84c0,.32,0,.65,0,1,7.57-1.49,15.05-2.47,22.56-.1a.37.37,0,0,0-.18-.19c-1.57-.63-3.1-1.36-4.7-1.85A41.3,41.3,0,0,0,7,36.64,1.47,1.47,0,0,1,5.28,35c0-1.25.1-2.5.17-3.76q.28-5.34.59-10.7c.15-2.78.31-5.55.46-8.33C6.57,10.83,6.63,9.5,6.7,8.08Zm56-.17c0,.26,0,.44,0,.62.11,2.07.23,4.14.34,6.2l.42,7.76c.23,4.14.47,8.27.69,12.4a1.56,1.56,0,0,1-1.71,1.76c-2.51.1-5,.13-7.51.38a32.16,32.16,0,0,0-9.12,2.34c-.22.09-.42.21-.63.32,7.21-1.85,14.34-.85,21.46.52a1.72,1.72,0,0,0,0-.27c-.31-5.41-.64-10.81-1-16.21q-.4-7.23-.79-14.47c0-1,0-1-1-1.15Z" /><path d="M13.91,7.31c-.72,0-1.09.25-1.13.74a.8.8,0,0,0,.79.93c.52.07,1,.11,1.56.17a25.15,25.15,0,0,1,11.23,4.09,35.7,35.7,0,0,1,3.07,2.57.82.82,0,0,0,1.19,0,.79.79,0,0,0,0-1.18c-.09-.11-.2-.21-.3-.32C25.74,9.83,20,8,13.91,7.31ZM14,13.55l-.37,0c-.68,0-1,.21-1.06.76s.28.85.95.89A26.44,26.44,0,0,1,25.72,19.1a36.63,36.63,0,0,1,3.49,2.63c.46.36,1,.41,1.28,0a.82.82,0,0,0-.11-1.22,7.81,7.81,0,0,0-.59-.56A28.3,28.3,0,0,0,14,13.55Zm-.15,6.15-.57,0c-.62,0-1,.28-1,.81s.31.79.89.84,1,.05,1.43.11A26,26,0,0,1,29,27.66c.49.42,1,.46,1.33.09s.29-.87-.18-1.31a21,21,0,0,0-4.86-3.39A28.15,28.15,0,0,0,13.84,19.7Zm-1,6.81a.84.84,0,0,0-.87.79c0,.5.35.85,1,.9s1.33.08,2,.15a26,26,0,0,1,12.93,4.78c.43.3.8.67,1.23,1a.83.83,0,0,0,1.06-1.27,7.69,7.69,0,0,0-.76-.65A28.64,28.64,0,0,0,12.83,26.51Z" /><path d="M56.81,14.66c0,.51-.33.79-1,.86-1.2.13-2.42.18-3.61.42a26,26,0,0,0-12,5.65,1.39,1.39,0,0,1-.86.41.89.89,0,0,1-.67-.52,1.25,1.25,0,0,1,.3-1,26.16,26.16,0,0,1,3-2.31,28.85,28.85,0,0,1,13.7-4.35C56.37,13.8,56.81,14.11,56.81,14.66Z" /><path d="M56.5,8.4c0,.54-.32.84-1,.88A28,28,0,0,0,47,11.19a20.38,20.38,0,0,0-7.12,4.56c-.48.48-.94.52-1.32.15s-.35-.83.17-1.35A22.35,22.35,0,0,1,49.22,8.72,57.19,57.19,0,0,1,55.5,7.64.78.78,0,0,1,56.5,8.4Z" /><path d="M55.35,26.93l.94-.06c.73,0,1.16.27,1.19.82s-.36.81-1.08.87c-1.55.14-3.13.17-4.67.44a24.57,24.57,0,0,0-11.3,4.91c-.55.44-1,.46-1.37,0s-.21-.89.34-1.34A25.71,25.71,0,0,1,48.57,28,27.81,27.81,0,0,1,55.35,26.93Z" /><path d="M55.27,20.21h.88c.66,0,1,.31,1,.85s-.35.79-1,.79a25.31,25.31,0,0,0-8.82,1.65,23,23,0,0,0-7.18,4c-.52.43-1,.42-1.33,0s-.22-.88.27-1.3a26.47,26.47,0,0,1,9.87-5A24.8,24.8,0,0,1,55.27,20.21Z" /><path d="M13.91,7.31c6.1.64,11.83,2.52,16.44,7,.1.11.21.21.3.32a.79.79,0,0,1,0,1.18.82.82,0,0,1-1.19,0,35.7,35.7,0,0,0-3.07-2.57A25.15,25.15,0,0,0,15.13,9.15c-.52-.06-1-.1-1.56-.17a.8.8,0,0,1-.79-.93C12.82,7.56,13.19,7.28,13.91,7.31Z" /><path d="M14,13.55A28.3,28.3,0,0,1,29.79,20a7.81,7.81,0,0,1,.59.56.82.82,0,0,1,.11,1.22c-.31.39-.82.34-1.28,0a36.63,36.63,0,0,0-3.49-2.63,26.44,26.44,0,0,0-12.21-3.93c-.67,0-1-.33-.95-.89s.38-.8,1.06-.76Z" /><path d="M13.84,19.7a28.15,28.15,0,0,1,11.43,3.35,21,21,0,0,1,4.86,3.39c.47.44.52.95.18,1.31s-.84.33-1.33-.09a26,26,0,0,0-14.35-6.22c-.47-.06-1-.08-1.43-.11s-.89-.34-.89-.84.34-.82,1-.81Z" /><path d="M12.83,26.51A28.64,28.64,0,0,1,29.4,32.18a7.69,7.69,0,0,1,.76.65A.83.83,0,0,1,29.1,34.1c-.43-.3-.8-.67-1.23-1a26,26,0,0,0-12.93-4.78c-.66-.07-1.33-.1-2-.15s-1-.4-1-.9A.84.84,0,0,1,12.83,26.51Z" /></g></g></svg>