<svg xmlns="http://www.w3.org/2000/svg" viewBox="0 0 48.35 53.47" width="90" height="90"><g id="Layer_2" data-name="Layer 2"><g id="Layer_1-2" data-name="Layer 1"><path d="M40.78,12c0-1.49,0-3,0-4.47,0-.77-.5-1.12-1.16-.65L39.49,7q-7.52,4.23-15,8.46a.5.5,0,0,1-.54,0c-2.09-1.19-4.18-2.36-6.27-3.54l-9-5.09c-.57-.32-1-.09-1,.53,0,3.1,0,6.2,0,9.31,0,.3.12.4.43.44a4.62,4.62,0,0,1,1.39.32,3,3,0,0,1,1.71,2.91q0,7.11,0,14.22c0,.15,0,.29,0,.44a2.32,2.32,0,0,1-.85,1.68,2.45,2.45,0,0,1-1.46.58c-.1,0-.19.1-.29.16.06.08.1.17.16.25a.71.71,0,0,0,.17.11l14.05,8.86a2.21,2.21,0,0,0,2.63,0c2.84-1.87,5.71-3.71,8.56-5.57l5.57-3.61c.35-.23.38-.37.09-.51a4.2,4.2,0,0,1-2.45-4.24c0-3.58,0-7.17,0-10.75,0-.65,0-1.29,0-1.94a3,3,0,0,1,3-2.9c.51,0,.52,0,.53-.57Zm3.53,14.14c0-2,0-4,0-5.92a20.24,20.24,0,0,0-.5-4.59c-.16-.69-.38-1.37-.59-2,0-.09-.16-.15-.24-.22a1.11,1.11,0,0,0-.17.27,1.13,1.13,0,0,0,0,.32V18.5c0,.47-.16.63-.63.63a9.2,9.2,0,0,1-1.05,0A1.63,1.63,0,0,0,39.27,21c0,4.08,0,8.16,0,12.24a3.91,3.91,0,0,0,0,.49A1.76,1.76,0,0,0,41,35.23h.84c.65,0,.72.09.59.73A18.67,18.67,0,0,1,28.06,50.46c-.24,0-.41.06-.58-.19a1.82,1.82,0,0,0-1.54-.82c-1.18,0-2.36,0-3.54,0a2,2,0,0,0,.08,4h3.38a1.68,1.68,0,0,0,1.61-.81,1.52,1.52,0,0,1,1.29-.82,2.74,2.74,0,0,0,.39-.09A20.15,20.15,0,0,0,44.31,32.37ZM24.15,3.46c1,.1,2.06.16,3.08.32A17.88,17.88,0,0,1,34.8,6.85a.62.62,0,0,0,.77,0c.59-.35,1.19-.67,1.79-1s.58-.45.09-.86A19.92,19.92,0,0,0,18.33.87,19.1,19.1,0,0,0,10.9,5c-.5.44-.49.55.1.89s1.11.6,1.65.93a.81.81,0,0,0,1,0A18.89,18.89,0,0,1,24.15,3.46ZM4,26.18c0,2.34,0,4.67,0,7a2,2,0,0,0,2,2.05c.47,0,.94,0,1.41,0a1.4,1.4,0,0,0,1.6-1.58c0-4.17,0-8.35,0-12.52,0-.2,0-.4,0-.6a1.48,1.48,0,0,0-1.49-1.4H6.27c-.6,0-.73-.13-.73-.73,0-1.53,0-3.06,0-4.59a1.36,1.36,0,0,0-.15-.41c-.1.12-.25.21-.3.35A19.23,19.23,0,0,0,4,19.9C4,22,4,24.09,4,26.18Zm41.29,1v5.39c0,.32.05.6.43.66a2.08,2.08,0,0,0,2.57-2.16c0-2.55,0-5.1,0-7.65a2.12,2.12,0,0,0-2.29-2.26c-.6,0-.73.14-.73.74C45.32,23.64,45.33,25.4,45.33,27.16Z"/><path d="M0,22.75a6.31,6.31,0,0,1,.31-.64,2.15,2.15,0,0,1,2.31-.93c.16,0,.28.25.38.41s0,.21,0,.32v10.5c0,.72-.1.8-.81.82A2.11,2.11,0,0,1,0,31.61Z"/><path d="M40.78,12v4.51c0,.54,0,.55-.53.57a3,3,0,0,0-3,2.9c0,.65,0,1.29,0,1.94,0,3.58,0,7.17,0,10.75a4.2,4.2,0,0,0,2.45,4.24c.29.14.26.28-.09.51L34,41.06c-2.85,1.86-5.72,3.7-8.56,5.57a2.21,2.21,0,0,1-2.63,0l-14-8.86a.71.71,0,0,1-.17-.11c-.06-.08-.1-.17-.16-.25.1-.06.19-.15.29-.16a2.45,2.45,0,0,0,1.46-.58A2.32,2.32,0,0,0,11.07,35c0-.15,0-.29,0-.44q0-7.11,0-14.22a3,3,0,0,0-1.71-2.91A4.62,4.62,0,0,0,8,17.12c-.31,0-.43-.14-.43-.44,0-3.11,0-6.21,0-9.31,0-.62.45-.85,1-.53l9.05,5.09c2.09,1.18,4.18,2.35,6.27,3.54a.5.5,0,0,0,.54,0Q32,11.2,39.49,7l.14-.08c.66-.47,1.19-.12,1.16.65C40.74,9.05,40.78,10.54,40.78,12Z"/><path d="M44.31,26.17v6.2A20.15,20.15,0,0,1,29.15,51.74a2.74,2.74,0,0,1-.39.09,1.52,1.52,0,0,0-1.29.82,1.68,1.68,0,0,1-1.61.81H22.48a2,2,0,0,1-.08-4c1.18,0,2.36,0,3.54,0a1.82,1.82,0,0,1,1.54.82c.17.25.34.24.58.19A18.67,18.67,0,0,0,42.43,36c.13-.64.06-.73-.59-.73H41a1.76,1.76,0,0,1-1.69-1.54,3.91,3.91,0,0,1,0-.49c0-4.08,0-8.16,0-12.24a1.63,1.63,0,0,1,1.85-1.83,9.19,9.19,0,0,0,1.05,0c.47,0,.63-.16.63-.63V14a1.13,1.13,0,0,1,0-.32A1.11,1.11,0,0,1,43,13.4c.08.07.21.13.24.22.21.67.43,1.35.59,2a20.24,20.24,0,0,1,.5,4.59C44.3,22.22,44.31,24.2,44.31,26.17Z"/><path d="M24.15,3.46A18.89,18.89,0,0,0,13.67,6.77a.81.81,0,0,1-1,0c-.54-.33-1.1-.62-1.65-.93s-.6-.45-.1-.89A19.1,19.1,0,0,1,18.33.87,19.92,19.92,0,0,1,37.45,5c.49.41.47.55-.09.86s-1.2.66-1.79,1a.62.62,0,0,1-.77,0,17.88,17.88,0,0,0-7.57-3.07C26.21,3.62,25.18,3.56,24.15,3.46Z"/><path d="M4,26.18C4,24.09,4,22,4,19.9a19.23,19.23,0,0,1,1-6.15c0-.14.2-.23.3-.35a1.36,1.36,0,0,1,.15.41c0,1.53,0,3.06,0,4.59,0,.6.13.73.73.73H7.56a1.48,1.48,0,0,1,1.49,1.4c0,.2,0,.4,0,.6,0,4.17,0,8.35,0,12.52a1.4,1.4,0,0,1-1.6,1.58c-.47,0-.94,0-1.41,0a2,2,0,0,1-2-2.05C4,30.85,4,28.52,4,26.18Z"/><path d="M45.33,27.16c0-1.76,0-3.52,0-5.28,0-.6.13-.7.73-.74a2.12,2.12,0,0,1,2.29,2.26c-.05,2.55,0,5.1,0,7.65a2.08,2.08,0,0,1-2.57,2.16c-.38-.06-.43-.34-.43-.66V27.16Z"/></g></g></svg>