<svg xmlns="http://www.w3.org/2000/svg" viewBox="0 0 57.09 71.02" width="90" height="90"><g id="Layer_2" data-name="Layer 2"><g id="Layer_1-2" data-name="Layer 1"><path d="M36.37,71V58.87s14.34,1.25,13.53-7A8,8,0,0,1,51,47.55l-1-1.84L51.3,44l-1-3.68s5.67-1.47,5.3-2.65S49.1,27,49.1,27,53.44,1.5,25.3,1.5C12.16,1.5,1.23,12.16,1.51,25.29c.61,29.13,36.83,20,29.49,3.19" style="fill:none;stroke-miterlimit:10;stroke-width:3px"/><path d="M8.68,31.87a4.47,4.47,0,0,0,8.07,2.64,4.78,4.78,0,0,0,7-2.79,5.25,5.25,0,0,0,1.95.37A5.35,5.35,0,0,0,31,27.51a4.85,4.85,0,0,0,7.2-2.79,5,5,0,0,0,1.55.25,4.83,4.83,0,0,0,0-9.65l-.48,0c0-.09,0-.18,0-.27a4.55,4.55,0,0,0-7.4-3.55,4.11,4.11,0,0,0-8-.1,4.21,4.21,0,0,0-7.19,3v.1a4.51,4.51,0,0,0-6.13,4.23,4.6,4.6,0,0,0,.16,1.18,5,5,0,0,0-.55,8.57A4.48,4.48,0,0,0,8.68,31.87Z" style="fill:none;stroke-miterlimit:10;stroke-width:3px"/><path d="M39.3,15.07a4.55,4.55,0,1,0-4.55,4.55" style="fill:none;stroke-miterlimit:10;stroke-width:3px"/><path d="M27.91,8.37a4.11,4.11,0,0,0-2.7,7.21" style="fill:none;stroke-miterlimit:10;stroke-width:3px"/><path d="M19.66,18.74a4.53,4.53,0,1,0-9,0" style="fill:none;stroke-miterlimit:10;stroke-width:3px"/><path d="M17.24,21.8A5,5,0,0,0,8,24.36" style="fill:none;stroke-miterlimit:10;stroke-width:3px"/><path d="M22.38,22.56a5.36,5.36,0,0,0,3.35,9.53" style="fill:none;stroke-miterlimit:10;stroke-width:3px"/><path d="M28.71,23.37a4.85,4.85,0,1,0,9.7,0" style="fill:none;stroke-miterlimit:10;stroke-width:3px"/></g></g></svg>