<svg xmlns="http://www.w3.org/2000/svg" viewBox="0 0 46.89 47.47" width="70" height="70"><g id="Layer_2" data-name="Layer 2"><g id="Layer_1-2" data-name="Layer 1"><path d="M43.89,36.74H19c-.32,0-3.11-.06-4-2.12-1-2.23,1.08-4.63,1.77-5.42l0,0,1.45-1.62L8.29,3.9,1.46,3.22A1.61,1.61,0,1,1,1.78,0L9.57.79a1.59,1.59,0,0,1,1.33,1L21.55,27.26a1.63,1.63,0,0,1-.28,1.7l-2.13,2.37a4.9,4.9,0,0,0-1.23,1.94A2.77,2.77,0,0,0,19,33.5h24.9a1.62,1.62,0,0,1,0,3.24Z"/><path d="M20.06,29.5a1.62,1.62,0,0,1-.16-3.23L41.82,24l1.63-12.68-31.28-1a1.62,1.62,0,0,1,.11-3.23l33.05,1.1a1.67,1.67,0,0,1,1.18.57A1.62,1.62,0,0,1,46.88,10l-2,15.71a1.62,1.62,0,0,1-1.44,1.4l-23.19,2.4Z"/><path d="M40.44,47.47a4.85,4.85,0,1,1,4.84-4.84A4.85,4.85,0,0,1,40.44,47.47Zm0-6.46a1.62,1.62,0,1,0,1.61,1.62A1.62,1.62,0,0,0,40.44,41Z"/><path d="M19.63,47.47a4.85,4.85,0,1,1,4.85-4.84A4.84,4.84,0,0,1,19.63,47.47Zm0-6.46a1.62,1.62,0,1,0,1.62,1.62A1.61,1.61,0,0,0,19.63,41Z"/></g></g></svg>