<svg xmlns="http://www.w3.org/2000/svg" viewBox="0 0 41.59 47.99" width="80" height="80"><g id="Layer_2" data-name="Layer 2"><g id="Layer_1-2" data-name="Layer 1"><path d="M41.52,30.79a5,5,0,0,1-.34.47q-4.32,4.92-8.63,9.83c-1.59,1.8-3.17,3.62-4.77,5.41a.87.87,0,0,1-.66.25c-1.23-.22-2.46-.48-3.7-.73L10.09,43.36c-2.38-.47-4.77-.93-7.14-1.45a2.13,2.13,0,0,1-1.64-2.55,2.16,2.16,0,0,1,2.63-1.58l8.67,1.73c4.82,1,9.63,1.89,14.45,2.86a.67.67,0,0,0,.74-.27l4.86-5.54,8.57-9.75a1.18,1.18,0,0,0,.33-.62c0-.68,0-1.37,0-2.07-.09,0-.12,0-.14.05l-4.63,5.27q-4.56,5.18-9.12,10.36a.66.66,0,0,1-.52.14c-1.69-.31-3.38-.64-5.07-1Q13,37.17,4,35.34a5.85,5.85,0,0,1-1.88-.66,2,2,0,0,1-.62-2.5,2.09,2.09,0,0,1,2.12-1.26l12.78,2.53q5.33,1,10.65,2.12a.74.74,0,0,0,.79-.26q3.51-4,7.06-8L41.25,20a1,1,0,0,0,.3-.52c0-.7,0-1.39,0-2.09a.44.44,0,0,0-.29.2l-5.52,6.27q-4,4.53-7.94,9.05a.79.79,0,0,1-.86.26Q21.37,32,15.76,30.9c-4.22-.84-8.45-1.67-12.67-2.52A2.14,2.14,0,1,1,4,24.19c2.32.52,4.66.94,7,1.4q8,1.57,16,3.17a.78.78,0,0,0,.88-.3c1.42-1.64,2.85-3.26,4.28-4.88,2.91-3.32,5.78-6.67,8.76-9.92.92-1,.61-2,.7-3.25l-5.41,6.16Q32,21.39,27.71,26.2a.66.66,0,0,1-.52.17c-3-.56-5.89-1.15-8.83-1.74q-7-1.38-13.93-2.78a8.07,8.07,0,0,1-2.29-.73,2,2,0,0,1-.69-2.52,2,2,0,0,1,2.26-1.22l5.08,1L27.14,22a.52.52,0,0,0,.6-.22l8-9.08q2.76-3.13,5.51-6.28a1.09,1.09,0,0,0-.67-1.89Q29.44,2.3,18.31.09a3.1,3.1,0,0,0-3.15,1C12.75,3.78,10.31,6.47,7.9,9.19S3.15,14.6.79,17.32a3.23,3.23,0,0,0-.22,3.95A12.07,12.07,0,0,0,2,22.72c-.33.38-.72.81-1.1,1.26A3.33,3.33,0,0,0,.35,27.7a3.6,3.6,0,0,0,1.72,1.7c-.44.52-.87,1-1.26,1.49A3.37,3.37,0,0,0,1.8,36a1.84,1.84,0,0,1,.25.19L.88,37.59a3.37,3.37,0,0,0,1.84,5.56c3.72.77,7.46,1.51,11.19,2.25,4.26.85,8.53,1.67,12.78,2.55a1.25,1.25,0,0,0,1.39-.51c1.63-1.9,3.3-3.78,5-5.66,2.66-3,5.3-6.07,8-9.07A2,2,0,0,0,41.52,30.79Z" style="fill:#fff"/><path d="M41.52,30.79A2,2,0,0,1,41,32.71c-2.69,3-5.33,6-8,9.07-1.66,1.88-3.33,3.76-5,5.66a1.25,1.25,0,0,1-1.39.51c-4.25-.88-8.52-1.7-12.78-2.55-3.73-.74-7.47-1.48-11.19-2.25A3.37,3.37,0,0,1,.88,37.59l1.17-1.36A1.84,1.84,0,0,0,1.8,36a3.37,3.37,0,0,1-1-5.15c.39-.5.82-1,1.26-1.49A3.6,3.6,0,0,1,.35,27.7,3.33,3.33,0,0,1,.89,24c.38-.45.77-.88,1.1-1.26A12.07,12.07,0,0,1,.57,21.27a3.23,3.23,0,0,1,.22-3.95Q4.33,13.24,7.9,9.19c2.41-2.72,4.85-5.41,7.26-8.13a3.1,3.1,0,0,1,3.15-1Q29.44,2.28,40.57,4.52a1.09,1.09,0,0,1,.67,1.89q-2.75,3.15-5.51,6.28l-8,9.08a.52.52,0,0,1-.6.22L8.79,18.35l-5.08-1A2,2,0,0,0,1.45,18.6a2,2,0,0,0,.69,2.52,8.07,8.07,0,0,0,2.29.73q7,1.41,13.93,2.78c2.94.59,5.88,1.18,8.83,1.74a.66.66,0,0,0,.52-.17q4.24-4.8,8.47-9.63l5.41-6.16c-.09,1.21.22,2.25-.7,3.25-3,3.25-5.85,6.6-8.76,9.92-1.43,1.62-2.86,3.24-4.28,4.88a.78.78,0,0,1-.88.3q-8-1.61-16-3.17c-2.33-.46-4.67-.88-7-1.4a2.14,2.14,0,1,0-.86,4.19c4.22.85,8.45,1.68,12.67,2.52Q21.37,32,27,33.14a.79.79,0,0,0,.86-.26q4-4.53,7.94-9.05l5.52-6.27a.44.44,0,0,1,.29-.2c0,.7,0,1.39,0,2.09a1,1,0,0,1-.3.52l-6.39,7.31q-3.54,4-7.06,8a.74.74,0,0,1-.79.26q-5.32-1.08-10.65-2.12L3.58,30.92a2.09,2.09,0,0,0-2.12,1.26,2,2,0,0,0,.62,2.5A5.85,5.85,0,0,0,4,35.34Q13,37.19,22.1,39c1.69.33,3.38.66,5.07,1a.66.66,0,0,0,.52-.14q4.57-5.17,9.12-10.36l4.63-5.27s.05,0,.14-.05c0,.7,0,1.39,0,2.07a1.18,1.18,0,0,1-.33.62l-8.57,9.75L27.8,42.1a.67.67,0,0,1-.74.27c-4.82-1-9.63-1.91-14.45-2.86L3.94,37.78a2.16,2.16,0,0,0-2.63,1.58A2.13,2.13,0,0,0,3,41.91c2.37.52,4.76,1,7.14,1.45L23.42,46c1.24.25,2.47.51,3.7.73a.87.87,0,0,0,.66-.25c1.6-1.79,3.18-3.61,4.77-5.41q4.31-4.92,8.63-9.83A5,5,0,0,0,41.52,30.79Z"/></g></g></svg>