<svg xmlns="http://www.w3.org/2000/svg" xmlns:xlink="http://www.w3.org/1999/xlink" viewBox="0 0 94.14 45.32"><defs><style>.cls-1{fill:url(#radial-gradient);}.cls-2{fill:red;}</style><radialGradient id="radial-gradient" cx="287.6" cy="247.28" r="3.22" gradientTransform="translate(-215.13 -241.05) rotate(4.66)" gradientUnits="userSpaceOnUse"><stop offset="0.79" stop-color="#333"/><stop offset="0.8" stop-color="#515151"/><stop offset="0.82" stop-color="#7e7e7e"/><stop offset="0.84" stop-color="#a4a4a4"/><stop offset="0.86" stop-color="#c1c1c1"/><stop offset="0.87" stop-color="#d5d5d5"/><stop offset="0.89" stop-color="#e2e2e2"/><stop offset="0.91" stop-color="#e6e6e6"/><stop offset="1" stop-color="#5c5c5c"/></radialGradient></defs><g id="Layer_2" data-name="Layer 2"><g id="Layer_2-2" data-name="Layer 2"><path d="M52.68,31.23a.62.62,0,0,1-.28-.9l.15-.23h0A37.15,37.15,0,0,0,64.9,33c6.71.32,17.14-1,28.74-8.88l.5.73A53.11,53.11,0,0,1,78,32.43a42.91,42.91,0,0,1-13.2,1.46A36.62,36.62,0,0,1,52.68,31.23Z"/><path class="cls-1" d="M52.61,31.77a3.22,3.22,0,1,0-4.17-1.83A3.23,3.23,0,0,0,52.61,31.77Zm-2.13-5.45A2.63,2.63,0,1,1,49,29.73,2.62,2.62,0,0,1,50.48,26.32Z"/><path d="M52.55,30.1a11,11,0,0,1,7.39-5,18.81,18.81,0,0,1,9.8,1.12c4.45,1.58,9.4,4.57,14.73,8.87l-.56.69c-5.24-4.23-10.1-7.17-14.45-8.72A18.09,18.09,0,0,0,60.13,26a10.39,10.39,0,0,0-6.84,4.54Z"/><path d="M52.68,31.23a.62.62,0,0,1-.28-.9l.15-.23h0A37.15,37.15,0,0,0,64.9,33c6.71.32,17.14-1,28.74-8.88l.5.73A53.11,53.11,0,0,1,78,32.43a42.91,42.91,0,0,1-13.2,1.46A36.62,36.62,0,0,1,52.68,31.23Z"/><path class="cls-1" d="M52.61,31.77a3.22,3.22,0,1,0-4.17-1.83A3.23,3.23,0,0,0,52.61,31.77Zm-2.13-5.45A2.63,2.63,0,1,1,49,29.73,2.62,2.62,0,0,1,50.48,26.32Z"/><path class="cls-2" d="M14.46,38.77l21.81,5.87A19.53,19.53,0,0,0,60.21,30.86l.1-.38A19.53,19.53,0,0,0,46.53,6.55L24.71.68A19.52,19.52,0,0,0,.78,14.46l-.1.38A19.52,19.52,0,0,0,14.46,38.77Zm34-8.83a3.22,3.22,0,1,1,4.17,1.83A3.21,3.21,0,0,1,48.44,29.94Z"/><path d="M52.55,30.1a11,11,0,0,1,7.39-5,18.81,18.81,0,0,1,9.8,1.12c4.45,1.58,9.4,4.57,14.73,8.87l-.56.69c-5.24-4.23-10.1-7.17-14.45-8.72A18.09,18.09,0,0,0,60.13,26a10.39,10.39,0,0,0-6.84,4.54Z"/></g></g></svg>