<svg width="95" height="46" viewBox="0 0 95 46" fill="none" xmlns="http://www.w3.org/2000/svg">
<path d="M41.47 31.2301C41.5527 31.1952 41.6266 31.1424 41.6865 31.0756C41.7464 31.0088 41.7908 30.9296 41.8166 30.8436C41.8424 30.7576 41.8489 30.6671 41.8357 30.5783C41.8224 30.4895 41.7898 30.4048 41.74 30.3301L41.59 30.1001C37.67 31.7677 33.4925 32.7487 29.24 33.0001C22.54 33.3201 12.11 32.0001 0.5 24.1201L0 24.8501C4.91237 28.2655 10.3655 30.8281 16.13 32.4301C20.4277 33.5984 24.8809 34.0909 29.33 33.8901C33.4983 33.6987 37.6036 32.7992 41.47 31.2301V31.2301Z" fill="black"/>
<path d="M41.47 31.2301C41.5527 31.1952 41.6266 31.1424 41.6865 31.0756C41.7464 31.0088 41.7908 30.9296 41.8166 30.8436C41.8424 30.7576 41.8489 30.6671 41.8357 30.5783C41.8224 30.4895 41.7898 30.4048 41.74 30.3301L41.59 30.1001C37.67 31.7677 33.4925 32.7487 29.24 33.0001C22.54 33.3201 12.11 32.0001 0.5 24.1201L0 24.8501C4.91237 28.2655 10.3655 30.8281 16.13 32.4301C20.4277 33.5984 24.8809 34.0909 29.33 33.8901C33.4983 33.6987 37.6036 32.7992 41.47 31.2301V31.2301Z" fill="black"/>
<path d="M93.47 14.84L93.37 14.46C92.7031 11.9831 91.5549 9.66186 89.9908 7.6288C88.4267 5.59574 86.4774 3.89071 84.2543 2.61108C82.0312 1.33145 79.5778 0.502283 77.0342 0.170945C74.4907 -0.160394 71.9067 0.012583 69.43 0.679995L47.62 6.55C45.1428 7.21457 42.8209 8.36106 40.7873 9.92386C38.7536 11.4867 37.048 13.4351 35.7681 15.6577C34.4882 17.8804 33.6592 20.3335 33.3283 22.8769C32.9974 25.4203 33.1713 28.0039 33.84 30.48L33.94 30.86C34.6057 33.3365 35.7529 35.6575 37.316 37.6905C38.8791 39.7235 40.8275 41.4285 43.0498 42.7082C45.2721 43.9879 47.7248 44.8172 50.2677 45.1487C52.8106 45.4801 55.3939 45.3073 57.87 44.64L79.69 38.77C84.69 37.4231 88.9505 34.1456 91.5346 29.6581C94.1187 25.1706 94.8148 19.8406 93.47 14.84V14.84ZM41.53 31.77C40.9378 31.5371 40.428 31.1339 40.0648 30.6115C39.7016 30.089 39.5013 29.4707 39.4893 28.8345C39.4772 28.1983 39.6539 27.5728 39.9971 27.037C40.3402 26.5011 40.8344 26.079 41.4173 25.8238C42.0002 25.5686 42.6456 25.4918 43.2721 25.6032C43.8986 25.7145 44.478 26.009 44.9373 26.4493C45.3966 26.8897 45.7151 27.4563 45.8526 28.0776C45.9901 28.6988 45.9405 29.3469 45.71 29.94C45.3976 30.7364 44.782 31.3763 43.9984 31.7194C43.2147 32.0625 42.327 32.0807 41.53 31.77V31.77Z" fill="#63CDED"/>
<path d="M45.71 29.94C45.9406 29.3469 45.9902 28.6988 45.8527 28.0776C45.7152 27.4563 45.3967 26.8897 44.9374 26.4493C44.4781 26.0089 43.8987 25.7145 43.2722 25.6031C42.6457 25.4918 42.0003 25.5686 41.4174 25.8238C40.8345 26.079 40.3403 26.5011 39.9971 27.0369C39.654 27.5728 39.4773 28.1983 39.4893 28.8345C39.5014 29.4706 39.7017 30.089 40.0649 30.6115C40.4281 31.1339 40.9379 31.537 41.53 31.77C41.9246 31.9252 42.3459 32.0009 42.7698 31.9929C43.1936 31.9849 43.6118 31.8932 44.0001 31.7232C44.3885 31.5531 44.7395 31.3081 45.0329 31.0021C45.3263 30.6961 45.5565 30.3351 45.71 29.94V29.94ZM45.15 29.73C44.9593 30.214 44.6293 30.6306 44.2017 30.9271C43.7741 31.2236 43.2682 31.3865 42.748 31.3954C42.2278 31.4043 41.7167 31.2587 41.2792 30.977C40.8418 30.6953 40.4977 30.2902 40.2906 29.8129C40.0834 29.3356 40.0225 28.8076 40.1155 28.2957C40.2085 27.7838 40.4512 27.311 40.813 26.9371C41.1748 26.5631 41.6394 26.3049 42.1479 26.1951C42.6565 26.0852 43.1862 26.1287 43.67 26.32C43.9918 26.4458 44.2856 26.634 44.5343 26.8737C44.7831 27.1135 44.982 27.4001 45.1195 27.717C45.2571 28.034 45.3306 28.375 45.3359 28.7205C45.3411 29.0659 45.2779 29.409 45.15 29.73Z" fill="url(#paint0_radial)"/>
<path d="M41.5899 30.1C40.7768 28.7978 39.7001 27.6801 38.4291 26.819C37.1581 25.9578 35.7209 25.3723 34.2099 25.1C30.9018 24.5945 27.5187 24.9811 24.4099 26.22C19.9999 27.81 14.9999 30.8 9.67993 35.1L10.2299 35.79C15.4699 31.56 20.3299 28.62 24.6799 27.07C27.6387 25.901 30.8532 25.5319 33.9999 26C35.3897 26.2535 36.7134 26.7866 37.8909 27.567C39.0684 28.3474 40.0751 29.3589 40.8499 30.54L41.5899 30.1Z" fill="black"/>
<path d="M41.5899 30.1C40.7768 28.7978 39.7001 27.6801 38.4291 26.819C37.1581 25.9578 35.7209 25.3723 34.2099 25.1C30.9018 24.5945 27.5187 24.9811 24.4099 26.22C19.9999 27.81 14.9999 30.8 9.67993 35.1L10.2299 35.79C15.4699 31.56 20.3299 28.62 24.6799 27.07C27.6387 25.901 30.8532 25.5319 33.9999 26C35.3897 26.2535 36.7134 26.7866 37.8909 27.567C39.0684 28.3474 40.0751 29.3589 40.8499 30.54L41.5899 30.1Z" fill="black"/>
<defs>
<radialGradient id="paint0_radial" cx="0" cy="0" r="1" gradientUnits="userSpaceOnUse" gradientTransform="translate(42.6984 28.7828) rotate(4.66211) scale(3.22001 3.22146)">
<stop offset="0.79" stop-color="#333333"/>
<stop offset="0.8" stop-color="#515151"/>
<stop offset="0.82" stop-color="#7E7E7E"/>
<stop offset="0.84" stop-color="#A4A4A4"/>
<stop offset="0.86" stop-color="#C1C1C1"/>
<stop offset="0.87" stop-color="#D5D5D5"/>
<stop offset="0.89" stop-color="#E2E2E2"/>
<stop offset="0.91" stop-color="#E6E6E6"/>
<stop offset="1" stop-color="#5C5C5C"/>
</radialGradient>
</defs>
</svg>
