<svg width="95" height="46" viewBox="0 0 95 46" fill="none" xmlns="http://www.w3.org/2000/svg">
<path d="M52.68 31.2299C52.5977 31.1945 52.524 31.1418 52.4641 31.0752C52.4041 31.0087 52.3593 30.9299 52.3327 30.8444C52.3061 30.7588 52.2983 30.6686 52.3099 30.5797C52.3216 30.4909 52.3523 30.4057 52.4 30.3299L52.55 30.0999C56.47 31.7675 60.6475 32.7484 64.9 32.9999C71.61 33.3199 82.04 31.9999 93.64 24.1199L94.14 24.8499C89.2256 28.2681 83.7687 30.8309 78 32.4299C73.7024 33.5986 69.2491 34.0912 64.8 33.8899C60.6381 33.6991 56.5393 32.7995 52.68 31.2299V31.2299Z" fill="black"/>
<path d="M52.61 31.77C53.2033 31.5385 53.7147 31.1364 54.0795 30.6144C54.4442 30.0923 54.646 29.4738 54.6593 28.8371C54.6725 28.2004 54.4967 27.5741 54.154 27.0373C53.8113 26.5005 53.3171 26.0774 52.7339 25.8215C52.1508 25.5656 51.5048 25.4883 50.8778 25.5995C50.2507 25.7107 49.6707 26.0053 49.2111 26.4462C48.7514 26.887 48.4329 27.4542 48.2956 28.0761C48.1584 28.698 48.2086 29.3466 48.44 29.94C48.7525 30.7339 49.3664 31.372 50.1477 31.7148C50.9289 32.0577 51.8142 32.0775 52.61 31.77V31.77ZM50.48 26.32C50.9639 26.1287 51.4936 26.0852 52.0021 26.195C52.5107 26.3049 52.9753 26.5631 53.337 26.937C53.6988 27.311 53.9416 27.7838 54.0345 28.2957C54.1275 28.8076 54.0666 29.3356 53.8595 29.8129C53.6523 30.2901 53.3083 30.6953 52.8708 30.9769C52.4334 31.2586 51.9222 31.4043 51.402 31.3954C50.8818 31.3865 50.3759 31.2235 49.9484 30.9271C49.5208 30.6306 49.1908 30.214 49 29.7299C48.8721 29.409 48.809 29.0659 48.8142 28.7204C48.8194 28.375 48.893 28.034 49.0305 27.717C49.1681 27.4001 49.367 27.1135 49.6157 26.8737C49.8645 26.6339 50.1582 26.4457 50.48 26.32V26.32Z" fill="url(#paint0_radial)"/>
<path d="M52.55 30.1C53.3642 28.7966 54.4425 27.6782 55.7153 26.8171C56.9882 25.9559 58.4273 25.3709 59.94 25.1C63.2482 24.5949 66.6312 24.9816 69.74 26.22C74.19 27.8 79.1401 30.79 84.4701 35.09L83.9101 35.78C78.6701 31.55 73.81 28.61 69.46 27.06C66.4976 25.8916 63.2791 25.5259 60.1301 26C58.7413 26.2525 57.4186 26.7852 56.2426 27.5658C55.0666 28.3463 54.062 29.3583 53.2901 30.54L52.55 30.1Z" fill="black"/>
<path d="M52.68 31.2299C52.5977 31.1945 52.524 31.1418 52.4641 31.0752C52.4041 31.0087 52.3593 30.9299 52.3327 30.8444C52.3061 30.7588 52.2983 30.6686 52.3099 30.5797C52.3216 30.4909 52.3523 30.4057 52.4 30.3299L52.55 30.0999C56.47 31.7675 60.6475 32.7484 64.9 32.9999C71.61 33.3199 82.04 31.9999 93.64 24.1199L94.14 24.8499C89.2256 28.2681 83.7687 30.8309 78 32.4299C73.7024 33.5986 69.2491 34.0912 64.8 33.8899C60.6381 33.6991 56.5393 32.7995 52.68 31.2299V31.2299Z" fill="black"/>
<path d="M52.61 31.77C53.2033 31.5385 53.7147 31.1364 54.0795 30.6144C54.4442 30.0923 54.646 29.4738 54.6593 28.8371C54.6725 28.2004 54.4967 27.5741 54.154 27.0373C53.8113 26.5005 53.3171 26.0774 52.7339 25.8215C52.1508 25.5656 51.5048 25.4883 50.8778 25.5995C50.2507 25.7107 49.6707 26.0053 49.2111 26.4462C48.7514 26.887 48.4329 27.4542 48.2956 28.0761C48.1584 28.698 48.2086 29.3466 48.44 29.94C48.7525 30.7339 49.3664 31.372 50.1477 31.7148C50.9289 32.0577 51.8142 32.0775 52.61 31.77V31.77ZM50.48 26.32C50.9639 26.1287 51.4936 26.0852 52.0021 26.195C52.5107 26.3049 52.9753 26.5631 53.337 26.937C53.6988 27.311 53.9416 27.7838 54.0345 28.2957C54.1275 28.8076 54.0666 29.3356 53.8595 29.8129C53.6523 30.2901 53.3083 30.6953 52.8708 30.9769C52.4334 31.2586 51.9222 31.4043 51.402 31.3954C50.8818 31.3865 50.3759 31.2235 49.9484 30.9271C49.5208 30.6306 49.1908 30.214 49 29.7299C48.8721 29.409 48.809 29.0659 48.8142 28.7204C48.8194 28.375 48.893 28.034 49.0305 27.717C49.1681 27.4001 49.367 27.1135 49.6157 26.8737C49.8645 26.6339 50.1582 26.4457 50.48 26.32V26.32Z" fill="url(#paint1_radial)"/>
<path d="M14.46 38.77L36.27 44.64C38.7467 45.3074 41.3307 45.4804 43.8743 45.149C46.4179 44.8177 48.8713 43.9885 51.0944 42.7089C53.3175 41.4293 55.2667 39.7242 56.8308 37.6912C58.3949 35.6581 59.5431 33.3369 60.21 30.86L60.31 30.48C61.6549 25.4794 60.9587 20.1493 58.3746 15.6619C55.7905 11.1744 51.5301 7.89689 46.53 6.54999L24.71 0.679986C22.2339 0.0127012 19.6506 -0.160149 17.1077 0.17131C14.5648 0.50277 12.1121 1.33204 9.8898 2.61175C7.6675 3.89145 5.71914 5.5965 4.15604 7.62947C2.59294 9.66244 1.44573 11.9835 0.779985 14.46L0.679986 14.84C0.0127012 17.3161 -0.160149 19.8994 0.17131 22.4423C0.50277 24.9852 1.33204 27.4379 2.61175 29.6602C3.89145 31.8825 5.5965 33.8308 7.62947 35.3939C9.66244 36.957 11.9835 38.1042 14.46 38.77V38.77ZM48.46 29.94C48.2286 29.3467 48.1784 28.698 48.3156 28.0762C48.4528 27.4543 48.7714 26.887 49.231 26.4462C49.6906 26.0054 50.2707 25.7107 50.8977 25.5995C51.5248 25.4884 52.1707 25.5656 52.7539 25.8215C53.3371 26.0774 53.8313 26.5005 54.174 27.0373C54.5167 27.5741 54.6925 28.2004 54.6792 28.8372C54.666 29.4739 54.4642 30.0923 54.0994 30.6144C53.7347 31.1364 53.2233 31.5386 52.63 31.77C52.235 31.9281 51.8126 32.0061 51.3872 31.9996C50.9618 31.993 50.542 31.9019 50.1521 31.7316C49.7622 31.5613 49.4101 31.3153 49.1162 31.0077C48.8223 30.7001 48.5924 30.3372 48.44 29.94H48.46Z" fill="#2569B4"/>
<path d="M52.55 30.1C53.3642 28.7966 54.4425 27.6782 55.7153 26.8171C56.9882 25.9559 58.4273 25.3709 59.94 25.1C63.2482 24.5949 66.6312 24.9816 69.74 26.22C74.19 27.8 79.1401 30.79 84.4701 35.09L83.9101 35.78C78.6701 31.55 73.81 28.61 69.46 27.06C66.4976 25.8916 63.2791 25.5259 60.1301 26C58.7413 26.2525 57.4186 26.7852 56.2426 27.5658C55.0666 28.3463 54.062 29.3583 53.2901 30.54L52.55 30.1Z" fill="black"/>
<defs>
<radialGradient id="paint0_radial" cx="0" cy="0" r="1" gradientUnits="userSpaceOnUse" gradientTransform="translate(51.4296 28.7779) rotate(4.66) scale(3.22)">
<stop offset="0.79" stop-color="#333333"/>
<stop offset="0.8" stop-color="#515151"/>
<stop offset="0.82" stop-color="#7E7E7E"/>
<stop offset="0.84" stop-color="#A4A4A4"/>
<stop offset="0.86" stop-color="#C1C1C1"/>
<stop offset="0.87" stop-color="#D5D5D5"/>
<stop offset="0.89" stop-color="#E2E2E2"/>
<stop offset="0.91" stop-color="#E6E6E6"/>
<stop offset="1" stop-color="#5C5C5C"/>
</radialGradient>
<radialGradient id="paint1_radial" cx="0" cy="0" r="1" gradientUnits="userSpaceOnUse" gradientTransform="translate(51.4296 28.7779) rotate(4.66) scale(3.22)">
<stop offset="0.79" stop-color="#333333"/>
<stop offset="0.8" stop-color="#515151"/>
<stop offset="0.82" stop-color="#7E7E7E"/>
<stop offset="0.84" stop-color="#A4A4A4"/>
<stop offset="0.86" stop-color="#C1C1C1"/>
<stop offset="0.87" stop-color="#D5D5D5"/>
<stop offset="0.89" stop-color="#E2E2E2"/>
<stop offset="0.91" stop-color="#E6E6E6"/>
<stop offset="1" stop-color="#5C5C5C"/>
</radialGradient>
</defs>
</svg>
