<svg xmlns="http://www.w3.org/2000/svg" xmlns:xlink="http://www.w3.org/1999/xlink" viewBox="0 0 94.14 45.32"><defs><style>.cls-1{fill:#fdba1e;}.cls-2{fill:url(#radial-gradient);}</style><radialGradient id="radial-gradient" cx="-4.15" cy="263.12" r="3.22" gradientTransform="matrix(-1, 0.08, 0.08, 1, 17.2, -233.15)" gradientUnits="userSpaceOnUse"><stop offset="0.79" stop-color="#333"/><stop offset="0.8" stop-color="#515151"/><stop offset="0.82" stop-color="#7e7e7e"/><stop offset="0.84" stop-color="#a4a4a4"/><stop offset="0.86" stop-color="#c1c1c1"/><stop offset="0.87" stop-color="#d5d5d5"/><stop offset="0.89" stop-color="#e2e2e2"/><stop offset="0.91" stop-color="#e6e6e6"/><stop offset="1" stop-color="#5c5c5c"/></radialGradient></defs><g id="Layer_2" data-name="Layer 2"><g id="Layer_2-2" data-name="Layer 2"><path d="M41.47,31.23a.61.61,0,0,0,.27-.9l-.15-.23h0A37.15,37.15,0,0,1,29.24,33c-6.7.32-17.13-1-28.74-8.88l-.5.73a53.22,53.22,0,0,0,16.13,7.58,42.94,42.94,0,0,0,13.2,1.46A36.77,36.77,0,0,0,41.47,31.23Z"/><path d="M41.47,31.23a.61.61,0,0,0,.27-.9l-.15-.23h0A37.15,37.15,0,0,1,29.24,33c-6.7.32-17.13-1-28.74-8.88l-.5.73a53.22,53.22,0,0,0,16.13,7.58,42.94,42.94,0,0,0,13.2,1.46A36.77,36.77,0,0,0,41.47,31.23Z"/><path class="cls-1" d="M93.47,14.84l-.1-.38A19.53,19.53,0,0,0,69.43.68L47.62,6.55A19.51,19.51,0,0,0,33.84,30.48l.1.38A19.52,19.52,0,0,0,57.87,44.64l21.82-5.87A19.53,19.53,0,0,0,93.47,14.84ZM41.53,31.77a3.22,3.22,0,1,1,4.18-1.83A3.23,3.23,0,0,1,41.53,31.77Z"/><path class="cls-2" d="M45.71,29.94a3.22,3.22,0,1,0-4.18,1.83A3.22,3.22,0,0,0,45.71,29.94Zm-.56-.21a2.63,2.63,0,1,1-1.48-3.41A2.62,2.62,0,0,1,45.15,29.73Z"/><path d="M41.59,30.1a11,11,0,0,0-7.38-5,18.8,18.8,0,0,0-9.8,1.12C20,27.81,15,30.8,9.68,35.1l.55.69c5.24-4.23,10.1-7.17,14.45-8.72A18.11,18.11,0,0,1,34,26a10.43,10.43,0,0,1,6.85,4.54Z"/><path class="cls-2" d="M45.71,29.94a3.22,3.22,0,1,0-4.18,1.83A3.22,3.22,0,0,0,45.71,29.94Zm-.56-.21a2.63,2.63,0,1,1-1.48-3.41A2.62,2.62,0,0,1,45.15,29.73Z"/><path d="M41.59,30.1a11,11,0,0,0-7.38-5,18.8,18.8,0,0,0-9.8,1.12C20,27.81,15,30.8,9.68,35.1l.55.69c5.24-4.23,10.1-7.17,14.45-8.72A18.11,18.11,0,0,1,34,26a10.43,10.43,0,0,1,6.85,4.54Z"/></g></g></svg>