<svg xmlns="http://www.w3.org/2000/svg" xmlns:xlink="http://www.w3.org/1999/xlink" viewBox="0 0 373.67 63.7"><defs><clipPath id="clip-path"><path d="M261.39,38.78a3.7,3.7,0,1,1,1.18.7,3.76,3.76,0,0,1-1.18-.7M260.44,33a4.54,4.54,0,1,0,6.4-.4,4.75,4.75,0,0,0-1.44-.86,4.54,4.54,0,0,0-5,1.26" style="fill:none"/></clipPath><radialGradient id="radial-gradient" cx="-754.72" cy="8804.21" r="1.41" gradientTransform="translate(-28106.53 -2395.74) rotate(-90) scale(3.22)" gradientUnits="userSpaceOnUse"><stop offset="0" stop-color="#595a5c"/><stop offset="0.79" stop-color="#595a5c"/><stop offset="0.8" stop-color="#808082"/><stop offset="0.83" stop-color="#a5a5a6"/><stop offset="0.85" stop-color="#c2c2c2"/><stop offset="0.87" stop-color="#d6d7d7"/><stop offset="0.89" stop-color="#e3e3e3"/><stop offset="0.91" stop-color="#e7e7e7"/><stop offset="1" stop-color="#7a7b7d"/></radialGradient></defs><g id="Layer_2" data-name="Layer 2"><g id="Layer_1-2" data-name="Layer 1"><path d="M75.9,15.85h4.88V32.94H91.34v4H75.9Z" style="fill:#2d69b3"/><path d="M100.09,15.85H105V36.91h-4.88Z" style="fill:#2d69b3"/><path d="M134.27,27.87a5.28,5.28,0,0,1,1,3.3,4.87,4.87,0,0,1-2.15,4.25,10.94,10.94,0,0,1-6.27,1.49H116V15.85h10.29a10,10,0,0,1,5.91,1.48,4.66,4.66,0,0,1,2.06,4,5.06,5.06,0,0,1-2.8,4.63A5.57,5.57,0,0,1,134.27,27.87Zm-13.45-8.35v5h4.84a4.89,4.89,0,0,0,2.74-.63,2.13,2.13,0,0,0,.93-1.87,2.07,2.07,0,0,0-.93-1.85,5,5,0,0,0-2.74-.62Zm8.59,13.09a2.17,2.17,0,0,0,1-2c0-1.74-1.3-2.61-3.88-2.61h-5.69v5.2h5.69A5.4,5.4,0,0,0,129.41,32.61Z" style="fill:#2d69b3"/><path d="M158.43,36.91l-4.06-5.86h-4.49v5.86H145V15.85h9.11a11.55,11.55,0,0,1,4.86.94,7.19,7.19,0,0,1,3.18,2.64,7.33,7.33,0,0,1,1.11,4.06,6.86,6.86,0,0,1-4.33,6.65l4.72,6.77Zm-1.24-16.14a5.12,5.12,0,0,0-3.34-.95h-4v7.34h4a5.06,5.06,0,0,0,3.34-1,3.32,3.32,0,0,0,1.15-2.71A3.31,3.31,0,0,0,157.19,20.77Z" style="fill:#2d69b3"/><path d="M187,32.4h-9.78l-1.86,4.51h-5l9.39-21.06h4.81L194,36.91h-5.12Zm-1.54-3.7-3.34-8.06-3.34,8.06Z" style="fill:#2d69b3"/><path d="M215.62,36.91l-4.06-5.86h-4.49v5.86H202.2V15.85h9.12a11.61,11.61,0,0,1,4.86.94,7.21,7.21,0,0,1,3.17,2.64,7.33,7.33,0,0,1,1.11,4.06,7.08,7.08,0,0,1-1.13,4.05,7.15,7.15,0,0,1-3.2,2.6l4.72,6.77Zm-1.23-16.14a5.15,5.15,0,0,0-3.34-.95h-4v7.34h4a5.1,5.1,0,0,0,3.34-1,3.34,3.34,0,0,0,1.14-2.71A3.34,3.34,0,0,0,214.39,20.77Z" style="fill:#2d69b3"/><path d="M240.14,29.45v7.46h-4.88V29.39l-8.15-13.54h5.18l5.62,9.36,5.63-9.36h4.78Z" style="fill:#2d69b3"/><rect y="44.1" width="51.7" height="4.75" style="fill:#2d69b3"/><rect x="2.37" y="39.87" width="46.95" height="2.63" style="fill:#2d69b3"/><rect x="2.37" y="13.93" width="46.95" height="2.63" style="fill:#2d69b3"/><rect x="6.61" y="18" width="6.27" height="20.17" style="fill:#2d69b3"/><rect x="17.29" y="18" width="6.27" height="20.17" style="fill:#2d69b3"/><rect x="27.97" y="18" width="6.27" height="20.17" style="fill:#2d69b3"/><rect x="38.65" y="18" width="6.27" height="20.17" style="fill:#2d69b3"/><polygon points="3.56 11.22 49.33 11.22 25.85 1.39 3.56 11.22" style="fill:#2d69b3"/><path class = "label" d="M260.1,38.57a4.53,4.53,0,1,1,6.4-.4,4.54,4.54,0,0,1-6.4.4m91.21,21.1-73.53,4a23.64,23.64,0,0,1-24.89-22.32l-.67-12.42A23.64,23.64,0,0,1,274.54,4l73.53-4A23.64,23.64,0,0,1,373,22.36l.67,12.42A23.64,23.64,0,0,1,351.31,59.67Z"/><g style="clip-path:url(#clip-path)"><rect x="258.5" y="30.77" width="10.48" height="11.03" transform="translate(158.89 280.99) rotate(-74.64)" style="fill:url(#radial-gradient)"/></g><path d="M261.2,38.73a1.15,1.15,0,0,0,.66-1.1l0-.35c.5-.25-5.36,1.87-11.44.17-5.62-1.57-13.49-6.36-19.12-20.28l-.76.82c2.53,6.26,5.72,11.25,9.48,14.82a23.76,23.76,0,0,0,10,5.84,22.3,22.3,0,0,0,11.16.08" style="fill:#2d69b3"/><circle cx="263.82" cy="36.07" r="4.18" style="fill:#fafafa"/><g style="clip-path:url(#clip-path)"><rect x="258.5" y="30.77" width="10.48" height="11.03" transform="translate(158.89 280.99) rotate(-74.64)" style="fill:url(#radial-gradient)"/></g><path d="M261.73,36.32c0-.17,0-5.56-4-8.13a15.22,15.22,0,0,0-8.84-2c-4.41.18-9.75,1.59-15.89,4.18l.23.86c6-2.55,11.28-3.93,15.59-4.11A14.57,14.57,0,0,1,257.22,29a9.43,9.43,0,0,1,4.15,6.61A1.92,1.92,0,0,0,261.73,36.32Z" style="fill:#2d69b3"/></g></g></svg>