<svg width="74" height="70" viewBox="0 0 74 70" fill="none" xmlns="http://www.w3.org/2000/svg">
<path d="M36.91 69.88C57.2948 69.88 73.82 54.2368 73.82 34.94C73.82 15.6432 57.2948 0 36.91 0C16.5252 0 0 15.6432 0 34.94C0 54.2368 16.5252 69.88 36.91 69.88Z" fill="#7092BE"/>
<path d="M36.8702 67.75C55.9019 67.75 71.3302 53.141 71.3302 35.12C71.3302 17.0989 55.9019 2.48999 36.8702 2.48999C17.8384 2.48999 2.41016 17.0989 2.41016 35.12C2.41016 53.141 17.8384 67.75 36.8702 67.75Z" fill="#118E11"/>
<path d="M36.3701 64.9901C53.7671 64.9901 67.8701 51.6392 67.8701 35.1701C67.8701 18.701 53.7671 5.3501 36.3701 5.3501C18.9731 5.3501 4.87012 18.701 4.87012 35.1701C4.87012 51.6392 18.9731 64.9901 36.3701 64.9901Z" fill="#99D9EA"/>
<path d="M36.3699 62.1C52.0824 62.1 64.8199 50.043 64.8199 35.17C64.8199 20.297 52.0824 8.23999 36.3699 8.23999C20.6574 8.23999 7.91992 20.297 7.91992 35.17C7.91992 50.043 20.6574 62.1 36.3699 62.1Z" fill="#DFB728"/>
<path d="M54.4046 36.2852C54.4046 34.0864 53.1492 32.1127 51.2862 31.1885C52.1016 30.2355 52.5266 29.0949 52.5266 27.8342C52.5266 24.7873 50.0477 22.3086 47.0008 22.3086C46.4407 22.3086 45.8918 22.3953 45.36 22.5671C45.075 20.098 42.9718 18.1746 40.4278 18.1746C38.6441 18.1746 37.0777 19.1204 36.2023 20.5365C35.3269 19.1204 33.7605 18.1746 31.9768 18.1746C29.4326 18.1746 27.3296 20.098 27.0448 22.5671C26.5127 22.3951 25.9639 22.3086 25.4037 22.3086C22.3569 22.3086 19.878 24.7873 19.878 27.8342C19.878 29.0949 20.303 30.2355 21.1184 31.1885C19.2554 32.1127 18 34.0864 18 36.2852C18 38.4232 19.26 40.3501 21.1289 41.2569C20.3237 42.233 19.878 43.4501 19.878 44.736C19.878 47.7828 22.3569 50.2616 25.4037 50.2616C25.9639 50.2616 26.5127 50.1749 27.0448 50.003C27.3294 52.472 29.4326 54.3958 31.9768 54.3958C33.7605 54.3958 35.3267 53.45 36.2021 52.0338C37.0775 53.45 38.6439 54.3958 40.4276 54.3958C42.9718 54.3958 45.0748 52.4722 45.3596 50.003C45.8915 50.1751 46.4403 50.2616 47.0005 50.2616C50.0473 50.2616 52.5262 47.7828 52.5262 44.736C52.5262 43.4501 52.0807 42.233 51.2753 41.2569C53.1444 40.3501 54.4046 38.4232 54.4046 36.2852ZM31.9768 52.9174C30.0545 52.9174 28.4905 51.3534 28.4905 49.4311C28.4905 49.3139 28.5088 49.1866 28.5298 49.0391L28.5419 48.9534C28.5809 48.6728 28.4559 48.3947 28.2207 48.2373C27.985 48.0796 27.6803 48.0711 27.436 48.214C26.7914 48.5919 26.1076 48.7834 25.4039 48.7834C23.1722 48.7834 21.3566 46.9679 21.3566 44.7362C21.3566 43.4851 21.9376 42.3208 22.9505 41.5411C23.1782 41.3659 23.2839 41.0745 23.221 40.7938C23.1582 40.5133 22.9387 40.2946 22.6578 40.2333C20.8156 39.8299 19.4784 38.1694 19.4784 36.2852C19.4784 34.3773 20.8138 32.6435 22.5942 32.2195H24.5037C25.3906 32.2195 26.1121 33.0707 26.1121 34.1174C26.1121 35.1642 25.3906 36.0156 24.5037 36.0156H24.0343C23.6261 36.0156 23.2951 36.3465 23.2951 36.7548C23.2951 37.163 23.6261 37.494 24.0343 37.494H24.5037C26.2058 37.494 27.5905 35.9793 27.5905 34.1174C27.5905 32.2556 26.2058 30.7411 24.5037 30.7411H22.7605C21.8287 29.9524 21.3564 28.9757 21.3564 27.8342C21.3564 25.6025 23.1721 23.787 25.4037 23.787C26.1075 23.787 26.7912 23.9785 27.4358 24.3564C27.6799 24.499 27.9847 24.4907 28.2205 24.3331C28.4557 24.1756 28.5807 23.8975 28.5417 23.617L28.5297 23.5309C28.5086 23.3836 28.4903 23.2564 28.4903 23.1393C28.4903 21.2171 30.0543 19.6532 31.9766 19.6532C33.8991 19.653 35.4631 21.217 35.4631 23.1391V34.4372H35.3348C33.2968 34.4372 31.6388 36.0952 31.6388 38.1332C31.6388 38.5414 31.9698 38.8724 32.378 38.8724C32.7862 38.8724 33.1172 38.5414 33.1172 38.1332C33.1172 36.9104 34.112 35.9156 35.3348 35.9156H35.4631V49.4311C35.4631 51.3534 33.8991 52.9174 31.9768 52.9174ZM49.7468 40.2331C49.4659 40.2945 49.2464 40.5133 49.1835 40.7936C49.1207 41.0743 49.2262 41.3658 49.4541 41.541C50.467 42.3206 51.048 43.4851 51.048 44.736C51.048 46.9677 49.2323 48.7832 47.0006 48.7832C46.2969 48.7832 45.6131 48.5917 44.9686 48.2138C44.7241 48.0708 44.4195 48.0793 44.1839 48.2371C43.9486 48.3945 43.8237 48.6727 43.8627 48.9532L43.8747 49.0389C43.8958 49.1864 43.9141 49.3137 43.9141 49.4309C43.9141 51.3532 42.3501 52.9172 40.4278 52.9172C38.5055 52.9172 36.9415 51.3534 36.9415 49.4311V40.3508H37.7001C38.9229 40.3508 39.9177 41.3456 39.9177 42.5685C39.9177 42.9767 40.2487 43.3077 40.6569 43.3077C41.0652 43.3077 41.3961 42.9767 41.3961 42.5685C41.3961 40.5305 39.7381 38.8724 37.7001 38.8724H36.9415V23.1391C36.9415 21.217 38.5053 19.653 40.4278 19.653C42.3503 19.653 43.9141 21.217 43.9141 23.1391C43.9141 23.2563 43.8958 23.3834 43.8747 23.5307L43.8627 23.6168C43.8237 23.8973 43.9486 24.1755 44.1839 24.3329C44.4199 24.4907 44.7243 24.4992 44.9686 24.3562C45.6131 23.9783 46.2969 23.7868 47.0006 23.7868C49.2323 23.7868 51.048 25.6023 51.048 27.834C51.048 28.9755 50.5758 29.9524 49.6439 30.7409H47.9394C46.2374 30.7409 44.8529 32.2554 44.8529 34.1173C44.8529 35.9791 46.2374 37.4938 47.9394 37.4938H48.409C48.8172 37.4938 49.1482 37.1628 49.1482 36.7546C49.1482 36.3463 48.8172 36.0154 48.409 36.0154H47.9394C47.0526 36.0154 46.3313 35.164 46.3313 34.1173C46.3313 33.0705 47.0526 32.2193 47.9394 32.2193H49.8102C51.5906 32.6433 52.926 34.3771 52.926 36.285C52.9261 38.1694 51.5889 39.8299 49.7468 40.2331V40.2331Z" fill="black"/>
<path d="M42.7754 29.9819C44.7362 29.9819 46.3316 28.3865 46.3316 26.4257C46.3316 26.0175 46.0006 25.6865 45.5923 25.6865C45.1841 25.6865 44.8531 26.0175 44.8531 26.4257C44.8531 27.5713 43.921 28.5035 42.7754 28.5035H41.8364C39.8757 28.5035 38.2803 30.0989 38.2803 32.0596C38.2803 32.4678 38.6113 32.7988 39.0195 32.7988C39.4277 32.7988 39.7587 32.4678 39.7587 32.0596C39.7587 30.914 40.6908 29.9819 41.8364 29.9819H42.7754Z" fill="black"/>
<path d="M43.391 37.2833C43.1646 36.9437 42.7055 36.8513 42.3659 37.0784C42.0262 37.3048 41.9343 37.7638 42.1609 38.1035L43.3789 39.9308C43.7293 40.4568 43.9147 41.0685 43.9147 41.7001C43.9147 42.5521 43.5828 43.353 42.9803 43.9556L41.3142 45.6218C41.0255 45.9105 41.0255 46.3786 41.3142 46.667C41.4583 46.8114 41.6477 46.8836 41.8368 46.8836C42.0258 46.8836 42.2152 46.8114 42.3594 46.667L44.0256 45.0009C44.9073 44.1192 45.3929 42.947 45.3929 41.7001C45.3929 40.7755 45.1218 39.8802 44.6088 39.1107L43.391 37.2833Z" fill="black"/>
<path d="M30.6074 29.9819C31.753 29.9819 32.6852 30.914 32.6852 32.0596C32.6852 32.4678 33.0161 32.7988 33.4244 32.7988C33.8326 32.7988 34.1636 32.4678 34.1636 32.0596C34.1636 30.0989 32.5682 28.5035 30.6074 28.5035H29.6685C28.5229 28.5035 27.5907 27.5713 27.5907 26.4257C27.5907 26.0175 27.2597 25.6865 26.8515 25.6865C26.4433 25.6865 26.1123 26.0175 26.1123 26.4257C26.1123 28.3865 27.7077 29.9819 29.6685 29.9819H30.6074Z" fill="black"/>
<path d="M34.0735 43.983L31.7485 44.3676C30.9076 44.5071 30.0635 44.31 29.3708 43.8141C28.8571 43.4462 28.4675 42.9395 28.2441 42.3483L27.4677 40.2942C27.3236 39.9122 26.8974 39.7191 26.5151 39.8642C26.1333 40.0083 25.9407 40.435 26.085 40.8168L26.8612 42.8707C27.1881 43.736 27.7582 44.4776 28.51 45.0159C29.3115 45.5897 30.2516 45.8898 31.2177 45.8898C31.4741 45.8898 31.732 45.8688 31.9898 45.8261L34.3148 45.4415C34.7175 45.375 34.9899 44.9943 34.9234 44.5916C34.8565 44.1891 34.4754 43.9149 34.0735 43.983V43.983Z" fill="black"/>
<path d="M48.7879 18.9137C48.977 18.9137 49.1664 18.8415 49.3106 18.6971L51.5282 16.4795C51.8169 16.1908 51.8169 15.7227 51.5282 15.4343C51.2397 15.1456 50.7712 15.1456 50.483 15.4343L48.2653 17.6519C47.9767 17.9406 47.9767 18.4087 48.2653 18.6971C48.4095 18.8415 48.5989 18.9137 48.7879 18.9137Z" fill="black"/>
<path d="M49.5273 20.392C49.5273 20.8003 49.8583 21.1312 50.2666 21.1312H53.2234C53.6316 21.1312 53.9626 20.8003 53.9626 20.392C53.9626 19.9838 53.6316 19.6528 53.2234 19.6528H50.2666C49.8583 19.6528 49.5273 19.9838 49.5273 20.392Z" fill="black"/>
<path d="M46.5703 17.4353C46.9785 17.4353 47.3095 17.1043 47.3095 16.696V13.7392C47.3095 13.331 46.9785 13 46.5703 13C46.162 13 45.8311 13.331 45.8311 13.7392V16.696C45.8311 17.1043 46.162 17.4353 46.5703 17.4353Z" fill="black"/>
</svg>
