<svg width="74" height="70" viewBox="0 0 74 70" fill="none" xmlns="http://www.w3.org/2000/svg">
<path d="M36.91 69.88C57.2948 69.88 73.82 54.2368 73.82 34.94C73.82 15.6432 57.2948 0 36.91 0C16.5252 0 0 15.6432 0 34.94C0 54.2368 16.5252 69.88 36.91 69.88Z" fill="#7092BE"/>
<path d="M36.8699 67.75C55.9016 67.75 71.3299 53.141 71.3299 35.12C71.3299 17.0989 55.9016 2.48999 36.8699 2.48999C17.8382 2.48999 2.40991 17.0989 2.40991 35.12C2.40991 53.141 17.8382 67.75 36.8699 67.75Z" fill="white"/>
<path d="M36.3701 64.9901C53.7671 64.9901 67.8701 51.6392 67.8701 35.1701C67.8701 18.701 53.7671 5.3501 36.3701 5.3501C18.9731 5.3501 4.87012 18.701 4.87012 35.1701C4.87012 51.6392 18.9731 64.9901 36.3701 64.9901Z" fill="#99D9EA"/>
<path d="M36.3699 62.1C52.0824 62.1 64.8199 50.043 64.8199 35.17C64.8199 20.297 52.0824 8.23999 36.3699 8.23999C20.6574 8.23999 7.91992 20.297 7.91992 35.17C7.91992 50.043 20.6574 62.1 36.3699 62.1Z" fill="#C8BFE7"/>
<path d="M42.2612 26.9884C42.1478 27.3892 41.7807 27.6514 41.3812 27.6514C41.2994 27.6514 41.2162 27.6403 41.1333 27.6172L33.8117 25.575C33.3253 25.4393 33.0418 24.9378 33.1784 24.4548C33.3151 23.9718 33.8197 23.6901 34.3063 23.8258L41.6281 25.868C42.1141 26.0039 42.3978 26.5054 42.2612 26.9884ZM29.2614 49.1138C27.9052 49.1138 26.8017 50.2098 26.8017 51.557C26.8017 52.9041 27.9052 54 29.2614 54C30.6177 54 31.721 52.9041 31.721 51.557C31.721 50.2098 30.6177 49.1138 29.2614 49.1138ZM44.1903 49.1138C42.834 49.1138 41.7305 50.2098 41.7305 51.557C41.7305 52.9041 42.834 54 44.1903 54C45.5466 54 46.6501 52.9041 46.6501 51.557C46.6499 50.2098 45.5466 49.1138 44.1903 49.1138ZM49.985 29.2236L47.608 42.1302C47.5284 42.5617 47.1499 42.8751 46.7084 42.8751H27.0768L27.5816 45.2391C27.7071 45.8265 28.237 46.2529 28.8415 46.2529H45.4407C45.9457 46.2529 46.3552 46.6597 46.3552 47.1613C46.3552 47.6629 45.9457 48.0697 45.4407 48.0697H28.8413C27.3782 48.0697 26.0958 47.0377 25.7922 45.6161L25.0562 42.1697L20.1599 22.4118H16.9145C16.4095 22.4118 16 22.005 16 21.5034C16 21.0018 16.4095 20.595 16.9145 20.595H20.8765C21.2974 20.595 21.664 20.8802 21.7646 21.2863L23.4592 28.1245L28.9408 28.1303L31.4443 19.2758C31.4445 19.2755 31.4443 19.2753 31.4445 19.2749L32.1831 16.6631C32.3197 16.1802 32.8245 15.8982 33.3109 16.0341L46.5623 19.7302C47.0486 19.8659 47.3321 20.3674 47.1955 20.8503C47.0821 21.2512 46.715 21.5132 46.3155 21.5134C46.2338 21.5134 46.1505 21.5025 46.0679 21.4792L45.8656 21.4227L45.6289 22.2599L45.8312 22.3162C46.3173 22.4519 46.6009 22.9534 46.4644 23.4364L45.1325 28.1474L49.087 28.1515C49.358 28.1517 49.6152 28.2716 49.7888 28.4786C49.9618 28.6859 50.0339 28.9586 49.985 29.2236ZM33.6964 18.0286L33.4598 18.8658L43.8673 21.7688L44.104 20.9316L33.6964 18.0286ZM31.3042 28.1326L42.8426 28.145L43.4025 26.1649C43.468 25.9329 43.4382 25.6845 43.3195 25.4745C43.2008 25.2643 43.0029 25.1099 42.7693 25.0447L33.832 22.5519C33.5986 22.4866 33.3486 22.5162 33.1369 22.6343C32.9255 22.7522 32.7698 22.9488 32.7042 23.1808L31.3042 28.1326Z" fill="black"/>
</svg>
