<svg width="74" height="70" viewBox="0 0 74 70" fill="none" xmlns="http://www.w3.org/2000/svg">
<g clip-path="url(#clip0)">
<path d="M36.91 69.88C57.2948 69.88 73.82 54.2368 73.82 34.94C73.82 15.6432 57.2948 0 36.91 0C16.5252 0 0 15.6432 0 34.94C0 54.2368 16.5252 69.88 36.91 69.88Z" fill="#7092BE"/>
<path d="M36.8702 67.75C55.9019 67.75 71.3302 53.141 71.3302 35.12C71.3302 17.0989 55.9019 2.48999 36.8702 2.48999C17.8384 2.48999 2.41016 17.0989 2.41016 35.12C2.41016 53.141 17.8384 67.75 36.8702 67.75Z" fill="white"/>
<path d="M36.3701 64.9901C53.7671 64.9901 67.8701 51.6392 67.8701 35.1701C67.8701 18.701 53.7671 5.3501 36.3701 5.3501C18.9731 5.3501 4.87012 18.701 4.87012 35.1701C4.87012 51.6392 18.9731 64.9901 36.3701 64.9901Z" fill="#99D9EA"/>
<path d="M36.3699 62.1C52.0824 62.1 64.8199 50.043 64.8199 35.17C64.8199 20.297 52.0824 8.23999 36.3699 8.23999C20.6574 8.23999 7.91992 20.297 7.91992 35.17C7.91992 50.043 20.6574 62.1 36.3699 62.1Z" fill="#FFC90E"/>
<path d="M52.29 20.3008H48.4913C48.2593 19.5484 47.5574 19 46.7299 19H30.8863C30.5869 19 30.3443 19.2427 30.3443 19.542C30.3443 19.8413 30.5869 20.084 30.8863 20.084H46.7299C47.1483 20.084 47.4887 20.4244 47.4887 20.8428C47.4887 21.2612 47.1483 21.6016 46.7299 21.6016H26.27C25.8516 21.6016 25.5112 21.2612 25.5112 20.8428C25.5112 20.4244 25.8516 20.084 26.27 20.084H27.9966C28.7157 20.0608 28.7103 19.0212 27.9966 19H26.2701C25.4426 19 24.7408 19.5484 24.5087 20.3008H20.71C19.2157 20.3008 18 21.5164 18 23.0107V43.9316C18 45.4259 19.2157 46.6416 20.71 46.6416H35.958V51.1469C33.139 51.8462 33.5675 55.9285 36.5001 56C39.4331 55.9282 39.8606 51.8457 37.042 51.1469V46.6416H43.7266C44.436 46.6222 44.449 45.5814 43.7266 45.5576H20.71C19.8134 45.5576 19.084 44.8282 19.084 43.9316V43.4366H53.916V43.9316C53.916 44.8282 53.1866 45.5576 52.29 45.5576H46.6172C45.9047 45.5768 45.8979 46.6196 46.6172 46.6416H52.29C53.7843 46.6416 55 45.4259 55 43.9316V23.0107C55 21.5164 53.7843 20.3008 52.29 20.3008ZM37.873 53.543C37.873 54.3001 37.2571 54.916 36.5 54.916C34.681 54.847 34.6814 52.2386 36.5 52.1699C37.2571 52.1699 37.873 52.7858 37.873 53.543ZM19.084 42.3526V23.0107C19.084 22.1141 19.8134 21.3848 20.71 21.3848H24.5087C24.7407 22.1372 25.4426 22.6855 26.2701 22.6855H46.73C47.5575 22.6855 48.2593 22.1372 48.4913 21.3848H52.29C53.1866 21.3848 53.916 22.1141 53.916 23.0107V42.3526H19.084Z" fill="black"/>
<path d="M49.3483 27.843H37.7676C37.4682 27.843 37.2256 28.0857 37.2256 28.385C37.2256 28.6843 37.4682 28.927 37.7676 28.927H49.3483C50.0612 28.9064 50.0677 27.8659 49.3483 27.843V27.843Z" fill="black"/>
<path d="M49.3483 30.9109H37.7676C37.4682 30.9109 37.2256 31.1536 37.2256 31.4529C37.2256 31.7522 37.4682 31.9949 37.7676 31.9949H49.3483C50.0612 31.9743 50.0677 30.9337 49.3483 30.9109Z" fill="black"/>
<path d="M49.3483 33.9785H37.7676C37.4682 33.9785 37.2256 34.2212 37.2256 34.5205C37.2256 34.8198 37.4682 35.0625 37.7676 35.0625H49.3483C50.0612 35.0419 50.0677 34.0014 49.3483 33.9785Z" fill="black"/>
<path d="M49.3472 37.0461H44.5411C43.826 37.0677 43.8236 38.1078 44.5411 38.1301H49.3472C50.0623 38.1086 50.0647 37.0685 49.3472 37.0461V37.0461Z" fill="black"/>
<path d="M31.2993 27.0859C29.8865 27.0859 28.7202 28.1609 28.5748 29.5358C28.1165 26.1306 23.2144 26.3703 23.1104 29.826C23.1104 29.8259 23.1104 32.5788 23.1104 32.5788C23.1104 34.2035 23.9261 35.7004 25.2924 36.5829C26.3294 37.2528 27.5939 36.0478 27.0071 34.9753C26.6149 34.2584 26.4023 33.4275 26.3923 32.5787C26.3923 32.5402 26.418 32.5074 26.4549 32.4989C27.5593 32.2444 28.3928 31.3212 28.5593 30.2272V32.5788C28.5593 34.2035 29.375 35.7004 30.7413 36.5829C31.7783 37.2528 33.0428 36.0478 32.456 34.9753C32.0638 34.2584 31.8512 33.4275 31.8412 32.5787C31.8412 32.5402 31.8669 32.5074 31.9038 32.4989C35.0546 31.691 34.5581 27.1654 31.2993 27.0859V27.0859ZM26.2115 31.4426C25.6798 31.5652 25.3084 32.0324 25.3085 32.5851C25.3205 33.617 25.5791 34.6235 26.0562 35.4956C26.0886 35.6524 26.0302 35.7113 25.8807 35.6725C24.8248 34.9904 24.1944 33.834 24.1944 32.5788V29.8259C24.1944 28.9128 24.9372 28.1699 25.8504 28.1699C27.8268 28.2238 28.1123 30.9428 26.2115 31.4426V31.4426ZM31.6604 31.4426C31.1287 31.5652 30.7573 32.0324 30.7574 32.5851C30.7694 33.617 31.028 34.6235 31.5051 35.4956C31.5375 35.6524 31.4791 35.7113 31.3296 35.6725C30.2737 34.9904 29.6433 33.834 29.6433 32.5788V29.8259C29.6433 28.9128 30.3861 28.1699 31.2993 28.1699C33.2758 28.2238 33.5612 30.9428 31.6604 31.4426V31.4426Z" fill="black"/>
</g>
<defs>
<clipPath id="clip0">
<rect width="73.82" height="69.89" fill="white"/>
</clipPath>
</defs>
</svg>
