<svg xmlns="http://www.w3.org/2000/svg" viewBox="-20850 -23940 89.686 103.852">
  <defs>
    <style>
      .cls-1 {
        fill: #ffffff;
      }

      .cls-2 {
        fill: #FFBC1D;
      }
    </style>
  </defs>
  <g id="Lightsail_Logo_Single" transform="translate(-20850 -23940)">
    <path id="Path_9" data-name="Path 9" class="cls-1" d="M72.875,39.781q.464,1.486.9,3.028c6.694,23.715,4.5,45.674-6.352,63.508a3.231,3.231,0,0,1-2.149,1.5,3.164,3.164,0,0,1-.617.06,3.24,3.24,0,0,1-1.936-.642c-.25-.186-25.383-18.693-55.346-23.2a3.238,3.238,0,0,1-1.5-5.76c2.268-1.762,4.471-3.634,6.608-5.586q-1.526-.286-3.071-.521A3.238,3.238,0,0,1,7.9,66.4C20.951,56.265,31.63,42.157,39.18,30.292a44.852,44.852,0,1,0,33.7,9.489Z" transform="translate(0 -15.769)"/>
    <path id="Path_10" data-name="Path 10" class="cls-2" d="M35.958,51.279c19.876,4.458,36.2,14.316,42.7,18.651C93.071,42.576,79.99,11.946,73.673,0,68.278,10.693,55.079,34.248,35.958,51.279Z" transform="translate(-18.719)"/>
  </g>
</svg>
