<svg xmlns="http://www.w3.org/2000/svg" viewBox="0 0 22.46 22.41"><g id="Layer_2" data-name="Layer 2"><g id="Layer_1-2" data-name="Layer 1"><path d="M9.11,12.29,6.79,14.6a.56.56,0,0,0-.69.07L.16,20a.54.54,0,0,0,0,.77l.77.76.76.77a.54.54,0,0,0,.77,0l5.29-5.94a.57.57,0,0,0,.06-.69l2.32-2.32A7.23,7.23,0,0,0,14.92,15a7.26,7.26,0,0,0,5.34-2.18,7.23,7.23,0,0,0,2.2-5.32,7.22,7.22,0,0,0-2.2-5.31A7.26,7.26,0,0,0,14.92,0,7.25,7.25,0,0,0,9.59,2.18,7.21,7.21,0,0,0,7.41,7.49a7.19,7.19,0,0,0,1.7,4.8M20.47,4.85a.38.38,0,0,1,.71-.26c.07.19.13.37.18.56a5.41,5.41,0,0,1,.12.58.37.37,0,0,1-.74.12c0-.17-.07-.34-.11-.5S20.53,5,20.47,4.85Zm-3.86-3.4A.38.38,0,0,1,16.33,1a.37.37,0,0,1,.45-.28,6,6,0,0,1,2,.86,6.19,6.19,0,0,1,1.58,1.48.38.38,0,1,1-.61.45,5.73,5.73,0,0,0-1.38-1.31A5.51,5.51,0,0,0,16.61,1.45ZM14.92,12.81a4.71,4.71,0,0,1-3.61-1.56A5.3,5.3,0,0,1,9.85,7.49a5.32,5.32,0,0,1,1.46-3.76,4.74,4.74,0,0,1,3.61-1.55,4.68,4.68,0,0,1,3.62,1.55A5.31,5.31,0,0,1,20,7.49a5.29,5.29,0,0,1-1.45,3.76A4.66,4.66,0,0,1,14.92,12.81Z" style="fill:#fff;fill-rule:evenodd"/></g></g></svg>